SplineFontDB: 3.0
FontName: HM_FTXelham_Oblique
FullName: HM_FTXelham_Oblique
FamilyName: HM_FTXelham_Oblique
Weight: Book
Copyright: Copyright (c) Hossein, 2013. All rights reserved.
Version: 0.1
ItalicAngle: 0
UnderlinePosition: -540
UnderlineWidth: 60
Ascent: 1638
Descent: 410
sfntRevision: 0x00010000
LayerCount: 2
Layer: 0 1 "Back"  1
Layer: 1 1 "Fore"  0
XUID: [1021 102 1371595031 6992056]
FSType: 0
OS2Version: 2
OS2_WeightWidthSlopeOnly: 0
OS2_UseTypoMetrics: 1
CreationTime: 1194658560
ModificationTime: 1360912315
PfmFamily: 17
TTFWeight: 400
TTFWidth: 5
LineGap: 0
VLineGap: 0
Panose: 2 0 5 3 8 0 0 2 0 3
OS2TypoAscent: 2100
OS2TypoAOffset: 0
OS2TypoDescent: -1000
OS2TypoDOffset: 0
OS2TypoLinegap: 0
OS2WinAscent: 2100
OS2WinAOffset: 0
OS2WinDescent: 1000
OS2WinDOffset: 0
HheadAscent: 2100
HheadAOffset: 0
HheadDescent: -1000
HheadDOffset: 0
OS2SubXSize: 1434
OS2SubYSize: 1331
OS2SubXOff: 0
OS2SubYOff: 293
OS2SupXSize: 1434
OS2SupYSize: 1331
OS2SupXOff: 0
OS2SupYOff: 928
OS2StrikeYSize: 102
OS2StrikeYPos: 512
OS2Vendor: 'pars'
OS2CodePages: 20000051.41000000
OS2UnicodeRanges: 00002003.80000000.00000008.00000000
Lookup: 4 0 1 "gsub_ligature_dfl_liga_arab_FAR_Lookup_01"  {"gsub_ligature_dfl_liga_arab_FAR_Lookup_01_Subtable_01"  } ['liga' ('arab' <'FAR ' > ) ]
Lookup: 4 0 1 "gsub_ligature_dfl_liga_arab_FAR_Lookup_02"  {"gsub_ligature_dfl_liga_arab_FAR_Lookup_02_Subtable_01"  } ['liga' ('arab' <'FAR ' > ) ]
Lookup: 3 0 0 "gsub_alternate_dfl_aalt_arab_FAR_Lookup_01"  {"gsub_alternate_dfl_aalt_arab_FAR_Lookup_01_Subtable_01"  } ['aalt' ('arab' <'FAR ' > ) ]
Lookup: 1 1 0 "gsub_single_rtl_fina_arab_FAR_Lookup_01"  {"gsub_single_rtl_fina_arab_FAR_Lookup_01_Subtable_01"  } ['fina' ('arab' <'FAR ' > ) ]
Lookup: 1 1 0 "gsub_single_rtl_init_arab_FAR_Lookup_01"  {"gsub_single_rtl_init_arab_FAR_Lookup_01_Subtable_01"  } ['init' ('arab' <'FAR ' > ) ]

StartChar: .notdef
Encoding: 65536 -1 0
Width: 1039
GlyphClass: 2
Flags: W
LayerCount: 2
Fore
SplineSet
509 299 m 0,0,1
 516 269 516 269 501 246.5 c 128,-1,2
 486 224 486 224 456 224 c 0,3,4
 428 224 428 224 403 246.5 c 128,-1,5
 378 269 378 269 371 299 c 0,6,7
 364 331 364 331 378.5 352.5 c 128,-1,8
 393 374 393 374 424 374 c 0,9,10
 452 374 452 374 477 352.5 c 128,-1,11
 502 331 502 331 509 299 c 0,0,1
499 780 m 0,12,13
 509 737 509 737 493 710 c 128,-1,14
 477 683 477 683 443 683 c 0,15,16
 413 683 413 683 391 701.5 c 128,-1,17
 369 720 369 720 363 749 c 0,18,19
 358 770 358 770 363.5 785 c 128,-1,20
 369 800 369 800 378.5 810.5 c 128,-1,21
 388 821 388 821 395.5 829 c 128,-1,22
 403 837 403 837 401 843 c 0,23,24
 396 863 396 863 375.5 875 c 128,-1,25
 355 887 355 887 327 887 c 0,26,27
 292 887 292 887 274.5 866 c 128,-1,28
 257 845 257 845 264 813 c 0,29,30
 268 795 268 795 284 769 c 128,-1,31
 300 743 300 743 317.5 718 c 128,-1,32
 335 693 335 693 350 673 c 128,-1,33
 365 653 365 653 368 648 c 0,34,35
 385 619 385 619 399.5 583.5 c 128,-1,36
 414 548 414 548 422 513 c 0,37,38
 427 492 427 492 430.5 470.5 c 128,-1,39
 434 449 434 449 438 424 c 1,40,-1
 401 424 l 1,41,-1
 397 442 l 1,42,-1
 394 472 l 1,43,44
 386 505 386 505 336 544 c 0,45,46
 253 609 253 609 242 620 c 0,47,48
 188 673 188 673 172 740 c 0,49,50
 163 781 163 781 169 815.5 c 128,-1,51
 175 850 175 850 192.5 875.5 c 128,-1,52
 210 901 210 901 239 915 c 128,-1,53
 268 929 268 929 304 929 c 0,54,55
 337 929 337 929 368.5 918.5 c 128,-1,56
 400 908 400 908 426.5 888.5 c 128,-1,57
 453 869 453 869 472 841.5 c 128,-1,58
 491 814 491 814 499 780 c 0,12,13
114 31 m 1,59,-1
 913 31 l 1,60,-1
 662 1122 l 1,61,-1
 -138 1122 l 1,62,-1
 114 31 l 1,59,-1
91 0 m 1,63,-1
 -175 1154 l 1,64,-1
 682 1154 l 1,65,-1
 948 0 l 1,66,-1
 91 0 l 1,63,-1
EndSplineSet
EndChar

StartChar: exclam
Encoding: 33 33 4
Width: 480
VWidth: 1639
GlyphClass: 2
Flags: W
LayerCount: 2
Fore
SplineSet
-220 1356 m 1,0,-1
 -16 1356 l 1,1,-1
 204 402 l 1,2,-1
 -0 402 l 1,3,-1
 -220 1356 l 1,0,-1
142 216 m 0,4,5
 190 221 190 221 229 189 c 1,6,7
 274 147 274 147 277 77 c 0,8,9
 277 44 277 44 265 25 c 1,10,11
 244 1 244 1 202 -3 c 1,12,13
 149 -5 149 -5 113 25 c 1,14,15
 67 66 67 66 63 136 c 0,16,17
 62 170 62 170 75 190 c 0,18,19
 92 212 92 212 142 216 c 0,4,5
EndSplineSet
EndChar

StartChar: percent
Encoding: 37 37 8
Width: 916
VWidth: 1639
GlyphClass: 2
Flags: W
LayerCount: 2
Fore
SplineSet
461 1186 m 1,0,-1
 532 1145 l 1,1,-1
 483 992 l 1,2,-1
 385 684 l 1,3,-1
 169 10 l 1,4,-1
 121 39 l 1,5,-1
 102 52 l 1,6,-1
 107 72 l 1,7,-1
 122 120 l 1,8,-1
 183 312 l 1,9,-1
 377 923 l 1,10,-1
 461 1186 l 1,0,-1
-51 1092 m 1,11,12
 10 1098 10 1098 49 1064 c 0,13,14
 95 1023 95 1023 98 953 c 0,15,16
 99 920 99 920 87 900 c 1,17,18
 71 879 71 879 33 872 c 1,19,20
 -28 867 -28 867 -68 900 c 1,21,22
 -115 941 -115 941 -116 1014 c 0,23,24
 -116 1046 -116 1046 -105 1064 c 1,25,26
 -89 1085 -89 1085 -51 1092 c 1,11,12
619 280 m 1,27,28
 680 285 680 285 720 253 c 1,29,30
 765 211 765 211 767 141 c 0,31,32
 767 108 767 108 756 89 c 0,33,34
 742 68 742 68 703 61 c 1,35,36
 642 56 642 56 603 89 c 0,37,38
 555 133 555 133 553 202 c 0,39,40
 553 235 553 235 565 254 c 1,41,42
 583 273 583 273 619 280 c 1,27,28
EndSplineSet
EndChar

StartChar: parenleft
Encoding: 40 40 11
Width: 532
VWidth: 1639
GlyphClass: 2
Flags: W
LayerCount: 2
Fore
SplineSet
488 -200 m 1,0,1
 466 -200 466 -200 422 -201 c 0,2,3
 315 -204 315 -204 262 -197 c 0,4,5
 192 -185 192 -185 163 -159 c 1,6,7
 124 -121 124 -121 102 -39 c 0,8,9
 91 1 91 1 49 182 c 2,10,-1
 -143 1015 l 2,11,12
 -186 1201 -186 1201 -190 1223 c 0,13,14
 -202 1308 -202 1308 -184 1343 c 1,15,16
 -168 1369 -168 1369 -109 1381 c 0,17,18
 -63 1389 -63 1389 95 1386 c 0,19,20
 110 1386 110 1386 122 1386 c 1,21,-1
 157 1233 l 1,22,23
 72 1233 72 1233 57 1232 c 0,24,25
 20 1227 20 1227 17 1225 c 0,26,27
 13 1222 13 1222 1 1203 c 0,28,29
 -1 1200 -1 1200 -3 1199 c 0,30,31
 -16 1186 -16 1186 -19 1176 c 0,32,33
 -26 1150 -26 1150 -9 1079 c 2,34,-1
 33 900 l 1,35,-1
 178 271 l 1,36,-1
 217 103 l 2,37,38
 234 32 234 32 248 11 c 0,39,40
 257 1 257 1 277 -13 c 0,41,42
 280 -15 280 -15 285 -21 c 0,43,44
 299 -34 299 -34 307 -38 c 0,45,46
 318 -43 318 -43 359 -46 c 0,47,48
 421 -49 421 -49 453 -49 c 1,49,-1
 488 -200 l 1,0,1
EndSplineSet
EndChar

StartChar: parenright
Encoding: 41 41 12
Width: 622
VWidth: 1639
GlyphClass: 2
Flags: W
LayerCount: 2
Fore
SplineSet
-229 1386 m 1,0,-1
 -92 1386 l 2,1,2
 -18 1386 -18 1386 7 1381 c 1,3,4
 74 1364 74 1364 95 1343 c 0,5,6
 130 1308 130 1308 154 1233 c 0,7,8
 162 1205 162 1205 206 1017 c 2,9,-1
 399 180 l 2,10,11
 446 -25 446 -25 450 -49 c 0,12,13
 463 -121 463 -121 442 -159 c 1,14,15
 424 -186 424 -186 362 -197 c 0,16,17
 320 -204 320 -204 165 -200 c 0,18,19
 149 -200 149 -200 137 -200 c 1,20,-1
 102 -49 l 1,21,22
 135 -49 135 -49 195 -46 c 1,23,24
 237 -41 237 -41 243 -38 c 0,25,26
 244 -37 244 -37 259 -16 c 0,27,28
 260 -14 260 -14 262 -13 c 0,29,30
 275 4 275 4 279 13 c 0,31,32
 283 36 283 36 267 103 c 2,33,-1
 228 272 l 1,34,-1
 84 897 l 1,35,-1
 42 1079 l 2,36,37
 26 1147 26 1147 16 1164 c 0,38,39
 12 1170 12 1170 9 1174 c 0,40,41
 3 1181 3 1181 -20 1200 c 0,42,43
 -46 1222 -46 1222 -50 1225 c 0,44,45
 -58 1228 -58 1228 -93 1232 c 0,46,47
 -113 1234 -113 1234 -194 1233 c 1,48,-1
 -229 1386 l 1,0,-1
EndSplineSet
EndChar

StartChar: plus
Encoding: 43 43 14
Width: 658
VWidth: 1639
GlyphClass: 2
Flags: W
LayerCount: 2
Fore
SplineSet
107 743 m 1,0,-1
 209 743 l 1,1,-1
 271 476 l 1,2,-1
 296 476 l 1,3,-1
 302 449 l 1,4,-1
 547 449 l 1,5,-1
 571 348 l 1,6,-1
 325 348 l 1,7,-1
 331 321 l 1,8,-1
 307 321 l 1,9,-1
 370 48 l 1,10,-1
 268 48 l 1,11,-1
 205 321 l 1,12,-1
 180 321 l 1,13,-1
 174 348 l 1,14,-1
 -73 348 l 1,15,-1
 -96 449 l 1,16,-1
 151 449 l 1,17,-1
 145 476 l 1,18,-1
 169 476 l 1,19,-1
 107 743 l 1,0,-1
EndSplineSet
EndChar

StartChar: hyphen
Encoding: 45 45 16
AltUni2: 002212.ffffffff.0 0000ad.ffffffff.0
Width: 861
VWidth: 1639
GlyphClass: 2
Flags: W
LayerCount: 2
Fore
SplineSet
5 449 m 1,0,-1
 649 449 l 1,1,-1
 673 348 l 1,2,-1
 29 348 l 1,3,-1
 5 449 l 1,0,-1
EndSplineSet
EndChar

StartChar: period
Encoding: 46 46 17
Width: 480
VWidth: 1639
GlyphClass: 2
Flags: W
LayerCount: 2
Fore
SplineSet
128 213 m 1,0,1
 190 219 190 219 230 185 c 1,2,3
 275 143 275 143 278 74 c 0,4,5
 278 41 278 41 266 21 c 1,6,7
 250 0 250 0 212 -7 c 1,8,9
 154 -12 154 -12 114 21 c 1,10,11
 67 63 67 63 63 133 c 0,12,13
 62 166 62 166 74 185 c 1,14,15
 91 206 91 206 128 213 c 1,0,1
EndSplineSet
EndChar

StartChar: slash
Encoding: 47 47 18
Width: 692
VWidth: 1639
GlyphClass: 2
Flags: W
LayerCount: 2
Fore
SplineSet
350 1186 m 1,0,-1
 420 1145 l 1,1,-1
 372 992 l 1,2,-1
 273 684 l 1,3,-1
 57 10 l 1,4,-1
 9 39 l 1,5,-1
 -9 52 l 1,6,-1
 -5 72 l 1,7,-1
 10 120 l 1,8,-1
 71 312 l 1,9,-1
 265 923 l 1,10,-1
 350 1186 l 1,0,-1
EndSplineSet
EndChar

StartChar: colon
Encoding: 58 58 29
Width: 489
VWidth: 1639
GlyphClass: 2
Flags: W
LayerCount: 2
Fore
SplineSet
57 572 m 1,0,1
 117 577 117 577 157 543 c 1,2,3
 203 500 203 500 204 430 c 0,4,5
 204 399 204 399 193 380 c 0,6,7
 179 359 179 359 141 353 c 1,8,9
 79 347 79 347 39 380 c 1,10,11
 -8 425 -8 425 -9 495 c 0,12,13
 -9 525 -9 525 2 544 c 1,14,15
 19 565 19 565 57 572 c 1,0,1
129 220 m 1,16,17
 189 225 189 225 229 190 c 1,18,19
 275 148 275 148 277 79 c 0,20,21
 277 47 277 47 265 28 c 1,22,23
 249 7 249 7 211 0 c 1,24,25
 151 -5 151 -5 111 28 c 1,26,27
 66 70 66 70 62 139 c 0,28,29
 61 172 61 172 73 192 c 1,30,31
 91 214 91 214 129 220 c 1,16,17
EndSplineSet
EndChar

StartChar: equal
Encoding: 61 61 32
Width: 659
VWidth: 1639
GlyphClass: 2
Flags: W
LayerCount: 2
Fore
SplineSet
-121 561 m 1,0,-1
 523 561 l 1,1,-1
 546 459 l 1,2,-1
 -97 459 l 1,3,-1
 -121 561 l 1,0,-1
-65 312 m 1,4,-1
 581 312 l 1,5,-1
 604 210 l 1,6,-1
 -41 210 l 1,7,-1
 -65 312 l 1,4,-1
EndSplineSet
EndChar

StartChar: bracketleft
Encoding: 91 91 62
Width: 508
VWidth: 1639
GlyphClass: 2
Flags: W
LayerCount: 2
Fore
SplineSet
-339 1863 m 1,0,-1
 -13 1863 l 1,1,-1
 -7 1838 l 1,2,-1
 -193 1838 l 1,3,-1
 -187 1812 l 1,4,-1
 -211 1812 l 1,5,-1
 225 -77 l 1,6,-1
 249 -77 l 1,7,-1
 255 -103 l 1,8,-1
 441 -103 l 1,9,-1
 447 -126 l 1,10,-1
 120 -126 l 1,11,-1
 -339 1863 l 1,0,-1
EndSplineSet
EndChar

StartChar: bracketright
Encoding: 93 93 64
Width: 552
VWidth: 1639
GlyphClass: 2
Flags: W
LayerCount: 2
Fore
SplineSet
-338 1860 m 1,0,-1
 -59 1860 l 1,1,-1
 399 -126 l 1,2,-1
 120 -126 l 1,3,-1
 115 -103 l 1,4,-1
 254 -103 l 1,5,-1
 248 -77 l 1,6,-1
 272 -77 l 1,7,-1
 -164 1811 l 1,8,-1
 -188 1811 l 1,9,-1
 -194 1837 l 1,10,-1
 -333 1837 l 1,11,-1
 -338 1860 l 1,0,-1
EndSplineSet
EndChar

StartChar: guillemotleft
Encoding: 171 171 175
Width: 817
VWidth: 1639
GlyphClass: 2
Flags: W
LayerCount: 2
Fore
SplineSet
300 7 m 1,0,1
 184 7 184 7 176 7 c 0,2,3
 166 8 166 8 159 10 c 0,4,5
 121 15 121 15 104 31 c 1,6,7
 89 43 89 43 80 69 c 0,8,9
 70 93 70 93 50 179 c 2,10,-1
 -39 564 l 2,11,12
 -60 655 -60 655 -61 668 c 0,13,14
 -61 674 -61 674 -61 679 c 0,15,16
 -60 711 -60 711 -55 718 c 0,17,18
 -54 720 -54 720 -51.5 722.5 c 128,-1,19
 -49 725 -49 725 -46.5 726.5 c 128,-1,20
 -44 728 -44 728 -42 729.5 c 128,-1,21
 -40 731 -40 731 -36 732 c 128,-1,22
 -32 733 -32 733 -30 734 c 128,-1,23
 -28 735 -28 735 -24 735.5 c 128,-1,24
 -20 736 -20 736 -18.5 737 c 128,-1,25
 -17 738 -17 738 -12 739 c 2,26,-1
 -7 740 l 2,27,28
 16 743 16 743 130 741 c 1,29,-1
 148 664 l 1,30,31
 142 664 142 664 129 665 c 0,32,33
 80 667 80 667 66 658 c 0,34,35
 62 654 62 654 58 646 c 0,36,37
 54 639 54 639 52 636 c 0,38,39
 50 634 50 634 47 630 c 0,40,41
 41 622 41 622 38 618 c 0,42,43
 34 585 34 585 54 508 c 1,44,-1
 114 249 l 2,45,46
 116 241 116 241 119 222 c 0,47,48
 131 157 131 157 148 136 c 0,49,50
 153 131 153 131 161 126 c 0,51,52
 167 122 167 122 170 119.5 c 128,-1,53
 173 117 173 117 179 111 c 0,54,55
 188 102 188 102 192 98 c 0,56,57
 212 88 212 88 281 89 c 1,58,-1
 300 7 l 1,0,1
634 7 m 1,59,60
 518 7 518 7 510 7 c 0,61,62
 500 8 500 8 493 10 c 0,63,64
 455 15 455 15 438 30 c 0,65,66
 425 41 425 41 412 70 c 2,67,-1
 411 72 l 2,68,69
 402 96 402 96 382 185 c 2,70,-1
 294 569 l 2,71,72
 292 577 292 577 286 597 c 0,73,74
 261 690 261 690 277 718 c 1,75,76
 290 735 290 735 329 740 c 0,77,78
 347 742 347 742 464 741 c 1,79,-1
 482 664 l 1,80,81
 476 664 476 664 463 665 c 0,82,83
 414 667 414 667 400 658 c 0,84,85
 395 653 395 653 386 636 c 0,86,87
 384 632 384 632 379 628 c 0,88,89
 372 621 372 621 371 617 c 0,90,91
 366 595 366 595 382 531 c 2,92,-1
 434 303 l 2,93,94
 463 179 463 179 468 166 c 0,95,96
 482 129 482 129 505 121 c 1,97,98
 533 86 533 86 615 89 c 1,99,-1
 634 7 l 1,59,60
EndSplineSet
EndChar

StartChar: guillemotright
Encoding: 187 187 176
Width: 818
VWidth: 1639
GlyphClass: 2
Flags: W
LayerCount: 2
Fore
SplineSet
-80 741 m 1,0,1
 42 741 42 741 56 740 c 0,2,3
 97 735 97 735 116 718 c 0,4,5
 147 689 147 689 166 591 c 0,6,7
 169 575 169 575 170 567 c 2,8,-1
 259 185 l 2,9,10
 281 91 281 91 281 85 c 0,11,12
 282 78 282 78 282 72 c 0,13,14
 281 39 281 39 275 30 c 0,15,16
 265 18 265 18 229 10 c 0,17,18
 200 6 200 6 89 7 c 1,19,-1
 71 89 l 1,20,21
 141 89 141 89 155 100 c 0,22,23
 164 109 164 109 165 121 c 1,24,25
 187 128 187 128 184 161 c 0,26,27
 183 166 183 166 151 302 c 2,28,-1
 98 533 l 2,29,30
 84 595 84 595 82 599 c 0,31,32
 77 610 77 610 71 617 c 0,33,34
 66 622 66 622 57 628 c 0,35,36
 49 634 49 634 46 636 c 0,37,38
 43 638 43 638 39 644 c 0,39,40
 29 654 29 654 23 658 c 0,41,42
 1 667 1 667 -62 664 c 1,43,-1
 -80 741 l 1,0,1
254 741 m 1,44,45
 374 741 374 741 388 740 c 0,46,47
 429 735 429 735 450 718 c 0,48,49
 463 706 463 706 477 674 c 0,50,51
 485 653 485 653 506 563 c 2,52,-1
 593 182 l 2,53,54
 595 173 595 173 601 153 c 0,55,56
 625 60 625 60 610 31 c 1,57,58
 601 17 601 17 563 10 c 0,59,60
 534 6 534 6 424 7 c 1,61,-1
 405 89 l 1,62,63
 476 90 476 90 489 98 c 0,64,65
 491 101 491 101 500 120 c 0,66,67
 502 123 502 123 507 126 c 0,68,69
 514 132 514 132 516 136 c 0,70,71
 520 160 520 160 504 221 c 1,72,-1
 452 443 l 1,73,-1
 426 559 l 2,74,75
 415 604 415 604 401 620 c 0,76,77
 398 623 398 623 391 628 c 0,78,79
 383 634 383 634 380 636 c 0,80,81
 377 639 377 639 372 645 c 0,82,83
 361 656 361 656 354 659 c 0,84,85
 336 665 336 665 272 664 c 1,86,-1
 254 741 l 1,44,45
EndSplineSet
EndChar

StartChar: guilsinglleft
Encoding: 8249 8249 195
Width: 520
GlyphClass: 2
Flags: W
LayerCount: 2
Fore
SplineSet
307 70 m 1,0,1
 324 48 324 48 328 35 c 0,2,3
 330 26 330 26 319 26 c 0,4,5
 311 26 311 26 294 33 c 1,6,7
 235 73 235 73 182.5 128 c 128,-1,8
 130 183 130 183 83 255 c 0,9,10
 41 321 41 321 14.5 385 c 128,-1,11
 -12 449 -12 449 -27 513 c 1,12,13
 -60 656 -60 656 -30 783 c 1,14,15
 4 904 4 904 81 958 c 1,16,17
 104 969 104 969 107 969 c 0,18,19
 114 969 114 969 116 963 c 0,20,21
 118 953 118 953 106 912 c 1,22,23
 34 746 34 746 88 513 c 0,24,25
 148 249 148 249 307 70 c 1,0,1
EndSplineSet
EndChar

StartChar: guilsinglright
Encoding: 8250 8250 196
Width: 523
GlyphClass: 2
Flags: W
LayerCount: 2
Fore
SplineSet
89 70 m 1,0,1
 168 249 168 249 106 513 c 0,2,3
 51 751 51 751 -99 913 c 1,4,5
 -129 954 -129 954 -131 963 c 0,6,7
 -132 969 -132 969 -125 969 c 0,8,9
 -123 969 -123 969 -115 966.5 c 128,-1,10
 -107 964 -107 964 -96 958 c 0,11,12
 -42 931 -42 931 6 887 c 128,-1,13
 54 843 54 843 97 783 c 0,14,15
 145 718 145 718 175.5 650.5 c 128,-1,16
 206 583 206 583 223 513 c 0,17,18
 238 450 238 450 238 385 c 128,-1,19
 238 320 238 320 226 255 c 0,20,21
 214 188 214 188 186.5 130 c 128,-1,22
 159 72 159 72 119 33 c 1,23,24
 108 26 108 26 97 26 c 256,25,26
 86 26 86 26 84 35 c 0,27,28
 81 47 81 47 89 70 c 1,0,1
EndSplineSet
EndChar

StartChar: afii57451
Encoding: 1611 1611 311
AltUni2: 00fe70.ffffffff.0
Width: -140
VWidth: 1639
GlyphClass: 2
Flags: HW
AnchorPoint: "GposMark2BaseAnchorHamzaErabAbove_01_01" -291.5 1550 mark 0
AnchorPoint: "GposMark2BaseAnchorHamzaErabBelow_01_01" -291.5 1763 mark 0
AnchorPoint: "GposMark2BaseAnchorClassErabAbove_01_02" -291.5 1550 mark 0
AnchorPoint: "GposMark2MarkAnchorHamzaErabAbove_01_01" -291.5 1550 mark 0
AnchorPoint: "GposMark2MarkAnchorHamzaErabBelow_01_01" -291.5 1763 mark 0
AnchorPoint: "GposMark2MarkAnchorShaddaErabAbove_01_02" -291.5 1550 mark 0
AnchorPoint: "GposMark2MarkAnchorShaddaErabBelow_01_02" -291.5 1763 mark 0
LayerCount: 2
Fore
SplineSet
-463 1763 m 1,0,-1
 -166 1763 l 1,1,-1
 -150 1696 l 1,2,-1
 -448 1696 l 1,3,-1
 -463 1763 l 1,0,-1
-432 1617 m 1,4,-1
 -135 1617 l 1,5,-1
 -120 1550 l 1,6,-1
 -417 1550 l 1,7,-1
 -432 1617 l 1,4,-1
EndSplineSet
EndChar

StartChar: afii57452
Encoding: 1612 1612 312
AltUni2: 00fe72.ffffffff.0
Width: -103
VWidth: 1639
GlyphClass: 2
Flags: HW
AnchorPoint: "GposMark2BaseAnchorHamzaErabAbove_01_01" -290.5 1550 mark 0
AnchorPoint: "GposMark2BaseAnchorHamzaErabBelow_01_01" -290.5 1796 mark 0
AnchorPoint: "GposMark2BaseAnchorClassErabAbove_01_02" -290.5 1550 mark 0
AnchorPoint: "GposMark2MarkAnchorHamzaErabAbove_01_01" -290.5 1550 mark 0
AnchorPoint: "GposMark2MarkAnchorHamzaErabBelow_01_01" -290.5 1796 mark 0
AnchorPoint: "GposMark2MarkAnchorShaddaErabAbove_01_02" -290.5 1550 mark 0
AnchorPoint: "GposMark2MarkAnchorShaddaErabBelow_01_02" -290.5 1796 mark 0
LayerCount: 2
Fore
SplineSet
-348 1643 m 1,0,1
 -353 1669 -353 1669 -351 1686 c 0,2,3
 -346 1795 -346 1795 -153 1796 c 1,4,-1
 -96 1550 l 1,5,-1
 -463 1550 l 1,6,-1
 -485 1643 l 1,7,-1
 -439 1643 l 1,8,-1
 -465 1755 l 1,9,-1
 -428 1755 l 1,10,-1
 -403 1643 l 1,11,-1
 -348 1643 l 1,0,1
-193 1714 m 1,12,13
 -297 1712 -297 1712 -287 1647 c 1,14,-1
 -178 1647 l 1,15,-1
 -193 1714 l 1,12,13
EndSplineSet
EndChar

StartChar: afii57453
Encoding: 1613 1613 313
AltUni2: 00fe74.ffffffff.0
Width: -141
VWidth: 1639
GlyphClass: 2
Flags: HW
AnchorPoint: "GposMark2BaseAnchorClassErabBelow_01_02" -54.5 -143 mark 0
LayerCount: 2
Fore
SplineSet
-226 -143 m 1,0,-1
 71 -143 l 1,1,-1
 87 -210 l 1,2,-1
 -211 -210 l 1,3,-1
 -226 -143 l 1,0,-1
-195 -289 m 1,4,-1
 102 -289 l 1,5,-1
 117 -356 l 1,6,-1
 -180 -356 l 1,7,-1
 -195 -289 l 1,4,-1
EndSplineSet
EndChar

StartChar: afii57454
Encoding: 1614 1614 314
AltUni2: 00fe76.ffffffff.0
Width: -132
VWidth: 1639
GlyphClass: 2
Flags: HW
AnchorPoint: "GposMark2BaseAnchorHamzaErabAbove_01_01" -301.5 1550 mark 0
AnchorPoint: "GposMark2BaseAnchorHamzaErabBelow_01_01" -301.5 1617 mark 0
AnchorPoint: "GposMark2BaseAnchorClassErabAbove_01_02" -301.5 1550 mark 0
AnchorPoint: "GposMark2MarkAnchorHamzaErabAbove_01_01" -301.5 1550 mark 0
AnchorPoint: "GposMark2MarkAnchorHamzaErabBelow_01_01" -301.5 1617 mark 0
AnchorPoint: "GposMark2MarkAnchorShaddaErabAbove_01_02" -301.5 1550 mark 0
AnchorPoint: "GposMark2MarkAnchorShaddaErabBelow_01_02" -301.5 1617 mark 0
LayerCount: 2
Fore
SplineSet
-458 1617 m 1,0,-1
 -161 1617 l 1,1,-1
 -145 1550 l 1,2,-1
 -442 1550 l 1,3,-1
 -458 1617 l 1,0,-1
EndSplineSet
EndChar

StartChar: afii57455
Encoding: 1615 1615 315
AltUni2: 00fe78.ffffffff.0
Width: -96
VWidth: 1639
GlyphClass: 2
Flags: HW
AnchorPoint: "GposMark2BaseAnchorHamzaErabAbove_01_01" -321.5 1550 mark 0
AnchorPoint: "GposMark2BaseAnchorHamzaErabBelow_01_01" -321.5 1796 mark 0
AnchorPoint: "GposMark2BaseAnchorClassErabAbove_01_02" -321.5 1550 mark 0
AnchorPoint: "GposMark2MarkAnchorHamzaErabAbove_01_01" -321.5 1550 mark 0
AnchorPoint: "GposMark2MarkAnchorHamzaErabBelow_01_01" -321.5 1796 mark 0
AnchorPoint: "GposMark2MarkAnchorShaddaErabAbove_01_02" -321.5 1550 mark 0
AnchorPoint: "GposMark2MarkAnchorShaddaErabBelow_01_02" -321.5 1796 mark 0
LayerCount: 2
Fore
SplineSet
-379 1643 m 1,0,1
 -384 1669 -384 1669 -382 1686 c 0,2,3
 -377 1795 -377 1795 -184 1796 c 1,4,-1
 -127 1550 l 1,5,-1
 -494 1550 l 1,6,-1
 -516 1643 l 1,7,-1
 -379 1643 l 1,0,1
-224 1714 m 1,8,9
 -328 1712 -328 1712 -318 1647 c 1,10,-1
 -209 1647 l 1,11,-1
 -224 1714 l 1,8,9
EndSplineSet
EndChar

StartChar: afii57456
Encoding: 1616 1616 316
AltUni2: 00fe7a.ffffffff.0
Width: -134
VWidth: 1639
GlyphClass: 2
Flags: HW
AnchorPoint: "GposMark2BaseAnchorClassErabBelow_01_02" -67.5 -143 mark 0
LayerCount: 2
Fore
SplineSet
-224 -143 m 1,0,-1
 74 -143 l 1,1,-1
 89 -210 l 1,2,-1
 -208 -210 l 1,3,-1
 -224 -143 l 1,0,-1
EndSplineSet
EndChar

StartChar: afii57457
Encoding: 1617 1617 317
AltUni2: 00fe7c.ffffffff.0
Width: 60
VWidth: 1639
GlyphClass: 2
Flags: HW
AnchorPoint: "GposMark2BaseAnchorHamzaErabAbove_01_01" -230 1533 mark 0
AnchorPoint: "GposMark2BaseAnchorHamzaErabBelow_01_01" -230 1806 mark 0
AnchorPoint: "GposMark2BaseAnchorClassErabAbove_01_02" -230 1533 mark 0
AnchorPoint: "GposMark2MarkAnchorHamzaErabAbove_01_01" -230 1533 mark 0
AnchorPoint: "GposMark2MarkAnchorHamzaErabBelow_01_01" -230 1806 mark 0
AnchorPoint: "GposMark2MarkAnchorShaddaErabAbove_01_02" -230 1956 basemark 0
AnchorPoint: "GposMark2MarkAnchorShaddaErabBelow_01_02" -230 1383 basemark 0
LayerCount: 2
Fore
SplineSet
-465 1806 m 1,0,-1
 -390 1806 l 1,1,2
 -370 1721 -370 1721 -343 1681 c 0,3,4
 -320 1648 -320 1648 -297 1648 c 1,5,6
 -277 1654 -277 1654 -273 1686 c 1,7,8
 -269 1730 -269 1730 -287 1806 c 1,9,-1
 -215 1806 l 1,10,11
 -195 1722 -195 1722 -166 1679 c 0,12,13
 -143 1647 -143 1647 -121 1653 c 0,14,15
 -118 1654 -118 1654 -116 1655 c 0,16,17
 -102 1664 -102 1664 -99 1694 c 0,18,19
 -98 1708 -98 1708 -110 1796 c 0,20,21
 -111 1802 -111 1802 -111 1806 c 1,22,-1
 -30 1806 l 1,23,24
 5 1652 5 1652 -24 1592 c 0,25,26
 -52 1536 -52 1536 -120 1556 c 1,27,28
 -172 1573 -172 1573 -203 1620 c 1,29,30
 -216 1582 -216 1582 -232 1568 c 0,31,32
 -276 1533 -276 1533 -339 1559 c 0,33,34
 -369 1573 -369 1573 -388 1596 c 0,35,36
 -430 1649 -430 1649 -461 1787 c 0,37,38
 -463 1799 -463 1799 -465 1806 c 1,0,-1
EndSplineSet
EndChar

StartChar: afii57458
Encoding: 1618 1618 318
AltUni2: 00fe7e.ffffffff.0
Width: -81
VWidth: 1639
GlyphClass: 2
Flags: HW
AnchorPoint: "GposMark2BaseAnchorHamzaErabAbove_01_01" -305 1548 mark 0
AnchorPoint: "GposMark2BaseAnchorHamzaErabBelow_01_01" -305 1824 mark 0
AnchorPoint: "GposMark2BaseAnchorClassErabAbove_01_02" -305 1548 mark 0
AnchorPoint: "GposMark2MarkAnchorHamzaErabAbove_01_01" -305 1548 mark 0
AnchorPoint: "GposMark2MarkAnchorHamzaErabBelow_01_01" -305 1824 mark 0
AnchorPoint: "GposMark2MarkAnchorShaddaErabAbove_01_02" -305 1548 mark 0
AnchorPoint: "GposMark2MarkAnchorShaddaErabBelow_01_02" -305 1824 mark 0
LayerCount: 2
Fore
SplineSet
-352 1822 m 1,0,1
 -331 1824 -331 1824 -307 1819 c 0,2,3
 -232 1802 -232 1802 -194 1726 c 0,4,5
 -154 1646 -154 1646 -192 1589 c 0,6,7
 -201 1577 -201 1577 -211 1569 c 0,8,9
 -231 1555 -231 1555 -258 1550 c 1,10,11
 -285 1548 -285 1548 -310 1555 c 0,12,13
 -384 1577 -384 1577 -419 1653 c 0,14,15
 -456 1734 -456 1734 -413 1787 c 0,16,17
 -407 1794 -407 1794 -400 1801 c 0,18,19
 -379 1817 -379 1817 -352 1822 c 1,0,1
-327 1755 m 1,20,21
 -350 1751 -350 1751 -359 1740 c 0,22,23
 -377 1711 -377 1711 -352 1665 c 0,24,25
 -344 1652 -344 1652 -337 1645 c 0,26,27
 -313 1626 -313 1626 -278 1629 c 1,28,29
 -242 1634 -242 1634 -241 1678 c 0,30,31
 -240 1715 -240 1715 -269 1742 c 1,32,33
 -290 1758 -290 1758 -327 1755 c 1,20,21
EndSplineSet
EndChar

StartChar: uni0654
Encoding: 1620 1620 320
Width: -73
VWidth: 1639
GlyphClass: 2
Flags: HW
AnchorPoint: "GposMark2BaseAnchorClassErabAbove_01_02" -270 1550 mark 0
AnchorPoint: "GposMark2MarkAnchorHamzaErabAbove_01_01" -270 1956 basemark 0
AnchorPoint: "GposMark2MarkAnchorHamzaErabBelow_01_01" -270 1400 basemark 0
LayerCount: 2
Fore
SplineSet
-358 1638 m 1,0,1
 -374 1709 -374 1709 -374 1725 c 0,2,3
 -369 1804 -369 1804 -256 1806 c 0,4,5
 -242 1806 -242 1806 -215 1806 c 0,6,7
 -197 1806 -197 1806 -189 1806 c 1,8,-1
 -169 1719 l 1,9,10
 -176 1719 -176 1719 -193 1720 c 0,11,12
 -278 1724 -278 1724 -287 1694 c 1,13,14
 -289 1683 -289 1683 -277 1638 c 1,15,-1
 -151 1638 l 1,16,-1
 -130 1550 l 1,17,-1
 -390 1550 l 1,18,-1
 -410 1638 l 1,19,-1
 -358 1638 l 1,0,1
EndSplineSet
EndChar

StartChar: uni0655
Encoding: 1621 1621 321
Width: -72
VWidth: 1639
GlyphClass: 2
Flags: HW
AnchorPoint: "GposMark2BaseAnchorClassErabBelow_01_02" -20.5 -142 mark 0
LayerCount: 2
Fore
SplineSet
-109 -310 m 1,0,1
 -125 -239 -125 -239 -124 -223 c 0,2,3
 -119 -144 -119 -144 -6 -142 c 0,4,5
 8 -142 8 -142 34 -142 c 0,6,7
 52 -142 52 -142 60 -143 c 1,8,-1
 80 -230 l 1,9,10
 73 -230 73 -230 57 -228 c 0,11,12
 -28 -224 -28 -224 -38 -254 c 1,13,14
 -40 -265 -40 -265 -28 -310 c 1,15,-1
 99 -310 l 1,16,-1
 119 -399 l 1,17,-1
 -140 -399 l 1,18,-1
 -160 -310 l 1,19,-1
 -109 -310 l 1,0,1
EndSplineSet
EndChar

StartChar: uni0656
Encoding: 1622 1622 322
Width: 39
VWidth: 1639
GlyphClass: 2
Flags: HW
AnchorPoint: "GposMark2BaseAnchorClassErabBelow_01_02" 46 -143 mark 0
LayerCount: 2
Fore
SplineSet
-69 -143 m 1,0,-1
 64 -143 l 1,1,-1
 161 -564 l 1,2,-1
 28 -564 l 1,3,-1
 -69 -143 l 1,0,-1
EndSplineSet
EndChar

StartChar: uni0670
Encoding: 1648 1648 326
Width: 39
VWidth: 1639
GlyphClass: 2
Flags: HW
AnchorPoint: "GposMark2BaseAnchorHamzaErabAbove_01_01" -290 1550 mark 0
AnchorPoint: "GposMark2BaseAnchorHamzaErabBelow_01_01" -290 1971 mark 0
AnchorPoint: "GposMark2BaseAnchorClassErabAbove_01_02" -290 1550 mark 0
AnchorPoint: "GposMark2MarkAnchorHamzaErabAbove_01_01" -290 1550 mark 0
AnchorPoint: "GposMark2MarkAnchorHamzaErabBelow_01_01" -290 1971 mark 0
AnchorPoint: "GposMark2MarkAnchorShaddaErabAbove_01_02" -290 1550 mark 0
AnchorPoint: "GposMark2MarkAnchorShaddaErabBelow_01_02" -290 1971 mark 0
LayerCount: 2
Fore
SplineSet
-405 1971 m 1,0,-1
 -272 1971 l 1,1,-1
 -175 1550 l 1,2,-1
 -308 1550 l 1,3,-1
 -405 1971 l 1,0,-1
EndSplineSet
EndChar

StartChar: uni0674
Encoding: 1652 1652 327
Width: 107
GlyphClass: 2
Flags: HW
AnchorPoint: "GposMark2BaseAnchorClassErabAbove_01_02" 51 1014 mark 0
AnchorPoint: "GposMark2MarkAnchorHamzaErabAbove_01_01" 51 1579 basemark 0
AnchorPoint: "GposMark2MarkAnchorHamzaErabBelow_01_01" 51 864 basemark 0
LayerCount: 2
Fore
SplineSet
220 1178 m 2,0,1
 220 1160 220 1160 217 1145 c 128,-1,2
 214 1130 214 1130 209 1129 c 0,3,4
 167 1118 167 1118 132 1109 c 128,-1,5
 97 1100 97 1100 81 1095 c 0,6,7
 41 1082 41 1082 6 1062 c 128,-1,8
 -29 1042 -29 1042 -56 1018 c 1,9,10
 -59 1014 -59 1014 -63 1014 c 0,11,12
 -66 1014 -66 1014 -71.5 1018 c 128,-1,13
 -77 1022 -77 1022 -77 1025 c 256,14,15
 -78 1028 -78 1028 -74 1032 c 1,16,-1
 -74 1031 l 1,17,18
 -68 1051 -68 1051 -50 1076 c 128,-1,19
 -32 1101 -32 1101 -3 1136 c 1,20,21
 -93 1171 -93 1171 -107 1233 c 0,22,23
 -118 1282 -118 1282 -66 1355 c 1,24,25
 -11 1429 -11 1429 48 1429 c 0,26,27
 58 1429 58 1429 70.5 1425.5 c 128,-1,28
 83 1422 83 1422 94 1415.5 c 128,-1,29
 105 1409 105 1409 113 1400.5 c 128,-1,30
 121 1392 121 1392 123 1382 c 0,31,32
 126 1368 126 1368 126 1353.5 c 128,-1,33
 126 1339 126 1339 123.5 1327 c 128,-1,34
 121 1315 121 1315 115.5 1307.5 c 128,-1,35
 110 1300 110 1300 103 1300 c 0,36,37
 99 1300 99 1300 90.5 1307.5 c 128,-1,38
 82 1315 82 1315 70.5 1323.5 c 128,-1,39
 59 1332 59 1332 45.5 1339.5 c 128,-1,40
 32 1347 32 1347 19 1347 c 256,41,42
 6 1347 6 1347 -7 1339.5 c 128,-1,43
 -20 1332 -20 1332 -30.5 1321.5 c 128,-1,44
 -41 1311 -41 1311 -46.5 1299 c 128,-1,45
 -52 1287 -52 1287 -50 1277 c 0,46,47
 -46 1259 -46 1259 -31.5 1244 c 128,-1,48
 -17 1229 -17 1229 3 1218 c 128,-1,49
 23 1207 23 1207 46.5 1201 c 128,-1,50
 70 1195 70 1195 93 1195 c 0,51,52
 96 1195 96 1195 114 1200 c 128,-1,53
 132 1205 132 1205 154 1210.5 c 128,-1,54
 176 1216 176 1216 195.5 1221 c 128,-1,55
 215 1226 215 1226 219 1226 c 1,56,-1
 220 1178 l 2,0,1
EndSplineSet
EndChar

StartChar: afii57388
Encoding: 1548 1548 329
Width: 489
VWidth: 1639
GlyphClass: 2
Flags: W
LayerCount: 2
Fore
SplineSet
137 239 m 1,0,1
 142 221 142 221 148 216 c 0,2,3
 152 213 152 213 167 213 c 0,4,5
 168 213 168 213 169 213 c 2,6,-1
 170 213 l 1,7,8
 193 210 193 210 221 200 c 1,9,10
 248 186 248 186 266 136 c 0,11,12
 292 66 292 66 270 25 c 0,13,14
 247 -17 247 -17 176 -5 c 0,15,16
 141 2 141 2 118 20 c 1,17,18
 84 51 84 51 66 123 c 0,19,20
 25 299 25 299 22 320 c 0,21,22
 13 379 13 379 29 405 c 1,23,24
 53 437 53 437 152 435 c 0,25,26
 166 435 166 435 173 435 c 1,27,-1
 186 377 l 1,28,29
 150 370 150 370 134 356 c 0,30,31
 131 353 131 353 128 346 c 0,32,33
 123 339 123 339 121 336 c 0,34,35
 119 332 119 332 114 326 c 0,36,37
 106 314 106 314 104 308 c 0,38,39
 95 276 95 276 111 250 c 0,40,41
 115 245 115 245 118 243 c 0,42,43
 123 239 123 239 137 239 c 1,0,1
EndSplineSet
EndChar

StartChar: afii57403
Encoding: 1563 1563 334
Width: 491
VWidth: 1639
GlyphClass: 2
Flags: W
LayerCount: 2
Fore
SplineSet
55 595 m 1,0,1
 60 577 60 577 67 572 c 0,2,3
 71 569 71 569 85 569 c 0,4,5
 86 569 86 569 87 569 c 2,6,-1
 89 569 l 1,7,8
 112 566 112 566 139 556 c 1,9,10
 166 542 166 542 184 492 c 0,11,12
 210 422 210 422 189 380 c 0,13,14
 166 338 166 338 94 351 c 0,15,16
 59 357 59 357 36 376 c 1,17,18
 2 407 2 407 -16 479 c 0,19,20
 -57 655 -57 655 -59 676 c 0,21,22
 -68 735 -68 735 -53 761 c 1,23,24
 -29 793 -29 793 70 791 c 0,25,26
 84 791 84 791 91 790 c 1,27,-1
 104 733 l 1,28,29
 68 726 68 726 53 712 c 0,30,31
 50 709 50 709 46 702 c 0,32,33
 41 695 41 695 39 692 c 0,34,35
 37 688 37 688 32 682 c 0,36,37
 24 670 24 670 22 664 c 0,38,39
 13 632 13 632 30 606 c 0,40,41
 34 601 34 601 36 599 c 0,42,43
 41 595 41 595 55 595 c 1,0,1
132 212 m 1,44,45
 194 218 194 218 234 184 c 1,46,47
 279 142 279 142 282 72 c 0,48,49
 282 39 282 39 270 20 c 1,50,51
 254 -1 254 -1 216 -8 c 1,52,53
 158 -13 158 -13 118 20 c 1,54,55
 71 62 71 62 67 131 c 0,56,57
 66 164 66 164 79 184 c 1,58,59
 95 205 95 205 132 212 c 1,44,45
EndSplineSet
EndChar

StartChar: afii57407
Encoding: 1567 1567 335
Width: 986
VWidth: 1639
GlyphClass: 2
Flags: W
LayerCount: 2
Fore
SplineSet
454 389 m 1,0,1
 451 402 451 402 446 430 c 0,2,3
 430 513 430 513 411 546 c 0,4,5
 406 555 406 555 387 569 c 0,6,7
 383 572 383 572 381 574 c 0,8,9
 360 595 360 595 359 595 c 0,10,11
 330 611 330 611 276 612 c 0,12,13
 258 612 258 612 221 611 c 0,14,15
 115 608 115 608 62 618 c 1,16,17
 0 634 0 634 -23 658 c 1,18,19
 -56 695 -56 695 -80 771 c 0,20,21
 -89 801 -89 801 -119 935 c 0,22,23
 -125 962 -125 962 -139 1016 c 0,24,25
 -170 1139 -170 1139 -178 1197 c 0,26,27
 -190 1281 -190 1281 -173 1314 c 0,28,29
 -163 1329 -163 1329 -137 1342 c 0,30,31
 -97 1359 -97 1359 3 1358 c 2,32,-1
 483 1358 l 1,33,-1
 532 1145 l 1,34,-1
 224 1145 l 2,35,36
 147 1145 147 1145 132 1140 c 0,37,38
 118 1135 118 1135 109 1128 c 0,39,40
 106 1125 106 1125 88 1100 c 0,41,42
 71 1075 71 1075 68 1068 c 0,43,44
 61 1037 61 1037 77 973 c 2,45,-1
 105 850 l 1,46,-1
 129 850 l 1,47,-1
 135 823 l 1,48,-1
 431 823 l 1,49,-1
 513 818 l 1,50,-1
 546 807 l 1,51,-1
 560 779 l 1,52,-1
 582 704 l 1,53,-1
 610 589 l 1,54,-1
 657 389 l 1,55,-1
 454 389 l 1,0,1
569 220 m 1,56,57
 629 225 629 225 669 190 c 1,58,59
 715 148 715 148 717 79 c 0,60,61
 717 48 717 48 706 30 c 0,62,63
 691 7 691 7 650 0 c 1,64,65
 590 -5 590 -5 551 28 c 1,66,67
 505 70 505 70 502 141 c 0,68,69
 502 173 502 173 513 192 c 1,70,71
 529 213 529 213 569 220 c 1,56,57
EndSplineSet
EndChar

StartChar: afii57409
Encoding: 1569 1569 336
AltUni2: 00fe80.ffffffff.0
Width: 485
VWidth: 1639
GlyphClass: 2
Flags: HW
AnchorPoint: "GposMark2BaseAnchorHamzaErabAbove_01_01" 163.5 486 basechar 0
AnchorPoint: "GposMark2BaseAnchorHamzaErabBelow_01_01" 163.5 -153 basechar 0
LayerCount: 2
Fore
SplineSet
54 102 m 1,0,1
 32 199 32 199 31 212 c 0,2,3
 31 219 31 219 30 225 c 0,4,5
 34 256 34 256 37 264 c 0,6,7
 57 336 57 336 191 333 c 0,8,9
 203 333 203 333 228 332 c 0,10,11
 255 331 255 331 267 331 c 1,12,-1
 284 254 l 1,13,14
 274 254 274 254 254 255 c 0,15,16
 174 258 174 258 148 239 c 0,17,18
 142 233 142 233 130 216 c 0,19,20
 128 212 128 212 124 207 c 0,21,22
 115 193 115 193 113 184 c 0,23,24
 112 166 112 166 128 102 c 1,25,-1
 152 102 l 1,26,-1
 158 75 l 1,27,-1
 326 75 l 1,28,-1
 344 -3 l 1,29,-1
 1 -3 l 1,30,-1
 -17 75 l 1,31,-1
 36 75 l 1,32,-1
 30 102 l 1,33,-1
 54 102 l 1,0,1
EndSplineSet
EndChar

StartChar: afii57410
Encoding: 1570 1570 337
AltUni2: 00fe81.ffffffff.0
Width: 360
VWidth: 1639
GlyphClass: 2
Flags: W
LayerCount: 2
Fore
SplineSet
-496 1486 m 1,0,1
 -510 1552 -510 1552 -487 1581 c 1,2,3
 -467 1603 -467 1603 -407 1610 c 0,4,5
 -381 1613 -381 1613 -312 1606 c 2,6,7
 -124 1586 l 2,8,9
 -87 1582 -87 1582 52 1589 c 0,10,11
 77 1590 77 1590 98 1591 c 1,12,13
 99 1588 99 1588 101 1580 c 0,14,15
 109 1553 109 1553 106 1548 c 0,16,17
 102 1541 102 1541 77 1542 c 1,18,19
 20 1536 20 1536 -9 1535 c 0,20,21
 -32 1535 -32 1535 -53 1535 c 128,-1,22
 -74 1535 -74 1535 -106.5 1537.5 c 128,-1,23
 -139 1540 -139 1540 -148.5 1541 c 128,-1,24
 -158 1542 -158 1542 -203 1547 c 2,25,-1
 -249 1551 l 2,26,27
 -347 1562 -347 1562 -376 1560 c 1,28,29
 -409 1554 -409 1554 -439 1510 c 0,30,31
 -440 1508 -440 1508 -442 1502 c 0,32,33
 -446 1490 -446 1490 -449 1487 c 0,34,35
 -455 1485 -455 1485 -496 1486 c 1,0,1
-262 1356 m 1,36,-1
 -56 1356 l 1,37,-1
 258 -2 l 1,38,-1
 52 -2 l 1,39,-1
 -262 1356 l 1,36,-1
EndSplineSet
AlternateSubs2: "gsub_alternate_dfl_aalt_arab_FAR_Lookup_01_Subtable_01" uniFE82 afii57410
Substitution2: "gsub_single_rtl_fina_arab_FAR_Lookup_01_Subtable_01" uniFE82
EndChar

StartChar: uniFE83
Encoding: 1571 1571 339
AltUni2: 00fe83.ffffffff.0
Width: 330
VWidth: 1639
GlyphClass: 2
Flags: W
LayerCount: 2
Fore
SplineSet
-282 1356 m 1,0,-1
 -78 1356 l 1,1,-1
 236 -2 l 1,2,-1
 31 -2 l 1,3,-1
 -282 1356 l 1,0,-1
-297 1527 m 1,4,5
 -313 1598 -313 1598 -312 1614 c 0,6,7
 -307 1693 -307 1693 -194 1695 c 0,8,9
 -180 1695 -180 1695 -154 1695 c 0,10,11
 -136 1695 -136 1695 -128 1694 c 1,12,-1
 -108 1607 l 1,13,14
 -115 1607 -115 1607 -131 1608 c 0,15,16
 -216 1612 -216 1612 -226 1583 c 1,17,18
 -228 1572 -228 1572 -216 1527 c 1,19,-1
 -90 1527 l 1,20,-1
 -69 1438 l 1,21,-1
 -328 1438 l 1,22,-1
 -349 1527 l 1,23,-1
 -297 1527 l 1,4,5
EndSplineSet
AlternateSubs2: "gsub_alternate_dfl_aalt_arab_FAR_Lookup_01_Subtable_01" uniFE84 uniFE83
Substitution2: "gsub_single_rtl_fina_arab_FAR_Lookup_01_Subtable_01" uniFE84
EndChar

StartChar: uniFE84
Encoding: 65156 65156 340
Width: 418
VWidth: 1639
GlyphClass: 2
Flags: W
LayerCount: 2
Fore
SplineSet
-291 1356 m 1,0,-1
 -86 1356 l 1,1,-1
 87 607 l 1,2,-1
 133 408 l 2,3,4
 154 322 154 322 172 295 c 1,5,6
 187 278 187 278 207 262 c 1,7,8
 234 237 234 237 250 230 c 0,9,10
 288 210 288 210 379 213 c 0,11,12
 391 213 391 213 399 213 c 1,13,-1
 448 -2 l 1,14,15
 424 -2 424 -2 377 -3 c 0,16,17
 246 -7 246 -7 182 5 c 0,18,19
 105 19 105 19 61 52 c 1,20,21
 29 81 29 81 -2 148 c 0,22,23
 -30 208 -30 208 -63 366 c 0,24,25
 -68 393 -68 393 -73 412 c 2,26,-1
 -291 1356 l 1,0,-1
-289 1527 m 1,27,28
 -305 1598 -305 1598 -304 1614 c 0,29,30
 -299 1693 -299 1693 -186 1695 c 0,31,32
 -172 1695 -172 1695 -146 1695 c 0,33,34
 -128 1695 -128 1695 -120 1694 c 1,35,-1
 -100 1607 l 1,36,37
 -107 1607 -107 1607 -123 1608 c 0,38,39
 -208 1612 -208 1612 -218 1583 c 1,40,41
 -220 1572 -220 1572 -208 1527 c 1,42,-1
 -81 1527 l 1,43,-1
 -61 1438 l 1,44,-1
 -320 1438 l 1,45,-1
 -341 1527 l 1,46,-1
 -289 1527 l 1,27,28
EndSplineSet
EndChar

StartChar: uniFE85
Encoding: 1572 1572 341
AltUni2: 00fe85.ffffffff.0
Width: 791
VWidth: 1639
GlyphClass: 2
Flags: W
LayerCount: 2
Fore
SplineSet
404 -2 m 1,0,-1
 101 -2 l 2,1,2
 -13 -1 -13 -1 -65 38 c 1,3,4
 -110 76 -110 76 -137 192 c 2,5,-1
 -221 556 l 2,6,7
 -247 672 -247 672 -218 705 c 1,8,9
 -174 744 -174 744 -59 745 c 2,10,-1
 208 745 l 2,11,12
 322 745 322 745 353 738 c 0,13,14
 363 736 363 736 372 733 c 0,15,16
 417 718 417 718 437 704 c 1,17,18
 455 688 455 688 478 645 c 1,19,20
 498 605 498 605 523 483 c 0,21,22
 526 471 526 471 528 462 c 2,23,-1
 683 -212 l 2,24,25
 686 -227 686 -227 695 -259 c 0,26,27
 733 -408 733 -408 718 -470 c 0,28,29
 713 -490 713 -490 705 -505 c 1,30,31
 662 -562 662 -562 517 -563 c 2,32,-1
 35 -563 l 1,33,-1
 -14 -349 l 1,34,-1
 335 -349 l 2,35,36
 343 -349 343 -349 360 -350 c 0,37,38
 423 -352 423 -352 444 -338 c 0,39,40
 450 -334 450 -334 465 -310 c 1,41,42
 479 -294 479 -294 482 -285 c 0,43,44
 489 -262 489 -262 474 -195 c 2,45,-1
 435 -28 l 1,46,-1
 411 -28 l 1,47,-1
 404 -2 l 1,0,-1
63 531 m 1,48,49
 42 528 42 528 27 501 c 2,50,-1
 26 500 l 2,51,52
 24 497 24 497 19 493 c 0,53,54
 11 484 11 484 9 477 c 0,55,56
 3 452 3 452 26 366 c 0,57,58
 29 355 29 355 31 349 c 0,59,60
 45 287 45 287 55 272 c 0,61,62
 59 267 59 267 61 264 c 0,63,64
 88 233 88 233 117 218 c 1,65,66
 144 211 144 211 218 213 c 1,67,-1
 298 213 l 1,68,69
 321 218 321 218 337 244 c 1,70,-1
 354 269 l 1,71,72
 359 293 359 293 336 378 c 0,73,74
 333 388 333 388 331 395 c 0,75,76
 317 455 317 455 313 464 c 0,77,78
 307 475 307 475 300 482 c 0,79,80
 297 484 297 484 278 500 c 0,81,82
 274 503 274 503 266 511 c 0,83,84
 253 523 253 523 246 526 c 1,85,86
 214 534 214 534 144 531 c 1,87,-1
 63 531 l 1,48,49
230 920 m 1,88,89
 214 991 214 991 214 1007 c 0,90,91
 219 1086 219 1086 332 1088 c 0,92,93
 346 1088 346 1088 373 1088 c 0,94,95
 391 1088 391 1088 399 1087 c 1,96,-1
 419 1000 l 1,97,98
 412 1000 412 1000 395 1002 c 0,99,100
 310 1006 310 1006 301 976 c 1,101,102
 299 965 299 965 311 920 c 1,103,-1
 437 920 l 1,104,-1
 458 831 l 1,105,-1
 198 831 l 1,106,-1
 178 920 l 1,107,-1
 230 920 l 1,88,89
EndSplineSet
AlternateSubs2: "gsub_alternate_dfl_aalt_arab_FAR_Lookup_01_Subtable_01" uniFE86 uniFE85
Substitution2: "gsub_single_rtl_fina_arab_FAR_Lookup_01_Subtable_01" uniFE86
EndChar

StartChar: uniFE86
Encoding: 65158 65158 342
Width: 735
VWidth: 1639
GlyphClass: 2
Flags: W
LayerCount: 2
Fore
SplineSet
357 -2 m 1,0,-1
 77 -2 l 2,1,2
 -36 -2 -36 -2 -87 23 c 0,3,4
 -97 28 -97 28 -105 33 c 0,5,6
 -155 66 -155 66 -182 182 c 2,7,-1
 -267 546 l 2,8,9
 -293 659 -293 659 -272 695 c 0,10,11
 -269 700 -269 700 -267 702 c 0,12,13
 -233 745 -233 745 -114 745 c 2,14,-1
 234 745 l 2,15,16
 298 744 298 744 348 725 c 0,17,18
 379 714 379 714 396 697 c 1,19,20
 441 636 441 636 465 528 c 2,21,-1
 532 239 l 1,22,-1
 556 239 l 1,23,-1
 562 213 l 1,24,-1
 715 213 l 1,25,-1
 752 52 l 1,26,-1
 761 15 l 1,27,-1
 761 0 l 1,28,-1
 722 -2 l 1,29,-1
 612 -2 l 1,30,-1
 618 -28 l 1,31,-1
 594 -28 l 1,32,-1
 658 -305 l 2,33,34
 690 -447 690 -447 658 -505 c 1,35,36
 615 -562 615 -562 470 -563 c 2,37,-1
 -12 -563 l 1,38,-1
 -61 -349 l 1,39,-1
 288 -349 l 2,40,41
 296 -349 296 -349 313 -350 c 0,42,43
 376 -352 376 -352 397 -338 c 0,44,45
 403 -334 403 -334 418 -310 c 1,46,47
 432 -294 432 -294 435 -285 c 0,48,49
 442 -262 442 -262 426 -195 c 2,50,-1
 388 -28 l 1,51,-1
 363 -28 l 1,52,-1
 357 -2 l 1,0,-1
16 531 m 1,53,54
 -5 528 -5 528 -20 501 c 2,55,-1
 -21 500 l 2,56,57
 -23 497 -23 497 -28 493 c 0,58,59
 -36 484 -36 484 -39 477 c 0,60,61
 -45 452 -45 452 -21 366 c 0,62,63
 -18 355 -18 355 -17 349 c 0,64,65
 -3 287 -3 287 7 272 c 0,66,67
 11 267 11 267 14 264 c 0,68,69
 41 233 41 233 70 218 c 1,70,71
 97 211 97 211 170 213 c 1,72,-1
 251 213 l 1,73,74
 274 218 274 218 290 244 c 1,75,-1
 307 269 l 1,76,77
 312 293 312 293 288 378 c 0,78,79
 285 388 285 388 284 395 c 0,80,81
 270 455 270 455 265 464 c 0,82,83
 259 475 259 475 253 482 c 0,84,85
 250 484 250 484 231 500 c 0,86,87
 227 503 227 503 219 511 c 0,88,89
 206 523 206 523 199 526 c 1,90,91
 167 534 167 534 97 531 c 1,92,-1
 16 531 l 1,53,54
345 915 m 1,93,94
 329 986 329 986 330 1002 c 0,95,96
 335 1081 335 1081 448 1083 c 0,97,98
 462 1083 462 1083 488 1083 c 0,99,100
 506 1083 506 1083 514 1082 c 1,101,-1
 534 995 l 1,102,103
 527 995 527 995 511 997 c 0,104,105
 426 1001 426 1001 416 971 c 1,106,107
 414 960 414 960 426 915 c 1,108,-1
 553 915 l 1,109,-1
 573 827 l 1,110,-1
 314 827 l 1,111,-1
 293 915 l 1,112,-1
 345 915 l 1,93,94
EndSplineSet
EndChar

StartChar: uniFE87
Encoding: 1573 1573 343
AltUni2: 00fe87.ffffffff.0
Width: 334
VWidth: 1639
GlyphClass: 2
Flags: W
LayerCount: 2
Fore
SplineSet
-229 1356 m 1,0,-1
 -25 1356 l 1,1,-1
 289 -2 l 1,2,-1
 84 -2 l 1,3,-1
 -229 1356 l 1,0,-1
189 -348 m 1,4,5
 173 -277 173 -277 173 -261 c 0,6,7
 178 -182 178 -182 291 -180 c 0,8,9
 305 -180 305 -180 331 -180 c 0,10,11
 349 -180 349 -180 357 -180 c 1,12,-1
 377 -267 l 1,13,14
 370 -267 370 -267 354 -266 c 0,15,16
 269 -262 269 -262 260 -292 c 1,17,18
 258 -303 258 -303 269 -348 c 1,19,-1
 396 -348 l 1,20,-1
 416 -436 l 1,21,-1
 157 -436 l 1,22,-1
 137 -348 l 1,23,-1
 189 -348 l 1,4,5
EndSplineSet
AlternateSubs2: "gsub_alternate_dfl_aalt_arab_FAR_Lookup_01_Subtable_01" uniFE88 uniFE87
Substitution2: "gsub_single_rtl_fina_arab_FAR_Lookup_01_Subtable_01" uniFE88
EndChar

StartChar: uniFE88
Encoding: 65160 65160 344
Width: 681
VWidth: 1639
GlyphClass: 2
Flags: W
LayerCount: 2
Fore
SplineSet
-29 1356 m 1,0,-1
 176 1356 l 1,1,-1
 349 607 l 1,2,-1
 394 408 l 2,3,4
 415 322 415 322 434 295 c 1,5,6
 449 278 449 278 469 262 c 1,7,8
 496 237 496 237 512 230 c 0,9,10
 550 210 550 210 641 213 c 0,11,12
 653 213 653 213 661 213 c 1,13,-1
 710 -2 l 1,14,15
 686 -2 686 -2 639 -3 c 0,16,17
 508 -7 508 -7 443 5 c 0,18,19
 366 19 366 19 323 52 c 1,20,21
 291 81 291 81 259 148 c 0,22,23
 231 208 231 208 199 366 c 0,24,25
 194 393 194 393 189 412 c 2,26,-1
 -29 1356 l 1,0,-1
179 -310 m 1,27,28
 163 -239 163 -239 163 -223 c 0,29,30
 168 -144 168 -144 282 -142 c 0,31,32
 296 -142 296 -142 322 -142 c 0,33,34
 340 -142 340 -142 348 -143 c 1,35,-1
 368 -230 l 1,36,37
 361 -230 361 -230 344 -228 c 0,38,39
 259 -224 259 -224 250 -254 c 1,40,41
 248 -265 248 -265 260 -310 c 1,42,-1
 386 -310 l 1,43,-1
 407 -399 l 1,44,-1
 148 -399 l 1,45,-1
 127 -310 l 1,46,-1
 179 -310 l 1,27,28
EndSplineSet
EndChar

StartChar: uniFE89
Encoding: 1574 1574 345
AltUni2: 00fe89.ffffffff.0
Width: 1198
VWidth: 1639
GlyphClass: 2
Flags: W
LayerCount: 2
Fore
SplineSet
778 -2 m 1,0,1
 762 -2 762 -2 730 -2 c 0,2,3
 632 -4 632 -4 583 5 c 0,4,5
 529 16 529 16 499 39 c 1,6,7
 455 77 455 77 429 189 c 2,8,-1
 347 546 l 2,9,10
 321 659 321 659 341 696 c 0,11,12
 344 701 344 701 345 704 c 0,13,14
 390 745 390 745 507 745 c 2,15,-1
 885 745 l 1,16,-1
 934 531 l 1,17,-1
 744 531 l 2,18,19
 666 531 666 531 653 528 c 0,20,21
 640 524 640 524 631 518 c 0,22,23
 626 513 626 513 606 487 c 1,24,25
 587 459 587 459 585 446 c 0,26,27
 580 420 580 420 595 356 c 2,28,-1
 623 236 l 1,29,-1
 647 236 l 1,30,-1
 653 210 l 1,31,-1
 832 210 l 2,32,33
 894 209 894 209 917 192 c 0,34,35
 929 182 929 182 943 151 c 0,36,37
 956 123 956 123 976 34 c 0,38,39
 1001 -75 1001 -75 1005 -126 c 1,40,41
 1012 -292 1012 -292 931 -400 c 1,42,43
 853 -499 853 -499 743 -538 c 0,44,45
 580 -595 580 -595 388 -533 c 0,46,47
 271 -494 271 -494 184 -420 c 1,48,49
 114 -357 114 -357 63 -274 c 0,50,51
 -1 -167 -1 -167 -46 37 c 0,52,53
 -63 116 -63 116 -65 125 c 2,54,-1
 -208 743 l 1,55,-1
 -4 743 l 1,56,-1
 144 103 l 2,57,58
 148 86 148 86 155 50 c 0,59,60
 186 -101 186 -101 229 -166 c 0,61,62
 241 -184 241 -184 255 -200 c 0,63,64
 367 -327 367 -327 523 -340 c 0,65,66
 617 -347 617 -347 692 -307 c 0,67,68
 735 -282 735 -282 774 -226 c 0,69,70
 834 -138 834 -138 809 -28 c 1,71,-1
 784 -28 l 1,72,-1
 778 -2 l 1,0,1
-151 672 m 1,73,74
 -167 743 -167 743 -166 759 c 0,75,76
 -161 838 -161 838 -48 840 c 0,77,78
 -34 840 -34 840 -8 840 c 0,79,80
 10 840 10 840 18 840 c 1,81,-1
 38 753 l 1,82,83
 31 753 31 753 15 754 c 0,84,85
 -70 758 -70 758 -80 728 c 1,86,87
 -82 717 -82 717 -70 672 c 1,88,-1
 57 672 l 1,89,-1
 77 584 l 1,90,-1
 -182 584 l 1,91,-1
 -203 672 l 1,92,-1
 -151 672 l 1,73,74
EndSplineSet
AlternateSubs2: "gsub_alternate_dfl_aalt_arab_FAR_Lookup_01_Subtable_01" uniFE8A uniFE8B uniFE89 uniFE8C
Substitution2: "gsub_single_rtl_fina_arab_FAR_Lookup_01_Subtable_01" uniFE8A
Substitution2: "gsub_single_rtl_init_arab_FAR_Lookup_01_Subtable_01" uniFE8B
Substitution2: "gsub_single_rtl_medi_arab_FAR_Lookup_01_Subtable_01" uniFE8C
EndChar

StartChar: uniFE8A
Encoding: 65162 65162 346
Width: 978
VWidth: 1639
GlyphClass: 2
Flags: W
LayerCount: 2
Fore
SplineSet
-204 743 m 1,0,-1
 1 743 l 1,1,-1
 141 136 l 1,2,-1
 173 -5 l 2,3,4
 199 -115 199 -115 235 -171 c 1,5,6
 264 -211 264 -211 304 -246 c 0,7,8
 352 -287 352 -287 385 -305 c 1,9,10
 504 -365 504 -365 638 -326 c 1,11,12
 741 -294 741 -294 780 -213 c 1,13,14
 804 -157 804 -157 766 -100 c 0,15,16
 763 -96 763 -96 761 -92 c 0,17,18
 754 -82 754 -82 728 -61 c 0,19,20
 695 -33 695 -33 676 -23 c 1,21,22
 620 -1 620 -1 510 -2 c 1,23,-1
 460 213 l 1,24,-1
 957 213 l 1,25,-1
 1007 -2 l 1,26,-1
 891 -2 l 1,27,-1
 891 -3 l 1,28,29
 922 -4 922 -4 946 -28 c 1,30,-1
 873 -28 l 1,31,-1
 873 -30 l 1,32,33
 904 -31 904 -31 928 -54 c 1,34,-1
 903 -54 l 1,35,-1
 904 -56 l 1,36,37
 977 -58 977 -58 987 -191 c 0,38,39
 988 -207 988 -207 988 -221 c 0,40,41
 984 -397 984 -397 837 -496 c 0,42,43
 824 -505 824 -505 812 -512 c 0,44,45
 720 -563 720 -563 590 -563 c 0,46,47
 491 -563 491 -563 416 -541 c 0,48,49
 343 -519 343 -519 281 -485 c 0,50,51
 221 -452 221 -452 185 -420 c 0,52,53
 47 -295 47 -295 -18 -57 c 0,54,55
 -26 -27 -26 -27 -65 144 c 2,56,-1
 -204 743 l 1,0,-1
-206 913 m 1,57,58
 -222 984 -222 984 -222 1000 c 0,59,60
 -217 1079 -217 1079 -104 1081 c 0,61,62
 -90 1081 -90 1081 -63 1081 c 0,63,64
 -45 1081 -45 1081 -38 1081 c 1,65,-1
 -17 994 l 1,66,67
 -24 994 -24 994 -41 995 c 0,68,69
 -126 999 -126 999 -135 969 c 1,70,71
 -137 958 -137 958 -126 913 c 1,72,-1
 1 913 l 1,73,-1
 22 825 l 1,74,-1
 -238 825 l 1,75,-1
 -258 913 l 1,76,-1
 -206 913 l 1,57,58
EndSplineSet
EndChar

StartChar: uniFE8B
Encoding: 65163 65163 347
Width: 598
VWidth: 1639
GlyphClass: 2
Flags: W
LayerCount: 2
Fore
SplineSet
101 968 m 1,0,1
 84 1043 84 1043 86 1061 c 0,2,3
 88 1075 88 1075 93 1084 c 0,4,5
 109 1114 109 1114 202 1110 c 0,6,7
 220 1109 220 1109 227 1109 c 1,8,-1
 235 1076 l 1,9,10
 173 1076 173 1076 169 1075 c 0,11,12
 159 1072 159 1072 153 1068 c 0,13,14
 149 1063 149 1063 140 1045 c 1,15,16
 124 1027 124 1027 124 1025 c 0,17,18
 123 1022 123 1022 123 1020 c 0,19,20
 123 1012 123 1012 133 968 c 1,21,-1
 158 968 l 1,22,-1
 164 941 l 1,23,-1
 266 941 l 1,24,-1
 274 905 l 1,25,-1
 64 905 l 1,26,-1
 56 941 l 1,27,-1
 83 941 l 1,28,-1
 77 968 l 1,29,-1
 101 968 l 1,0,1
112 743 m 1,30,-1
 315 743 l 1,31,-1
 427 259 l 2,32,33
 462 102 462 102 421 52 c 1,34,35
 373 -2 373 -2 235 -2 c 2,36,-1
 -29 -2 l 1,37,-1
 -78 213 l 1,38,-1
 80 213 l 2,39,40
 146 214 146 214 163 225 c 0,41,42
 173 233 173 233 183 251 c 1,43,-1
 200 276 l 1,44,45
 212 308 212 308 193 392 c 2,46,-1
 112 743 l 1,30,-1
EndSplineSet
EndChar

StartChar: uniFE8C
Encoding: 65164 65164 348
Width: 639
VWidth: 1639
GlyphClass: 2
Flags: W
LayerCount: 2
Fore
SplineSet
107 968 m 1,0,1
 90 1043 90 1043 92 1059 c 0,2,3
 94 1073 94 1073 98 1082 c 0,4,5
 106 1096 106 1096 131 1104 c 0,6,7
 154 1110 154 1110 233 1109 c 1,8,-1
 241 1076 l 1,9,10
 179 1076 179 1076 175 1075 c 0,11,12
 165 1072 165 1072 159 1068 c 0,13,14
 155 1064 155 1064 151 1055 c 0,15,16
 147 1047 147 1047 145 1044.5 c 128,-1,17
 143 1042 143 1042 138 1037 c 0,18,19
 130 1027 130 1027 128 1022 c 0,20,21
 128 1014 128 1014 139 968 c 1,22,-1
 164 968 l 1,23,-1
 170 941 l 1,24,-1
 272 941 l 1,25,-1
 280 905 l 1,26,-1
 68 905 l 1,27,-1
 60 941 l 1,28,-1
 89 941 l 1,29,-1
 83 968 l 1,30,-1
 107 968 l 1,0,1
112 743 m 1,31,-1
 315 743 l 1,32,-1
 431 239 l 1,33,-1
 456 239 l 1,34,-1
 462 213 l 1,35,-1
 619 213 l 1,36,-1
 655 57 l 1,37,-1
 664 16 l 2,38,39
 666 2 l 0,40,41
 663 -2 663 -2 624 -2 c 2,42,-1
 496 -2 l 1,43,-1
 -29 -2 l 1,44,-1
 -78 213 l 1,45,-1
 210 213 l 1,46,-1
 204 239 l 1,47,-1
 228 239 l 1,48,-1
 112 743 l 1,31,-1
EndSplineSet
EndChar

StartChar: alefarabic
Encoding: 1575 1575 349
AltUni2: 00fe8d.ffffffff.0
Width: 441
VWidth: 1639
GlyphClass: 2
Flags: HW
AnchorPoint: "GposMark2BaseAnchorClassErabAbove_01_02" 40.5 1506 basechar 0
AnchorPoint: "GposMark2BaseAnchorClassErabBelow_01_02" 40.5 -152 basechar 0
LayerCount: 2
Fore
SplineSet
-218 1356 m 1,0,-1
 -14 1356 l 1,1,-1
 299 -2 l 1,2,-1
 95 -2 l 1,3,-1
 -218 1356 l 1,0,-1
EndSplineSet
AlternateSubs2: "gsub_alternate_dfl_aalt_arab_FAR_Lookup_01_Subtable_01" uniFE8E alefarabic
Substitution2: "gsub_single_rtl_fina_arab_FAR_Lookup_01_Subtable_01" uniFE8E
EndChar

StartChar: uniFE8E
Encoding: 65166 65166 350
Width: 492
VWidth: 1639
GlyphClass: 2
Flags: HW
AnchorPoint: "GposMark2BaseAnchorClassErabAbove_01_02" 152.5 1506 basechar 0
AnchorPoint: "GposMark2BaseAnchorClassErabBelow_01_02" 152.5 -157 basechar 0
LayerCount: 2
Fore
SplineSet
-217 1356 m 1,0,-1
 -12 1356 l 1,1,-1
 161 607 l 1,2,-1
 207 408 l 2,3,4
 228 322 228 322 246 295 c 1,5,6
 261 278 261 278 281 262 c 1,7,8
 308 237 308 237 324 230 c 0,9,10
 362 210 362 210 453 213 c 0,11,12
 465 213 465 213 473 213 c 1,13,-1
 522 -2 l 1,14,15
 498 -2 498 -2 451 -3 c 0,16,17
 320 -7 320 -7 255 5 c 0,18,19
 178 19 178 19 135 52 c 1,20,21
 103 81 103 81 72 148 c 0,22,23
 44 208 44 208 11 366 c 0,24,25
 6 393 6 393 1 412 c 2,26,-1
 -217 1356 l 1,0,-1
EndSplineSet
EndChar

StartChar: afii57416
Encoding: 1576 1576 351
AltUni2: 00fe8f.ffffffff.0
Width: 1411
VWidth: 1639
GlyphClass: 2
Flags: HW
AnchorPoint: "GposMark2BaseAnchorClassErabAbove_01_02" 530.5 893 basechar 0
AnchorPoint: "GposMark2BaseAnchorClassErabBelow_01_02" 530.5 -572 basechar 0
LayerCount: 2
Fore
SplineSet
-171 743 m 1,0,-1
 33 743 l 1,1,-1
 108 417 l 2,2,3
 129 325 129 325 143 299 c 0,4,5
 154 280 154 280 167 267 c 0,6,7
 200 233 200 233 221 225 c 0,8,9
 245 215 245 215 277 215 c 0,10,11
 308 213 308 213 364 213 c 2,12,-1
 800 213 l 2,13,14
 863 213 863 213 893 215 c 0,15,16
 937 219 937 219 943 223 c 0,17,18
 965 239 965 239 979 271 c 0,19,20
 996 305 996 305 973 398 c 0,21,22
 970 410 970 410 968 417 c 2,23,-1
 893 743 l 1,24,-1
 1097 743 l 1,25,-1
 1200 297 l 2,26,27
 1232 156 1232 156 1221 98 c 0,28,29
 1216 76 1216 76 1207 59 c 0,30,31
 1193 33 1193 33 1148 16 c 1,32,33
 1086 -3 1086 -3 960 -2 c 2,34,-1
 305 -2 l 2,35,36
 180 -2 180 -2 137 9 c 0,37,38
 119 14 119 14 104 20 c 0,39,40
 55 39 55 39 36 57 c 0,41,42
 -26 117 -26 117 -59 256 c 0,43,44
 -61 263 -61 263 -64 278 c 0,45,46
 -66 287 -66 287 -67 290 c 2,47,-1
 -171 743 l 1,0,-1
634 -195 m 1,48,49
 698 -189 698 -189 737 -225 c 1,50,51
 784 -271 784 -271 784 -339 c 0,52,53
 784 -367 784 -367 774 -385 c 1,54,55
 758 -406 758 -406 724 -413 c 1,56,57
 661 -422 661 -422 619 -387 c 1,58,59
 574 -345 574 -345 570 -276 c 0,60,61
 569 -243 569 -243 581 -223 c 1,62,63
 597 -202 597 -202 634 -195 c 1,48,49
EndSplineSet
AlternateSubs2: "gsub_alternate_dfl_aalt_arab_FAR_Lookup_01_Subtable_01" uniFE90 uniFE91 afii57416 uniFE92
Substitution2: "gsub_single_rtl_fina_arab_FAR_Lookup_01_Subtable_01" uniFE90
Substitution2: "gsub_single_rtl_init_arab_FAR_Lookup_01_Subtable_01" uniFE91
Substitution2: "gsub_single_rtl_medi_arab_FAR_Lookup_01_Subtable_01" uniFE92
EndChar

StartChar: uniFE90
Encoding: 65168 65168 352
Width: 1417
VWidth: 1639
GlyphClass: 2
Flags: HW
AnchorPoint: "GposMark2BaseAnchorClassErabAbove_01_02" 637.5 893 basechar 0
AnchorPoint: "GposMark2BaseAnchorClassErabBelow_01_02" 637.5 -576 basechar 0
LayerCount: 2
Fore
SplineSet
-171 743 m 1,0,-1
 33 743 l 1,1,-1
 109 415 l 2,2,3
 131 321 131 321 143 297 c 0,4,5
 152 280 152 280 163 267 c 0,6,7
 193 236 193 236 215 223 c 1,8,9
 226 219 226 219 275 215 c 0,10,11
 299 213 299 213 399 213 c 2,12,-1
 991 213 l 1,13,-1
 985 239 l 1,14,-1
 1009 239 l 1,15,-1
 893 743 l 1,16,-1
 1097 743 l 1,17,-1
 1214 239 l 1,18,-1
 1238 239 l 1,19,-1
 1244 213 l 1,20,-1
 1397 213 l 1,21,-1
 1446 -2 l 1,22,-1
 423 -2 l 2,23,24
 400 -2 400 -2 353 -3 c 0,25,26
 218 -7 218 -7 151 7 c 0,27,28
 73 22 73 22 36 57 c 0,29,30
 -26 115 -26 115 -59 256 c 0,31,32
 -61 263 -61 263 -64 276 c 0,33,34
 -66 284 -66 284 -67 289 c 2,35,-1
 -171 743 l 1,0,-1
635 -200 m 1,36,37
 698 -194 698 -194 736 -228 c 0,38,39
 782 -269 782 -269 785 -339 c 0,40,41
 786 -372 786 -372 774 -392 c 1,42,43
 758 -413 758 -413 719 -420 c 1,44,45
 658 -426 658 -426 620 -392 c 1,46,47
 575 -350 575 -350 571 -280 c 0,48,49
 570 -247 570 -247 582 -228 c 1,50,51
 598 -207 598 -207 635 -200 c 1,36,37
EndSplineSet
EndChar

StartChar: uniFE91
Encoding: 65169 65169 353
Width: 630
VWidth: 1639
GlyphClass: 2
Flags: HW
AnchorPoint: "GposMark2BaseAnchorClassErabAbove_01_02" 242.5 893 basechar 0
AnchorPoint: "GposMark2BaseAnchorClassErabBelow_01_02" 242.5 -572 basechar 0
LayerCount: 2
Fore
SplineSet
112 743 m 1,0,-1
 315 743 l 1,1,-1
 427 259 l 2,2,3
 462 102 462 102 421 52 c 1,4,5
 373 -2 373 -2 235 -2 c 2,6,-1
 -29 -2 l 1,7,-1
 -78 213 l 1,8,-1
 80 213 l 2,9,10
 146 214 146 214 163 225 c 0,11,12
 173 233 173 233 183 251 c 1,13,14
 200 276 l 1,15,16
 212 308 212 308 193 392 c 2,17,-1
 112 743 l 1,0,-1
412 -195 m 1,18,19
 476 -189 476 -189 515 -225 c 1,20,21
 561 -270 561 -270 563 -338 c 0,22,23
 563 -368 563 -368 551 -387 c 1,24,25
 536 -406 536 -406 502 -413 c 1,26,27
 439 -422 439 -422 397 -387 c 1,28,29
 352 -345 352 -345 348 -276 c 0,30,31
 347 -243 347 -243 359 -223 c 1,32,33
 375 -202 375 -202 412 -195 c 1,18,19
EndSplineSet
EndChar

StartChar: uniFE92
Encoding: 65170 65170 354
Width: 639
VWidth: 1639
GlyphClass: 2
Flags: HW
AnchorPoint: "GposMark2BaseAnchorClassErabAbove_01_02" 294 893 basechar 0
AnchorPoint: "GposMark2BaseAnchorClassErabBelow_01_02" 294 -574 basechar 0
LayerCount: 2
Fore
SplineSet
112 743 m 1,0,-1
 315 743 l 1,1,-1
 431 239 l 1,2,-1
 456 239 l 1,3,-1
 462 213 l 1,4,-1
 619 213 l 1,5,-1
 655 57 l 1,6,-1
 664 16 l 2,7,8
 666 2 l 0,9,10
 663 -2 663 -2 624 -2 c 2,11,-1
 496 -2 l 1,12,-1
 -29 -2 l 1,13,-1
 -78 213 l 1,14,-1
 210 213 l 1,15,-1
 204 239 l 1,16,-1
 228 239 l 1,17,-1
 112 743 l 1,0,-1
409 -198 m 1,18,19
 469 -193 469 -193 509 -228 c 1,20,21
 555 -271 555 -271 556 -341 c 0,22,23
 556 -372 556 -372 544 -390 c 0,24,25
 530 -411 530 -411 493 -418 c 1,26,27
 431 -424 431 -424 390 -390 c 1,28,29
 343 -345 343 -345 343 -276 c 0,30,31
 343 -246 343 -246 354 -226 c 1,32,33
 371 -205 371 -205 409 -198 c 1,18,19
EndSplineSet
EndChar

StartChar: afii57417
Encoding: 1577 1577 355
AltUni2: 00fe93.ffffffff.0
Width: 745
VWidth: 1639
GlyphClass: 2
Flags: HW
AnchorPoint: "GposMark2BaseAnchorClassErabAbove_01_02" 222.5 1281 basechar 0
AnchorPoint: "GposMark2BaseAnchorClassErabBelow_01_02" 222.5 -152 basechar 0
LayerCount: 2
Fore
SplineSet
-75 1123 m 1,0,1
 -13 1130 -13 1130 29 1096 c 1,2,3
 75 1052 75 1052 77 980 c 0,4,5
 77 950 77 950 66 932 c 1,6,7
 50 911 50 911 13 904 c 1,8,9
 -47 898 -47 898 -87 930 c 1,10,11
 -134 973 -134 973 -136 1044 c 0,12,13
 -136 1078 -136 1078 -124 1097 c 0,14,15
 -109 1116 -109 1116 -75 1123 c 1,0,1
213 1123 m 1,16,17
 275 1131 275 1131 316 1096 c 0,18,19
 364 1052 364 1052 365 981 c 0,20,21
 365 951 365 951 354 932 c 1,22,23
 338 911 338 911 301 904 c 1,24,25
 239 898 239 898 202 930 c 0,26,27
 155 973 155 973 152 1044 c 0,28,29
 152 1078 152 1078 165 1097 c 0,30,31
 179 1116 179 1116 213 1123 c 1,16,17
652 -2 m 1,32,-1
 220 -2 l 2,33,34
 97 -2 97 -2 85 -0 c 0,35,36
 30 7 30 7 -11 30 c 1,37,38
 -66 63 -66 63 -92 174 c 2,39,-1
 -181 559 l 2,40,41
 -207 676 -207 676 -174 708 c 0,42,43
 -132 748 -132 748 -12 745 c 0,44,45
 25 744 25 744 32 745 c 2,46,-1
 479 745 l 1,47,-1
 652 -2 l 1,32,-1
313 535 m 1,48,-1
 156 535 l 2,49,50
 95 534 95 534 80 525 c 0,51,52
 79 523 79 523 66 502 c 0,53,54
 64 500 64 500 60 495 c 0,55,56
 51 483 51 483 49 476 c 0,57,58
 47 457 47 457 61 395 c 0,59,60
 63 386 63 386 67 365 c 0,61,62
 80 295 80 295 98 269 c 0,63,64
 105 260 105 260 127 244 c 1,65,66
 147 225 147 225 152 221 c 0,67,68
 173 212 173 212 230 213 c 2,69,-1
 387 213 l 1,70,-1
 381 239 l 1,71,-1
 405 239 l 1,72,-1
 343 508 l 1,73,-1
 319 508 l 1,74,-1
 313 535 l 1,48,-1
EndSplineSet
AlternateSubs2: "gsub_alternate_dfl_aalt_arab_FAR_Lookup_01_Subtable_01" uniFE94 afii57417
Substitution2: "gsub_single_rtl_fina_arab_FAR_Lookup_01_Subtable_01" uniFE94
EndChar

StartChar: uniFE94
Encoding: 65172 65172 356
Width: 860
VWidth: 1639
GlyphClass: 2
Flags: HW
AnchorPoint: "GposMark2BaseAnchorClassErabAbove_01_02" 361.5 1370 basechar 0
AnchorPoint: "GposMark2BaseAnchorClassErabBelow_01_02" 361.5 -158 basechar 0
LayerCount: 2
Fore
SplineSet
-96 1214 m 1,0,1
 -34 1220 -34 1220 5 1186 c 1,2,3
 52 1141 52 1141 53 1071 c 0,4,5
 53 1041 53 1041 41 1022 c 0,6,7
 27 1001 27 1001 -10 994 c 1,8,9
 -73 988 -73 988 -109 1020 c 0,10,11
 -155 1063 -155 1063 -159 1134 c 0,12,13
 -160 1168 -160 1168 -148 1187 c 1,14,15
 -131 1208 -131 1208 -96 1214 c 1,0,1
192 1214 m 1,16,17
 253 1219 253 1219 293 1186 c 1,18,19
 339 1145 339 1145 342 1074 c 0,20,21
 342 1041 342 1041 330 1022 c 0,22,23
 316 1001 316 1001 278 994 c 1,24,25
 216 988 216 988 178 1020 c 1,26,27
 132 1064 132 1064 128 1134 c 0,28,29
 127 1168 127 1168 140 1187 c 1,30,31
 157 1208 157 1208 192 1214 c 1,16,17
310 831 m 1,32,-1
 525 831 l 1,33,-1
 661 239 l 1,34,-1
 686 239 l 1,35,-1
 692 213 l 1,36,-1
 840 213 l 1,37,-1
 889 -2 l 1,38,-1
 291 -2 l 2,39,40
 275 -2 275 -2 242 -3 c 0,41,42
 107 -8 107 -8 44 22 c 0,43,44
 31 29 31 29 20 36 c 0,45,46
 -27 69 -27 69 -53 182 c 2,47,-1
 -140 559 l 2,48,49
 -166 675 -166 675 -135 708 c 1,50,51
 -86 744 -86 744 25 745 c 2,52,-1
 305 745 l 1,53,-1
 299 771 l 1,54,-1
 324 771 l 1,55,-1
 310 831 l 1,32,-1
354 535 m 1,56,-1
 197 535 l 2,57,58
 136 534 136 534 121 525 c 0,59,60
 120 523 120 523 107 502 c 0,61,62
 105 500 105 500 101 495 c 0,63,64
 92 483 92 483 90 476 c 0,65,66
 88 457 88 457 102 395 c 0,67,68
 104 386 104 386 108 365 c 0,69,70
 121 295 121 295 139 269 c 0,71,72
 146 260 146 260 168 244 c 1,73,74
 188 225 188 225 193 221 c 0,75,76
 214 212 214 212 271 213 c 2,77,-1
 428 213 l 1,78,-1
 422 239 l 1,79,-1
 446 239 l 1,80,-1
 384 508 l 1,81,-1
 360 508 l 1,82,-1
 354 535 l 1,56,-1
EndSplineSet
EndChar

StartChar: afii57418
Encoding: 1578 1578 357
AltUni2: 00fe95.ffffffff.0
Width: 1411
VWidth: 1639
GlyphClass: 2
Flags: HW
AnchorPoint: "GposMark2BaseAnchorClassErabAbove_01_02" 530.5 1278 basechar 0
AnchorPoint: "GposMark2BaseAnchorClassErabBelow_01_02" 530.5 -153 basechar 0
LayerCount: 2
Fore
SplineSet
229 1122 m 1,0,1
 292 1128 292 1128 330 1094 c 0,2,3
 377 1050 377 1050 380 980 c 0,4,5
 380 949 380 949 368 930 c 1,6,7
 353 910 353 910 321 904 c 1,8,9
 256 895 256 895 215 930 c 1,10,11
 166 975 166 975 165 1045 c 0,12,13
 165 1075 165 1075 176 1094 c 1,14,15
 192 1115 192 1115 229 1122 c 1,0,1
517 1122 m 1,16,17
 579 1128 579 1128 620 1094 c 1,18,19
 665 1052 665 1052 668 982 c 0,20,21
 668 949 668 949 656 930 c 1,22,23
 640 909 640 909 602 902 c 1,24,25
 542 897 542 897 502 932 c 1,26,27
 457 974 457 974 454 1043 c 0,28,29
 454 1075 454 1075 464 1094 c 1,30,31
 480 1115 480 1115 517 1122 c 1,16,17
-171 743 m 1,32,-1
 33 743 l 1,33,-1
 108 417 l 2,34,35
 129 325 129 325 143 299 c 0,36,37
 154 280 154 280 167 267 c 0,38,39
 200 233 200 233 221 225 c 0,40,41
 245 215 245 215 277 215 c 0,42,43
 308 213 308 213 364 213 c 2,44,-1
 800 213 l 2,45,46
 863 213 863 213 893 215 c 0,47,48
 937 219 937 219 943 223 c 0,49,50
 965 239 965 239 979 271 c 0,51,52
 996 305 996 305 973 398 c 0,53,54
 970 410 970 410 968 417 c 2,55,-1
 893 743 l 1,56,-1
 1097 743 l 1,57,-1
 1200 297 l 2,58,59
 1232 156 1232 156 1221 98 c 0,60,61
 1216 76 1216 76 1207 59 c 0,62,63
 1193 33 1193 33 1148 16 c 1,64,65
 1086 -3 1086 -3 960 -2 c 2,66,-1
 305 -2 l 2,67,68
 180 -2 180 -2 137 9 c 0,69,70
 119 14 119 14 104 20 c 0,71,72
 55 39 55 39 36 57 c 0,73,74
 -26 117 -26 117 -59 256 c 0,75,76
 -61 263 -61 263 -64 278 c 0,77,78
 -66 287 -66 287 -67 290 c 2,79,-1
 -171 743 l 1,32,-1
EndSplineSet
AlternateSubs2: "gsub_alternate_dfl_aalt_arab_FAR_Lookup_01_Subtable_01" uniFE96 uniFE97 afii57418 uniFE98
Substitution2: "gsub_single_rtl_fina_arab_FAR_Lookup_01_Subtable_01" uniFE96
Substitution2: "gsub_single_rtl_init_arab_FAR_Lookup_01_Subtable_01" uniFE97
Substitution2: "gsub_single_rtl_medi_arab_FAR_Lookup_01_Subtable_01" uniFE98
EndChar

StartChar: uniFE96
Encoding: 65174 65174 358
Width: 1417
VWidth: 1639
GlyphClass: 2
Flags: HW
AnchorPoint: "GposMark2BaseAnchorClassErabAbove_01_02" 637.5 1278 basechar 0
AnchorPoint: "GposMark2BaseAnchorClassErabBelow_01_02" 637.5 -157 basechar 0
LayerCount: 2
Fore
SplineSet
229 1122 m 1,0,1
 292 1128 292 1128 330 1094 c 0,2,3
 377 1050 377 1050 380 980 c 0,4,5
 380 949 380 949 368 930 c 1,6,7
 353 910 353 910 321 904 c 1,8,9
 256 895 256 895 215 930 c 1,10,11
 166 975 166 975 165 1045 c 0,12,13
 165 1075 165 1075 176 1094 c 1,14,15
 192 1115 192 1115 229 1122 c 1,0,1
517 1122 m 1,16,17
 579 1128 579 1128 620 1094 c 1,18,19
 665 1052 665 1052 668 982 c 0,20,21
 668 949 668 949 656 930 c 1,22,23
 640 909 640 909 602 902 c 1,24,25
 542 897 542 897 502 932 c 1,26,27
 457 974 457 974 454 1043 c 0,28,29
 454 1075 454 1075 464 1094 c 1,30,31
 480 1115 480 1115 517 1122 c 1,16,17
-171 743 m 1,32,-1
 33 743 l 1,33,-1
 109 415 l 2,34,35
 131 321 131 321 143 297 c 0,36,37
 152 280 152 280 163 267 c 0,38,39
 193 236 193 236 215 223 c 1,40,41
 226 219 226 219 275 215 c 0,42,43
 299 213 299 213 399 213 c 2,44,-1
 991 213 l 1,45,-1
 985 239 l 1,46,-1
 1009 239 l 1,47,-1
 893 743 l 1,48,-1
 1097 743 l 1,49,-1
 1214 239 l 1,50,-1
 1238 239 l 1,51,-1
 1244 213 l 1,52,-1
 1397 213 l 1,53,-1
 1446 -2 l 1,54,-1
 423 -2 l 2,55,56
 400 -2 400 -2 353 -3 c 0,57,58
 218 -7 218 -7 151 7 c 0,59,60
 73 22 73 22 36 57 c 0,61,62
 -26 115 -26 115 -59 256 c 0,63,64
 -61 263 -61 263 -64 276 c 0,65,66
 -66 284 -66 284 -67 289 c 2,67,-1
 -171 743 l 1,32,-1
EndSplineSet
EndChar

StartChar: uniFE97
Encoding: 65175 65175 359
Width: 721
VWidth: 1639
GlyphClass: 2
Flags: HW
AnchorPoint: "GposMark2BaseAnchorClassErabAbove_01_02" 149.5 1278 basechar 0
AnchorPoint: "GposMark2BaseAnchorClassErabBelow_01_02" 149.5 -152 basechar 0
LayerCount: 2
Fore
SplineSet
-60 1122 m 1,0,1
 2 1128 2 1128 42 1094 c 1,2,3
 88 1052 88 1052 91 982 c 0,4,5
 91 949 91 949 79 930 c 0,6,7
 63 909 63 909 24 902 c 1,8,9
 -34 897 -34 897 -74 930 c 1,10,11
 -121 972 -121 972 -124 1041 c 0,12,13
 -125 1074 -125 1074 -113 1094 c 1,14,15
 -97 1115 -97 1115 -60 1122 c 1,0,1
228 1122 m 1,16,17
 290 1128 290 1128 331 1094 c 1,18,19
 377 1053 377 1053 379 982 c 0,20,21
 379 949 379 949 367 930 c 1,22,23
 351 909 351 909 313 902 c 1,24,25
 255 897 255 897 215 930 c 1,26,27
 168 972 168 972 165 1042 c 0,28,29
 165 1074 165 1074 177 1094 c 0,30,31
 191 1115 191 1115 228 1122 c 1,16,17
75 743 m 1,32,-1
 278 743 l 1,33,-1
 389 259 l 2,34,35
 424 102 424 102 384 52 c 1,36,37
 336 -2 336 -2 198 -2 c 2,38,-1
 -66 -2 l 1,39,-1
 -116 213 l 1,40,-1
 43 213 l 2,41,42
 109 214 109 214 126 225 c 0,43,44
 136 233 136 233 146 251 c 1,45,-1
 163 276 l 1,46,47
 175 308 175 308 156 392 c 2,48,-1
 75 743 l 1,32,-1
EndSplineSet
EndChar

StartChar: uniFE98
Encoding: 65176 65176 360
Width: 601
VWidth: 1639
GlyphClass: 2
Flags: HW
AnchorPoint: "GposMark2BaseAnchorClassErabAbove_01_02" 252 1278 basechar 0
AnchorPoint: "GposMark2BaseAnchorClassErabBelow_01_02" 252 -152 basechar 0
LayerCount: 2
Fore
SplineSet
-60 1122 m 1,0,1
 2 1128 2 1128 42 1094 c 1,2,3
 88 1052 88 1052 91 982 c 0,4,5
 91 949 91 949 79 930 c 0,6,7
 63 909 63 909 24 902 c 1,8,9
 -34 897 -34 897 -74 930 c 1,10,11
 -121 972 -121 972 -124 1041 c 0,12,13
 -125 1074 -125 1074 -113 1094 c 1,14,15
 -97 1115 -97 1115 -60 1122 c 1,0,1
228 1122 m 1,16,17
 290 1128 290 1128 331 1094 c 1,18,19
 377 1053 377 1053 379 982 c 0,20,21
 379 949 379 949 367 930 c 1,22,23
 351 909 351 909 313 902 c 1,24,25
 255 897 255 897 215 930 c 1,26,27
 168 972 168 972 165 1042 c 0,28,29
 165 1074 165 1074 177 1094 c 0,30,31
 191 1115 191 1115 228 1122 c 1,16,17
75 743 m 1,32,-1
 278 743 l 1,33,-1
 394 239 l 1,34,-1
 418 239 l 1,35,-1
 424 213 l 1,36,-1
 581 213 l 1,37,-1
 617 57 l 1,38,-1
 627 16 l 2,39,40
 629 2 l 0,41,42
 626 -2 626 -2 587 -2 c 2,43,-1
 459 -2 l 1,44,-1
 -66 -2 l 1,45,-1
 -116 213 l 1,46,-1
 173 213 l 1,47,-1
 167 239 l 1,48,-1
 191 239 l 1,49,-1
 75 743 l 1,32,-1
EndSplineSet
EndChar

StartChar: afii57419
Encoding: 1579 1579 361
AltUni2: 00fe99.ffffffff.0
Width: 1411
VWidth: 1639
GlyphClass: 2
Flags: HW
AnchorPoint: "GposMark2BaseAnchorClassErabAbove_01_02" 530.5 1527 basechar 0
AnchorPoint: "GposMark2BaseAnchorClassErabBelow_01_02" 530.5 -153 basechar 0
LayerCount: 2
Fore
SplineSet
356 1371 m 0,0,1
 403 1377 403 1377 444 1346 c 0,2,3
 448 1342 448 1342 450 1340 c 0,4,5
 495 1295 495 1295 497 1226 c 0,6,7
 497 1196 497 1196 485 1178 c 1,8,9
 470 1158 470 1158 434 1151 c 1,10,11
 374 1146 374 1146 334 1176 c 1,12,13
 287 1214 287 1214 283 1287 c 0,14,15
 282 1323 282 1323 294 1343 c 1,16,17
 312 1365 312 1365 356 1371 c 0,0,1
265 1125 m 0,18,19
 314 1131 314 1131 355 1100 c 0,20,21
 359 1097 359 1097 360 1096 c 0,22,23
 405 1054 405 1054 408 984 c 0,24,25
 408 951 408 951 397 932 c 1,26,27
 380 912 380 912 345 905 c 1,28,29
 283 899 283 899 244 932 c 0,30,31
 200 970 200 970 194 1040 c 0,32,33
 192 1077 192 1077 206 1097 c 0,34,35
 224 1119 224 1119 265 1125 c 0,18,19
553 1125 m 0,36,37
 606 1131 606 1131 646 1098 c 0,38,39
 648 1096 648 1096 650 1094 c 0,40,41
 697 1048 697 1048 697 979 c 0,42,43
 696 951 696 951 686 933 c 1,44,45
 670 912 670 912 633 905 c 1,46,47
 571 899 571 899 532 932 c 0,48,49
 485 973 485 973 482 1043 c 0,50,51
 481 1077 481 1077 494 1097 c 0,52,53
 510 1118 510 1118 553 1125 c 0,36,37
-171 743 m 1,54,-1
 33 743 l 1,55,-1
 108 417 l 2,56,57
 129 325 129 325 143 299 c 0,58,59
 154 280 154 280 167 267 c 0,60,61
 200 233 200 233 221 225 c 0,62,63
 245 215 245 215 277 215 c 0,64,65
 308 213 308 213 364 213 c 2,66,-1
 800 213 l 2,67,68
 863 213 863 213 893 215 c 0,69,70
 937 219 937 219 943 223 c 0,71,72
 965 239 965 239 979 271 c 0,73,74
 996 305 996 305 973 398 c 0,75,76
 970 410 970 410 968 417 c 2,77,-1
 893 743 l 1,78,-1
 1097 743 l 1,79,-1
 1200 297 l 2,80,81
 1232 156 1232 156 1221 98 c 0,82,83
 1216 76 1216 76 1207 59 c 0,84,85
 1193 33 1193 33 1148 16 c 1,86,87
 1086 -3 1086 -3 960 -2 c 2,88,-1
 305 -2 l 2,89,90
 180 -2 180 -2 137 9 c 0,91,92
 119 14 119 14 104 20 c 0,93,94
 55 39 55 39 36 57 c 0,95,96
 -26 117 -26 117 -59 256 c 0,97,98
 -61 263 -61 263 -64 278 c 0,99,100
 -66 287 -66 287 -67 290 c 2,101,-1
 -171 743 l 1,54,-1
EndSplineSet
AlternateSubs2: "gsub_alternate_dfl_aalt_arab_FAR_Lookup_01_Subtable_01" uniFE9A uniFE9B afii57419 uniFE9C
Substitution2: "gsub_single_rtl_fina_arab_FAR_Lookup_01_Subtable_01" uniFE9A
Substitution2: "gsub_single_rtl_init_arab_FAR_Lookup_01_Subtable_01" uniFE9B
Substitution2: "gsub_single_rtl_medi_arab_FAR_Lookup_01_Subtable_01" uniFE9C
EndChar

StartChar: uniFE9A
Encoding: 65178 65178 362
Width: 1417
VWidth: 1639
GlyphClass: 2
Flags: HW
AnchorPoint: "GposMark2BaseAnchorClassErabAbove_01_02" 637.5 1522 basechar 0
AnchorPoint: "GposMark2BaseAnchorClassErabBelow_01_02" 637.5 -157 basechar 0
LayerCount: 2
Fore
SplineSet
347 1366 m 1,0,1
 409 1372 409 1372 449 1338 c 1,2,3
 494 1296 494 1296 497 1227 c 0,4,5
 497 1195 497 1195 487 1176 c 1,6,7
 471 1155 471 1155 438 1148 c 1,8,9
 375 1139 375 1139 333 1174 c 1,10,11
 286 1216 286 1216 283 1287 c 0,12,13
 282 1319 282 1319 294 1338 c 1,14,15
 310 1359 310 1359 347 1366 c 1,0,1
255 1120 m 1,16,17
 319 1129 319 1129 361 1092 c 1,18,19
 407 1048 407 1048 409 979 c 0,20,21
 409 948 409 948 397 928 c 1,22,23
 379 908 379 908 350 902 c 1,24,25
 285 893 285 893 243 930 c 1,26,27
 197 972 197 972 194 1041 c 0,28,29
 194 1073 194 1073 205 1092 c 1,30,31
 221 1114 221 1114 255 1120 c 1,16,17
544 1120 m 1,32,33
 608 1129 608 1129 649 1092 c 1,34,35
 694 1050 694 1050 697 981 c 0,36,37
 697 949 697 949 687 930 c 1,38,39
 671 909 671 909 638 902 c 1,40,41
 575 893 575 893 533 928 c 1,42,43
 487 969 487 969 483 1040 c 0,44,45
 482 1074 482 1074 495 1094 c 0,46,47
 510 1113 510 1113 544 1120 c 1,32,33
-171 743 m 1,48,-1
 33 743 l 1,49,-1
 109 415 l 2,50,51
 131 321 131 321 143 297 c 0,52,53
 152 280 152 280 163 267 c 0,54,55
 193 236 193 236 215 223 c 1,56,57
 226 219 226 219 275 215 c 0,58,59
 299 213 299 213 399 213 c 2,60,-1
 991 213 l 1,61,-1
 985 239 l 1,62,-1
 1009 239 l 1,63,-1
 893 743 l 1,64,-1
 1097 743 l 1,65,-1
 1214 239 l 1,66,-1
 1238 239 l 1,67,-1
 1244 213 l 1,68,-1
 1397 213 l 1,69,-1
 1446 -2 l 1,70,-1
 423 -2 l 2,71,72
 400 -2 400 -2 353 -3 c 0,73,74
 218 -7 218 -7 151 7 c 0,75,76
 73 22 73 22 36 57 c 0,77,78
 -26 115 -26 115 -59 256 c 0,79,80
 -61 263 -61 263 -64 276 c 0,81,82
 -66 284 -66 284 -67 289 c 2,83,-1
 -171 743 l 1,48,-1
EndSplineSet
EndChar

StartChar: uniFE9B
Encoding: 65179 65179 363
Width: 717
VWidth: 1639
GlyphClass: 2
Flags: HW
AnchorPoint: "GposMark2BaseAnchorClassErabAbove_01_02" 153.5 1527 basechar 0
AnchorPoint: "GposMark2BaseAnchorClassErabBelow_01_02" 153.5 -152 basechar 0
LayerCount: 2
Fore
SplineSet
40 1371 m 1,0,1
 84 1377 84 1377 124 1347 c 0,2,3
 128 1343 128 1343 130 1342 c 0,4,5
 175 1300 175 1300 180 1230 c 0,6,7
 181 1197 181 1197 168 1178 c 1,8,9
 153 1159 153 1159 118 1151 c 1,10,11
 61 1143 61 1143 16 1178 c 1,12,13
 -29 1214 -29 1214 -35 1285 c 0,14,15
 -37 1322 -37 1322 -24 1343 c 1,16,17
 -10 1361 -10 1361 40 1371 c 1,0,1
-53 1125 m 1,18,19
 0 1129 0 1129 40 1097 c 1,20,21
 89 1054 89 1054 91 983 c 0,22,23
 91 950 91 950 79 932 c 1,24,25
 62 912 62 912 27 905 c 1,26,27
 -34 900 -34 900 -74 932 c 1,28,29
 -120 973 -120 973 -123 1043 c 0,30,31
 -124 1077 -124 1077 -112 1097 c 1,32,33
 -96 1118 -96 1118 -53 1125 c 1,18,19
235 1125 m 0,34,35
 285 1131 285 1131 324 1101 c 0,36,37
 328 1097 328 1097 331 1096 c 0,38,39
 377 1054 377 1054 379 984 c 0,40,41
 379 952 379 952 368 933 c 0,42,43
 354 912 354 912 317 905 c 1,44,45
 255 899 255 899 214 932 c 1,46,47
 168 973 168 973 165 1043 c 0,48,49
 164 1077 164 1077 176 1097 c 1,50,51
 192 1118 192 1118 235 1125 c 0,34,35
81 743 m 1,52,-1
 284 743 l 1,53,-1
 396 259 l 2,54,55
 431 102 431 102 390 52 c 1,56,57
 342 -2 342 -2 204 -2 c 2,58,-1
 -60 -2 l 1,59,-1
 -109 213 l 1,60,-1
 49 213 l 2,61,62
 115 214 115 214 132 225 c 0,63,64
 142 233 142 233 152 251 c 1,65,-1
 169 276 l 1,66,67
 181 308 181 308 162 392 c 2,68,-1
 81 743 l 1,52,-1
EndSplineSet
EndChar

StartChar: uniFE9C
Encoding: 65180 65180 364
Width: 608
VWidth: 1639
GlyphClass: 2
Flags: HW
AnchorPoint: "GposMark2BaseAnchorClassErabAbove_01_02" 255.5 1527 basechar 0
AnchorPoint: "GposMark2BaseAnchorClassErabBelow_01_02" 255.5 -152 basechar 0
LayerCount: 2
Fore
SplineSet
40 1371 m 1,0,1
 84 1377 84 1377 124 1347 c 0,2,3
 128 1343 128 1343 130 1342 c 0,4,5
 175 1300 175 1300 180 1230 c 0,6,7
 181 1197 181 1197 168 1178 c 1,8,9
 153 1159 153 1159 118 1151 c 1,10,11
 61 1143 61 1143 16 1178 c 1,12,13
 -29 1214 -29 1214 -35 1285 c 0,14,15
 -37 1322 -37 1322 -24 1343 c 1,16,17
 -10 1361 -10 1361 40 1371 c 1,0,1
-53 1125 m 1,18,19
 0 1129 0 1129 40 1097 c 1,20,21
 89 1054 89 1054 91 983 c 0,22,23
 91 950 91 950 79 932 c 1,24,25
 62 912 62 912 27 905 c 1,26,27
 -34 900 -34 900 -74 932 c 1,28,29
 -120 973 -120 973 -123 1043 c 0,30,31
 -124 1077 -124 1077 -112 1097 c 1,32,33
 -96 1118 -96 1118 -53 1125 c 1,18,19
235 1125 m 0,34,35
 285 1131 285 1131 324 1101 c 0,36,37
 328 1097 328 1097 331 1096 c 0,38,39
 377 1054 377 1054 379 984 c 0,40,41
 379 952 379 952 368 933 c 0,42,43
 354 912 354 912 317 905 c 1,44,45
 255 899 255 899 214 932 c 1,46,47
 168 973 168 973 165 1043 c 0,48,49
 164 1077 164 1077 176 1097 c 1,50,51
 192 1118 192 1118 235 1125 c 0,34,35
81 743 m 1,52,-1
 284 743 l 1,53,-1
 400 239 l 1,54,-1
 425 239 l 1,55,-1
 431 213 l 1,56,-1
 588 213 l 1,57,-1
 624 57 l 1,58,-1
 633 16 l 2,59,60
 635 2 l 0,61,62
 632 -2 632 -2 593 -2 c 2,63,-1
 465 -2 l 1,64,-1
 -60 -2 l 1,65,-1
 -109 213 l 1,66,-1
 179 213 l 1,67,-1
 173 239 l 1,68,-1
 197 239 l 1,69,-1
 81 743 l 1,52,-1
EndSplineSet
EndChar

StartChar: afii57420
Encoding: 1580 1580 365
AltUni2: 00fe9d.ffffffff.0
Width: 886
VWidth: 1639
GlyphClass: 2
Flags: HW
AnchorPoint: "GposMark2BaseAnchorClassErabAbove_01_02" 515 895 basechar 0
AnchorPoint: "GposMark2BaseAnchorClassErabBelow_01_02" 515 -963 basechar 0
LayerCount: 2
Fore
SplineSet
-43 745 m 1,0,-1
 472 745 l 2,1,2
 580 745 580 745 612 737 c 0,3,4
 623 734 623 734 631 731 c 0,5,6
 670 716 670 716 688 704 c 1,7,8
 736 660 736 660 762 534 c 0,9,10
 768 506 768 506 770 499 c 2,11,-1
 886 -2 l 1,12,-1
 597 -2 l 2,13,14
 485 -2 485 -2 459 -7 c 0,15,16
 438 -12 438 -12 422 -20 c 0,17,18
 375 -42 375 -42 340 -95 c 0,19,20
 299 -159 299 -159 292 -210 c 1,21,22
 278 -341 278 -341 392 -466 c 0,23,24
 446 -524 446 -524 510 -561 c 1,25,26
 578 -597 578 -597 699 -597 c 0,27,28
 702 -597 702 -597 709 -597 c 0,29,30
 720 -597 720 -597 724 -597 c 2,31,-1
 1023 -597 l 1,32,-1
 1073 -813 l 1,33,-1
 785 -813 l 2,34,35
 629 -813 629 -813 599 -810 c 0,36,37
 588 -809 588 -809 579 -807 c 0,38,39
 443 -784 443 -784 313 -686 c 0,40,41
 146 -556 146 -556 81 -342 c 0,42,43
 18 -132 18 -132 91 24 c 0,44,45
 121 85 121 85 168 126 c 0,46,47
 266 208 266 208 469 213 c 0,48,49
 481 213 481 213 598 213 c 1,50,-1
 592 239 l 1,51,-1
 616 239 l 1,52,-1
 588 361 l 2,53,54
 571 430 571 430 549 459 c 0,55,56
 538 472 538 472 518 487 c 1,57,58
 485 515 485 515 479 518 c 0,59,60
 438 533 438 533 357 531 c 1,61,-1
 6 531 l 1,62,-1
 -43 745 l 1,0,-1
642 -195 m 1,63,64
 706 -189 706 -189 745 -225 c 1,65,66
 791 -270 791 -270 792 -338 c 0,67,68
 792 -368 792 -368 781 -387 c 1,69,70
 766 -406 766 -406 732 -413 c 1,71,72
 669 -422 669 -422 627 -387 c 1,73,74
 581 -346 581 -346 577 -276 c 0,75,76
 576 -243 576 -243 589 -223 c 1,77,78
 605 -202 605 -202 642 -195 c 1,63,64
EndSplineSet
AlternateSubs2: "gsub_alternate_dfl_aalt_arab_FAR_Lookup_01_Subtable_01" uniFE9E uniFE9F afii57420 uniFEA0
Substitution2: "gsub_single_rtl_fina_arab_FAR_Lookup_01_Subtable_01" uniFE9E
Substitution2: "gsub_single_rtl_init_arab_FAR_Lookup_01_Subtable_01" uniFE9F
Substitution2: "gsub_single_rtl_medi_arab_FAR_Lookup_01_Subtable_01" uniFEA0
EndChar

StartChar: uniFE9E
Encoding: 65182 65182 366
Width: 917
VWidth: 1639
GlyphClass: 2
Flags: HW
AnchorPoint: "GposMark2BaseAnchorClassErabAbove_01_02" 510 895 basechar 0
AnchorPoint: "GposMark2BaseAnchorClassErabBelow_01_02" 510 -963 basechar 0
LayerCount: 2
Fore
SplineSet
-43 745 m 1,0,-1
 483 745 l 2,1,2
 589 745 589 745 631 730 c 0,3,4
 635 729 635 729 638 728 c 0,5,6
 675 714 675 714 690 699 c 1,7,8
 734 647 734 647 760 536 c 2,9,-1
 828 239 l 1,10,-1
 853 239 l 1,11,-1
 859 213 l 1,12,-1
 1013 213 l 1,13,-1
 1063 -2 l 1,14,-1
 626 -2 l 2,15,16
 496 -2 496 -2 485 -3 c 0,17,18
 430 -10 430 -10 396 -33 c 0,19,20
 304 -95 304 -95 293 -214 c 0,21,22
 286 -305 286 -305 333 -389 c 0,23,24
 366 -446 366 -446 433 -503 c 0,25,26
 487 -549 487 -549 522 -567 c 0,27,28
 585 -597 585 -597 705 -597 c 0,29,30
 717 -597 717 -597 723 -597 c 2,31,-1
 1000 -597 l 1,32,-1
 1050 -813 l 1,33,-1
 777 -813 l 2,34,35
 626 -813 626 -813 588 -809 c 0,36,37
 449 -788 449 -788 319 -690 c 1,38,39
 149 -560 149 -560 82 -346 c 0,40,41
 16 -135 16 -135 90 22 c 0,42,43
 120 83 120 83 167 125 c 0,44,45
 264 209 264 209 466 213 c 0,46,47
 480 213 480 213 597 213 c 1,48,-1
 590 239 l 1,49,-1
 615 239 l 1,50,-1
 586 364 l 2,51,52
 569 433 569 433 549 459 c 0,53,54
 539 470 539 470 520 484 c 2,55,-1
 518 485 l 1,56,57
 495 507 495 507 483 515 c 1,58,59
 435 533 435 533 354 531 c 1,60,-1
 6 531 l 1,61,-1
 -43 745 l 1,0,-1
644 -195 m 1,62,63
 708 -189 708 -189 746 -225 c 1,64,65
 792 -270 792 -270 794 -338 c 0,66,67
 794 -368 794 -368 782 -387 c 1,68,69
 767 -406 767 -406 734 -413 c 1,70,71
 671 -422 671 -422 628 -387 c 1,72,73
 582 -346 582 -346 579 -276 c 0,74,75
 578 -243 578 -243 590 -223 c 1,76,77
 607 -202 607 -202 644 -195 c 1,62,63
EndSplineSet
EndChar

StartChar: uniFE9F
Encoding: 65183 65183 367
Width: 1136
VWidth: 1639
GlyphClass: 2
Flags: HW
AnchorPoint: "GposMark2BaseAnchorClassErabAbove_01_02" 458.5 895 basechar 0
AnchorPoint: "GposMark2BaseAnchorClassErabBelow_01_02" 458.5 -572 basechar 0
LayerCount: 2
Fore
SplineSet
63 745 m 1,0,-1
 581 745 l 2,1,2
 689 745 689 745 721 737 c 0,3,4
 732 734 732 734 740 731 c 0,5,6
 779 716 779 716 795 704 c 0,7,8
 844 660 844 660 872 533 c 0,9,10
 878 504 878 504 880 497 c 2,11,-1
 995 -2 l 1,12,-1
 238 -2 l 1,13,-1
 43 -2 l 1,14,-1
 -7 -2 l 1,15,-1
 -26 0 l 1,16,-1
 -33 15 l 1,17,-1
 -41 52 l 1,18,-1
 -78 213 l 1,19,-1
 704 213 l 1,20,-1
 698 239 l 1,21,-1
 722 239 l 1,22,-1
 694 364 l 2,23,24
 678 430 678 430 656 459 c 1,25,26
 646 470 646 470 628 484 c 2,27,-1
 626 485 l 1,28,29
 603 507 603 507 590 515 c 1,30,31
 542 533 542 533 461 531 c 1,32,-1
 112 531 l 1,33,-1
 63 745 l 1,0,-1
653 -195 m 1,34,35
 717 -189 717 -189 756 -225 c 1,36,37
 802 -270 802 -270 804 -338 c 0,38,39
 804 -367 804 -367 793 -385 c 1,40,41
 777 -406 777 -406 743 -413 c 1,42,43
 680 -422 680 -422 638 -387 c 1,44,45
 593 -345 593 -345 589 -276 c 0,46,47
 588 -243 588 -243 600 -223 c 1,48,49
 616 -202 616 -202 653 -195 c 1,34,35
EndSplineSet
EndChar

StartChar: uniFEA0
Encoding: 65184 65184 368
Width: 1136
VWidth: 1639
GlyphClass: 2
Flags: HW
AnchorPoint: "GposMark2BaseAnchorClassErabAbove_01_02" 543.5 893 basechar 0
AnchorPoint: "GposMark2BaseAnchorClassErabBelow_01_02" 543.5 -572 basechar 0
LayerCount: 2
Fore
SplineSet
63 743 m 1,0,-1
 586 743 l 2,1,2
 697 743 697 743 739 729 c 0,3,4
 743 728 743 728 746 727 c 0,5,6
 782 712 782 712 796 699 c 1,7,8
 842 647 842 647 867 538 c 2,9,-1
 936 239 l 1,10,-1
 960 239 l 1,11,-1
 966 213 l 1,12,-1
 1116 213 l 1,13,-1
 1165 -2 l 1,14,-1
 282 -2 l 1,15,-1
 55 -2 l 1,16,-1
 -4 -2 l 1,17,-1
 -26 0 l 1,18,-1
 -33 15 l 1,19,-1
 -41 52 l 1,20,-1
 -78 213 l 1,21,-1
 704 213 l 1,22,-1
 698 239 l 1,23,-1
 722 239 l 1,24,-1
 694 362 l 2,25,26
 678 426 678 426 658 454 c 0,27,28
 650 464 650 464 626 484 c 0,29,30
 595 511 595 511 591 513 c 0,31,32
 542 531 542 531 462 530 c 1,33,-1
 112 530 l 1,34,-1
 63 743 l 1,0,-1
653 -195 m 1,35,36
 717 -189 717 -189 756 -225 c 1,37,38
 802 -270 802 -270 804 -338 c 0,39,40
 804 -367 804 -367 793 -385 c 1,41,42
 777 -406 777 -406 743 -413 c 1,43,44
 680 -422 680 -422 638 -387 c 1,45,46
 593 -345 593 -345 589 -276 c 0,47,48
 588 -243 588 -243 600 -223 c 1,49,50
 616 -202 616 -202 653 -195 c 1,35,36
EndSplineSet
EndChar

StartChar: afii57421
Encoding: 1581 1581 369
AltUni2: 00fea1.ffffffff.0
Width: 886
VWidth: 1639
GlyphClass: 2
Flags: HW
AnchorPoint: "GposMark2BaseAnchorClassErabAbove_01_02" 515 895 basechar 0
AnchorPoint: "GposMark2BaseAnchorClassErabBelow_01_02" 515 -963 basechar 0
LayerCount: 2
Fore
SplineSet
-43 745 m 1,0,-1
 472 745 l 2,1,2
 580 745 580 745 612 737 c 0,3,4
 623 734 623 734 631 731 c 0,5,6
 670 716 670 716 688 704 c 1,7,8
 736 660 736 660 762 534 c 0,9,10
 768 506 768 506 770 499 c 2,11,-1
 886 -2 l 1,12,-1
 597 -2 l 2,13,14
 485 -2 485 -2 459 -7 c 0,15,16
 438 -12 438 -12 422 -20 c 0,17,18
 375 -42 375 -42 340 -95 c 0,19,20
 299 -159 299 -159 292 -210 c 1,21,22
 278 -341 278 -341 392 -466 c 0,23,24
 446 -524 446 -524 510 -561 c 1,25,26
 578 -597 578 -597 699 -597 c 0,27,28
 702 -597 702 -597 709 -597 c 0,29,30
 720 -597 720 -597 724 -597 c 2,31,-1
 1023 -597 l 1,32,-1
 1073 -813 l 1,33,-1
 785 -813 l 2,34,35
 629 -813 629 -813 599 -810 c 0,36,37
 588 -809 588 -809 579 -807 c 0,38,39
 443 -784 443 -784 313 -686 c 0,40,41
 146 -556 146 -556 81 -342 c 0,42,43
 18 -132 18 -132 91 24 c 0,44,45
 121 85 121 85 168 126 c 0,46,47
 266 208 266 208 469 213 c 0,48,49
 481 213 481 213 598 213 c 1,50,-1
 592 239 l 1,51,-1
 616 239 l 1,52,-1
 588 361 l 2,53,54
 571 430 571 430 549 459 c 0,55,56
 538 472 538 472 518 487 c 1,57,58
 485 515 485 515 479 518 c 0,59,60
 438 533 438 533 357 531 c 1,61,-1
 6 531 l 1,62,-1
 -43 745 l 1,0,-1
EndSplineSet
AlternateSubs2: "gsub_alternate_dfl_aalt_arab_FAR_Lookup_01_Subtable_01" uniFEA2 uniFEA3 afii57421 uniFEA4
Substitution2: "gsub_single_rtl_fina_arab_FAR_Lookup_01_Subtable_01" uniFEA2
Substitution2: "gsub_single_rtl_init_arab_FAR_Lookup_01_Subtable_01" uniFEA3
Substitution2: "gsub_single_rtl_medi_arab_FAR_Lookup_01_Subtable_01" uniFEA4
EndChar

StartChar: uniFEA2
Encoding: 65186 65186 370
Width: 915
VWidth: 1639
GlyphClass: 2
Flags: HW
AnchorPoint: "GposMark2BaseAnchorClassErabAbove_01_02" 509 895 basechar 0
AnchorPoint: "GposMark2BaseAnchorClassErabBelow_01_02" 509 -963 basechar 0
LayerCount: 2
Fore
SplineSet
-43 745 m 1,0,-1
 483 745 l 2,1,2
 589 745 589 745 631 730 c 0,3,4
 635 729 635 729 638 728 c 0,5,6
 675 714 675 714 690 699 c 1,7,8
 734 647 734 647 760 536 c 2,9,-1
 828 239 l 1,10,-1
 853 239 l 1,11,-1
 859 213 l 1,12,-1
 1011 213 l 1,13,-1
 1061 -2 l 1,14,-1
 626 -2 l 2,15,16
 496 -2 496 -2 485 -3 c 0,17,18
 430 -10 430 -10 396 -33 c 0,19,20
 304 -95 304 -95 293 -214 c 0,21,22
 286 -305 286 -305 333 -389 c 0,23,24
 366 -446 366 -446 433 -503 c 0,25,26
 487 -549 487 -549 522 -567 c 0,27,28
 585 -597 585 -597 705 -597 c 0,29,30
 717 -597 717 -597 723 -597 c 2,31,-1
 1000 -597 l 1,32,-1
 1050 -813 l 1,33,-1
 777 -813 l 2,34,35
 626 -813 626 -813 588 -809 c 0,36,37
 449 -788 449 -788 319 -690 c 1,38,39
 149 -560 149 -560 82 -346 c 0,40,41
 16 -135 16 -135 90 22 c 0,42,43
 120 83 120 83 167 125 c 0,44,45
 264 209 264 209 466 213 c 0,46,47
 480 213 480 213 597 213 c 1,48,-1
 590 239 l 1,49,-1
 615 239 l 1,50,-1
 586 364 l 2,51,52
 569 433 569 433 549 459 c 0,53,54
 539 470 539 470 520 484 c 2,55,-1
 518 485 l 1,56,57
 495 507 495 507 483 515 c 1,58,59
 435 533 435 533 354 531 c 1,60,-1
 6 531 l 1,61,-1
 -43 745 l 1,0,-1
EndSplineSet
EndChar

StartChar: uniFEA3
Encoding: 65187 65187 371
Width: 1136
VWidth: 1639
GlyphClass: 2
Flags: HW
AnchorPoint: "GposMark2BaseAnchorClassErabAbove_01_02" 458.5 895 basechar 0
AnchorPoint: "GposMark2BaseAnchorClassErabBelow_01_02" 458.5 -152 basechar 0
LayerCount: 2
Fore
SplineSet
63 745 m 1,0,-1
 580 745 l 2,1,2
 688 745 688 745 719 737 c 0,3,4
 730 734 730 734 738 731 c 0,5,6
 780 715 780 715 795 704 c 0,7,8
 844 660 844 660 872 533 c 0,9,10
 878 504 878 504 880 497 c 2,11,-1
 995 -2 l 1,12,-1
 238 -2 l 1,13,-1
 43 -2 l 1,14,-1
 -7 -2 l 1,15,-1
 -26 0 l 1,16,-1
 -33 15 l 1,17,-1
 -41 52 l 1,18,-1
 -78 213 l 1,19,-1
 704 213 l 1,20,-1
 698 239 l 1,21,-1
 722 239 l 1,22,-1
 694 364 l 2,23,24
 678 430 678 430 656 459 c 1,25,26
 646 470 646 470 628 484 c 2,27,-1
 626 485 l 1,28,29
 603 507 603 507 590 515 c 1,30,31
 542 533 542 533 461 531 c 1,32,-1
 112 531 l 1,33,-1
 63 745 l 1,0,-1
EndSplineSet
EndChar

StartChar: uniFEA4
Encoding: 65188 65188 372
Width: 1138
VWidth: 1639
GlyphClass: 2
Flags: HW
AnchorPoint: "GposMark2BaseAnchorClassErabAbove_01_02" 543 893 basechar 0
AnchorPoint: "GposMark2BaseAnchorClassErabBelow_01_02" 543 -152 basechar 0
LayerCount: 2
Fore
SplineSet
63 743 m 1,0,-1
 586 743 l 2,1,2
 697 743 697 743 739 729 c 0,3,4
 743 728 743 728 746 727 c 0,5,6
 782 712 782 712 796 699 c 1,7,8
 842 647 842 647 867 538 c 2,9,-1
 936 239 l 1,10,-1
 960 239 l 1,11,-1
 966 213 l 1,12,-1
 1117 213 l 1,13,-1
 1155 52 l 1,14,-1
 1163 15 l 1,15,-1
 1164 0 l 1,16,-1
 1147 -2 l 1,17,-1
 1101 -2 l 1,18,-1
 925 -2 l 1,19,-1
 237 -2 l 1,20,-1
 43 -2 l 1,21,-1
 -7 -2 l 1,22,-1
 -26 0 l 1,23,-1
 -33 15 l 1,24,-1
 -41 52 l 1,25,-1
 -78 213 l 1,26,-1
 704 213 l 1,27,-1
 698 239 l 1,28,-1
 722 239 l 1,29,-1
 694 362 l 2,30,31
 678 426 678 426 658 454 c 0,32,33
 650 464 650 464 626 484 c 0,34,35
 595 511 595 511 591 513 c 0,36,37
 542 531 542 531 462 530 c 1,38,-1
 112 530 l 1,39,-1
 63 743 l 1,0,-1
EndSplineSet
EndChar

StartChar: afii57422
Encoding: 1582 1582 373
AltUni2: 00fea5.ffffffff.0
Width: 886
VWidth: 1639
GlyphClass: 2
Flags: HW
AnchorPoint: "GposMark2BaseAnchorClassErabAbove_01_02" 515 1276 basechar 0
AnchorPoint: "GposMark2BaseAnchorClassErabBelow_01_02" 515 -963 basechar 0
LayerCount: 2
Fore
SplineSet
267 1120 m 1,0,1
 332 1126 332 1126 371 1092 c 1,2,3
 418 1047 418 1047 419 978 c 0,4,5
 419 949 419 949 408 930 c 1,6,7
 392 908 392 908 358 902 c 1,8,9
 294 893 294 893 253 930 c 1,10,11
 206 975 206 975 204 1044 c 0,12,13
 204 1076 204 1076 216 1094 c 0,14,15
 232 1113 232 1113 267 1120 c 1,0,1
-43 745 m 1,16,-1
 472 745 l 2,17,18
 580 745 580 745 612 737 c 0,19,20
 623 734 623 734 631 731 c 0,21,22
 670 716 670 716 688 704 c 1,23,24
 736 660 736 660 762 534 c 0,25,26
 768 506 768 506 770 499 c 2,27,-1
 886 -2 l 1,28,-1
 597 -2 l 2,29,30
 485 -2 485 -2 459 -7 c 0,31,32
 438 -12 438 -12 422 -20 c 0,33,34
 375 -42 375 -42 340 -95 c 0,35,36
 299 -159 299 -159 292 -210 c 1,37,38
 278 -341 278 -341 392 -466 c 0,39,40
 446 -524 446 -524 510 -561 c 1,41,42
 578 -597 578 -597 699 -597 c 0,43,44
 702 -597 702 -597 709 -597 c 0,45,46
 720 -597 720 -597 724 -597 c 2,47,-1
 1023 -597 l 1,48,-1
 1073 -813 l 1,49,-1
 785 -813 l 2,50,51
 629 -813 629 -813 599 -810 c 0,52,53
 588 -809 588 -809 579 -807 c 0,54,55
 443 -784 443 -784 313 -686 c 0,56,57
 146 -556 146 -556 81 -342 c 0,58,59
 18 -132 18 -132 91 24 c 0,60,61
 121 85 121 85 168 126 c 0,62,63
 266 208 266 208 469 213 c 0,64,65
 481 213 481 213 598 213 c 1,66,-1
 592 239 l 1,67,-1
 616 239 l 1,68,-1
 588 361 l 2,69,70
 571 430 571 430 549 459 c 0,71,72
 538 472 538 472 518 487 c 1,73,74
 485 515 485 515 479 518 c 0,75,76
 438 533 438 533 357 531 c 1,77,-1
 6 531 l 1,78,-1
 -43 745 l 1,16,-1
EndSplineSet
AlternateSubs2: "gsub_alternate_dfl_aalt_arab_FAR_Lookup_01_Subtable_01" uniFEA6 uniFEA7 afii57422 uniFEA8
Substitution2: "gsub_single_rtl_fina_arab_FAR_Lookup_01_Subtable_01" uniFEA6
Substitution2: "gsub_single_rtl_init_arab_FAR_Lookup_01_Subtable_01" uniFEA7
Substitution2: "gsub_single_rtl_medi_arab_FAR_Lookup_01_Subtable_01" uniFEA8
EndChar

StartChar: uniFEA6
Encoding: 65190 65190 374
Width: 917
VWidth: 1639
GlyphClass: 2
Flags: HW
AnchorPoint: "GposMark2BaseAnchorClassErabAbove_01_02" 510 1276 basechar 0
AnchorPoint: "GposMark2BaseAnchorClassErabBelow_01_02" 510 -963 basechar 0
LayerCount: 2
Fore
SplineSet
268 1120 m 1,0,1
 333 1126 333 1126 372 1092 c 1,2,3
 419 1047 419 1047 420 978 c 0,4,5
 420 949 420 949 410 930 c 1,6,7
 394 908 394 908 360 902 c 1,8,9
 296 893 296 893 254 930 c 1,10,11
 207 975 207 975 205 1044 c 0,12,13
 205 1076 205 1076 218 1094 c 0,14,15
 233 1113 233 1113 268 1120 c 1,0,1
-43 745 m 1,16,-1
 483 745 l 2,17,18
 589 745 589 745 631 730 c 0,19,20
 635 729 635 729 638 728 c 0,21,22
 675 714 675 714 690 699 c 1,23,24
 734 647 734 647 760 536 c 2,25,-1
 828 239 l 1,26,-1
 853 239 l 1,27,-1
 859 213 l 1,28,-1
 1013 213 l 1,29,-1
 1063 -2 l 1,30,-1
 626 -2 l 2,31,32
 496 -2 496 -2 485 -3 c 0,33,34
 430 -10 430 -10 396 -33 c 0,35,36
 304 -95 304 -95 293 -214 c 0,37,38
 286 -305 286 -305 333 -389 c 0,39,40
 366 -446 366 -446 433 -503 c 0,41,42
 487 -549 487 -549 522 -567 c 0,43,44
 585 -597 585 -597 705 -597 c 0,45,46
 717 -597 717 -597 723 -597 c 2,47,-1
 1000 -597 l 1,48,-1
 1050 -813 l 1,49,-1
 777 -813 l 2,50,51
 626 -813 626 -813 588 -809 c 0,52,53
 449 -788 449 -788 319 -690 c 1,54,55
 149 -560 149 -560 82 -346 c 0,56,57
 16 -135 16 -135 90 22 c 0,58,59
 120 83 120 83 167 125 c 0,60,61
 264 209 264 209 466 213 c 0,62,63
 480 213 480 213 597 213 c 1,64,-1
 590 239 l 1,65,-1
 615 239 l 1,66,-1
 586 364 l 2,67,68
 569 433 569 433 549 459 c 0,69,70
 539 470 539 470 520 484 c 2,71,-1
 518 485 l 1,72,73
 495 507 495 507 483 515 c 1,74,75
 435 533 435 533 354 531 c 1,76,-1
 6 531 l 1,77,-1
 -43 745 l 1,16,-1
EndSplineSet
EndChar

StartChar: uniFEA7
Encoding: 65191 65191 375
Width: 1136
VWidth: 1639
GlyphClass: 2
Flags: HW
AnchorPoint: "GposMark2BaseAnchorClassErabAbove_01_02" 458.5 1279 basechar 0
AnchorPoint: "GposMark2BaseAnchorClassErabBelow_01_02" 458.5 -152 basechar 0
LayerCount: 2
Fore
SplineSet
312 1120 m 1,0,1
 376 1129 376 1129 417 1092 c 1,2,3
 462 1050 462 1050 465 981 c 0,4,5
 465 949 465 949 455 930 c 1,6,7
 439 909 439 909 406 902 c 1,8,9
 343 893 343 893 301 928 c 1,10,11
 255 969 255 969 251 1040 c 0,12,13
 250 1074 250 1074 263 1094 c 0,14,15
 278 1113 278 1113 312 1120 c 1,0,1
63 745 m 1,16,-1
 580 745 l 2,17,18
 688 745 688 745 719 737 c 0,19,20
 730 734 730 734 738 731 c 0,21,22
 780 715 780 715 795 704 c 0,23,24
 844 660 844 660 872 533 c 0,25,26
 878 504 878 504 880 497 c 2,27,-1
 995 -2 l 1,28,-1
 238 -2 l 1,29,-1
 43 -2 l 1,30,-1
 -7 -2 l 1,31,-1
 -26 0 l 1,32,-1
 -33 15 l 1,33,-1
 -41 52 l 1,34,-1
 -78 213 l 1,35,-1
 704 213 l 1,36,-1
 698 239 l 1,37,-1
 722 239 l 1,38,-1
 694 364 l 2,39,40
 678 430 678 430 656 459 c 1,41,42
 646 470 646 470 628 484 c 2,43,-1
 626 485 l 1,44,45
 603 507 603 507 590 515 c 1,46,47
 542 533 542 533 461 531 c 1,48,-1
 112 531 l 1,49,-1
 63 745 l 1,16,-1
EndSplineSet
EndChar

StartChar: uniFEA8
Encoding: 65192 65192 376
Width: 1136
VWidth: 1639
GlyphClass: 2
Flags: HW
AnchorPoint: "GposMark2BaseAnchorClassErabAbove_01_02" 543.5 1279 basechar 0
AnchorPoint: "GposMark2BaseAnchorClassErabBelow_01_02" 543.5 -152 basechar 0
LayerCount: 2
Fore
SplineSet
312 1120 m 1,0,1
 376 1129 376 1129 417 1092 c 1,2,3
 462 1050 462 1050 465 981 c 0,4,5
 465 949 465 949 455 930 c 1,6,7
 439 909 439 909 406 902 c 1,8,9
 343 893 343 893 301 928 c 1,10,11
 255 969 255 969 251 1040 c 0,12,13
 250 1074 250 1074 263 1094 c 0,14,15
 278 1113 278 1113 312 1120 c 1,0,1
63 743 m 1,16,-1
 586 743 l 2,17,18
 697 743 697 743 739 729 c 0,19,20
 743 728 743 728 746 727 c 0,21,22
 782 712 782 712 796 699 c 1,23,24
 842 647 842 647 867 538 c 2,25,-1
 936 239 l 1,26,-1
 960 239 l 1,27,-1
 966 213 l 1,28,-1
 1116 213 l 1,29,-1
 1165 -2 l 1,30,-1
 282 -2 l 1,31,-1
 55 -2 l 1,32,-1
 -4 -2 l 1,33,-1
 -26 0 l 1,34,-1
 -33 15 l 1,35,-1
 -41 52 l 1,36,-1
 -78 213 l 1,37,-1
 704 213 l 1,38,-1
 698 239 l 1,39,-1
 722 239 l 1,40,-1
 694 362 l 2,41,42
 678 426 678 426 658 454 c 0,43,44
 650 464 650 464 626 484 c 0,45,46
 595 511 595 511 591 513 c 0,47,48
 542 531 542 531 462 530 c 1,49,-1
 112 530 l 1,50,-1
 63 743 l 1,16,-1
EndSplineSet
EndChar

StartChar: afii57423
Encoding: 1583 1583 377
AltUni2: 00fea9.ffffffff.0
Width: 826
VWidth: 1639
GlyphClass: 4
Flags: HW
AnchorPoint: "GposMark2BaseAnchorClassErabAbove_01_02" 257 895 basechar 0
AnchorPoint: "GposMark2BaseAnchorClassErabBelow_01_02" 257 -152 basechar 0
LayerCount: 2
Fore
SplineSet
-170 745 m 1,0,-1
 286 745 l 2,1,2
 396 745 396 745 435 731 c 0,3,4
 465 720 465 720 486 702 c 0,5,6
 534 660 534 660 560 536 c 0,7,8
 566 507 566 507 568 499 c 2,9,-1
 684 -2 l 1,10,-1
 0 -2 l 1,11,-1
 -49 213 l 1,12,-1
 396 213 l 1,13,-1
 390 239 l 1,14,-1
 414 239 l 1,15,-1
 386 361 l 2,16,17
 370 427 370 427 353 453 c 1,18,19
 338 470 338 470 318 485 c 0,20,21
 314 488 314 488 307 496 c 0,22,23
 291 510 291 510 284 515 c 1,24,25
 245 532 245 532 167 531 c 2,26,-1
 -121 531 l 1,27,-1
 -170 745 l 1,0,-1
EndSplineSet
AlternateSubs2: "gsub_alternate_dfl_aalt_arab_FAR_Lookup_01_Subtable_01" uniFEAA afii57423
Substitution2: "gsub_single_rtl_fina_arab_FAR_Lookup_01_Subtable_01" uniFEAA
EndChar

StartChar: uniFEAA
Encoding: 65194 65194 378
Width: 829
VWidth: 1639
GlyphClass: 2
Flags: HW
AnchorPoint: "GposMark2BaseAnchorClassErabAbove_01_02" 344 895 basechar 0
AnchorPoint: "GposMark2BaseAnchorClassErabBelow_01_02" 344 -152 basechar 0
LayerCount: 2
Fore
SplineSet
-170 745 m 1,0,-1
 299 745 l 2,1,2
 393 744 393 744 439 727 c 0,3,4
 476 712 476 712 490 697 c 1,5,6
 534 646 534 646 560 535 c 2,7,-1
 628 239 l 1,8,-1
 652 239 l 1,9,-1
 658 213 l 1,10,-1
 808 213 l 1,11,-1
 858 -2 l 1,12,-1
 0 -2 l 1,13,-1
 -49 213 l 1,14,-1
 396 213 l 1,15,-1
 390 239 l 1,16,-1
 414 239 l 1,17,-1
 386 361 l 2,18,19
 370 427 370 427 353 453 c 1,20,21
 338 470 338 470 318 485 c 0,22,23
 314 488 314 488 307 496 c 0,24,25
 291 510 291 510 284 515 c 1,26,27
 245 532 245 532 167 531 c 2,28,-1
 -121 531 l 1,29,-1
 -170 745 l 1,0,-1
EndSplineSet
EndChar

StartChar: afii57424
Encoding: 1584 1584 379
AltUni2: 00feab.ffffffff.0
Width: 826
VWidth: 1639
GlyphClass: 2
Flags: HW
AnchorPoint: "GposMark2BaseAnchorClassErabAbove_01_02" 257 1279 basechar 0
AnchorPoint: "GposMark2BaseAnchorClassErabBelow_01_02" 257 -152 basechar 0
LayerCount: 2
Fore
SplineSet
27 1120 m 1,0,1
 91 1129 91 1129 133 1091 c 1,2,3
 180 1045 180 1045 179 975 c 0,4,5
 178 947 178 947 168 930 c 0,6,7
 154 909 154 909 118 902 c 1,8,9
 54 893 54 893 13 930 c 1,10,11
 -32 972 -32 972 -36 1041 c 0,12,13
 -36 1073 -36 1073 -25 1092 c 1,14,15
 -8 1113 -8 1113 27 1120 c 1,0,1
-170 745 m 1,16,-1
 286 745 l 2,17,18
 396 745 396 745 435 731 c 0,19,20
 465 720 465 720 486 702 c 0,21,22
 534 660 534 660 560 536 c 0,23,24
 566 507 566 507 568 499 c 2,25,-1
 684 -2 l 1,26,-1
 0 -2 l 1,27,-1
 -49 213 l 1,28,-1
 396 213 l 1,29,-1
 390 239 l 1,30,-1
 414 239 l 1,31,-1
 386 361 l 2,32,33
 370 427 370 427 353 453 c 1,34,35
 338 470 338 470 318 485 c 0,36,37
 314 488 314 488 307 496 c 0,38,39
 291 510 291 510 284 515 c 1,40,41
 245 532 245 532 167 531 c 2,42,-1
 -121 531 l 1,43,-1
 -170 745 l 1,16,-1
EndSplineSet
AlternateSubs2: "gsub_alternate_dfl_aalt_arab_FAR_Lookup_01_Subtable_01" uniFEAC afii57424
Substitution2: "gsub_single_rtl_fina_arab_FAR_Lookup_01_Subtable_01" uniFEAC
EndChar

StartChar: uniFEAC
Encoding: 65196 65196 380
Width: 829
VWidth: 1639
GlyphClass: 2
Flags: HW
AnchorPoint: "GposMark2BaseAnchorClassErabAbove_01_02" 344 1279 basechar 0
AnchorPoint: "GposMark2BaseAnchorClassErabBelow_01_02" 344 -152 basechar 0
LayerCount: 2
Fore
SplineSet
27 1120 m 1,0,1
 91 1129 91 1129 133 1091 c 1,2,3
 180 1045 180 1045 179 975 c 0,4,5
 178 947 178 947 168 930 c 0,6,7
 154 909 154 909 118 902 c 1,8,9
 54 893 54 893 13 930 c 1,10,11
 -32 972 -32 972 -36 1041 c 0,12,13
 -36 1073 -36 1073 -25 1092 c 1,14,15
 -8 1113 -8 1113 27 1120 c 1,0,1
-170 745 m 1,16,-1
 299 745 l 2,17,18
 393 744 393 744 439 727 c 0,19,20
 476 712 476 712 490 697 c 1,21,22
 534 646 534 646 560 535 c 2,23,-1
 628 239 l 1,24,-1
 652 239 l 1,25,-1
 658 213 l 1,26,-1
 808 213 l 1,27,-1
 858 -2 l 1,28,-1
 0 -2 l 1,29,-1
 -49 213 l 1,30,-1
 396 213 l 1,31,-1
 390 239 l 1,32,-1
 414 239 l 1,33,-1
 386 361 l 2,34,35
 370 427 370 427 353 453 c 1,36,37
 338 470 338 470 318 485 c 0,38,39
 314 488 314 488 307 496 c 0,40,41
 291 510 291 510 284 515 c 1,42,43
 245 532 245 532 167 531 c 2,44,-1
 -121 531 l 1,45,-1
 -170 745 l 1,16,-1
EndSplineSet
EndChar

StartChar: afii57425
Encoding: 1585 1585 381
AltUni2: 00fead.ffffffff.0
Width: 493
VWidth: 1639
GlyphClass: 4
Flags: HW
AnchorPoint: "GposMark2BaseAnchorClassErabAbove_01_02" 163.5 895 basechar 0
AnchorPoint: "GposMark2BaseAnchorClassErabBelow_01_02" 163.5 -713 basechar 0
LayerCount: 2
Fore
SplineSet
-29 745 m 1,0,-1
 179 745 l 1,1,-1
 389 -164 l 2,2,3
 393 -183 393 -183 403 -222 c 0,4,5
 439 -363 439 -363 434 -426 c 0,6,7
 428 -488 428 -488 409 -512 c 0,8,9
 368 -562 368 -562 248 -562 c 0,10,11
 240 -562 240 -562 229 -563 c 2,12,-1
 -59 -563 l 1,13,-1
 -112 -335 l 1,14,15
 -83 -335 -83 -335 -26 -334 c 0,16,17
 32 -333 32 -333 60 -333 c 0,18,19
 136 -332 136 -332 158 -308 c 0,20,21
 183 -278 183 -278 189 -253 c 0,22,23
 194 -222 194 -222 177 -148 c 2,24,-1
 145 -10 l 1,25,-1
 -29 745 l 1,0,-1
EndSplineSet
AlternateSubs2: "gsub_alternate_dfl_aalt_arab_FAR_Lookup_01_Subtable_01" uniFEAE afii57425
Substitution2: "gsub_single_rtl_fina_arab_FAR_Lookup_01_Subtable_01" uniFEAE
EndChar

StartChar: uniFEAE
Encoding: 65198 65198 382
Width: 547
VWidth: 1639
GlyphClass: 2
Flags: HW
AnchorPoint: "GposMark2BaseAnchorClassErabAbove_01_02" 254 895 basechar 0
AnchorPoint: "GposMark2BaseAnchorClassErabBelow_01_02" 254 -713 basechar 0
LayerCount: 2
Fore
SplineSet
19 745 m 1,0,-1
 226 745 l 1,1,-1
 343 239 l 1,2,-1
 367 239 l 1,3,-1
 373 213 l 1,4,-1
 527 213 l 1,5,-1
 564 54 l 1,6,-1
 573 15 l 1,7,-1
 573 0 l 1,8,-1
 534 -2 l 1,9,-1
 423 -2 l 1,10,-1
 429 -28 l 1,11,-1
 404 -28 l 1,12,13
 411 -59 411 -59 427 -121 c 0,14,15
 463 -267 463 -267 474 -338 c 0,16,17
 494 -456 494 -456 459 -508 c 1,18,19
 420 -562 420 -562 293 -563 c 2,20,-1
 -12 -563 l 1,21,-1
 -65 -335 l 1,22,23
 -36 -335 -36 -335 21 -334 c 0,24,25
 79 -333 79 -333 107 -333 c 0,26,27
 183 -332 183 -332 205 -308 c 0,28,29
 230 -278 230 -278 237 -253 c 0,30,31
 242 -222 242 -222 225 -148 c 2,32,-1
 193 -10 l 1,33,-1
 19 745 l 1,0,-1
EndSplineSet
EndChar

StartChar: afii57426
Encoding: 1586 1586 383
AltUni2: 00feaf.ffffffff.0
Width: 493
VWidth: 1639
GlyphClass: 2
Flags: HW
AnchorPoint: "GposMark2BaseAnchorClassErabAbove_01_02" 163.5 1279 basechar 0
AnchorPoint: "GposMark2BaseAnchorClassErabBelow_01_02" 163.5 -713 basechar 0
LayerCount: 2
Fore
SplineSet
-33 1120 m 0,0,1
 31 1129 31 1129 73 1091 c 1,2,3
 118 1046 118 1046 119 977 c 0,4,5
 119 947 119 947 107 928 c 0,6,7
 94 908 94 908 59 902 c 1,8,9
 -3 894 -3 894 -45 928 c 1,10,11
 -91 969 -91 969 -95 1040 c 0,12,13
 -96 1074 -96 1074 -83 1094 c 1,14,15
 -66 1114 -66 1114 -33 1120 c 0,0,1
-29 745 m 1,16,-1
 179 745 l 1,17,-1
 389 -164 l 2,18,19
 393 -183 393 -183 403 -222 c 0,20,21
 439 -363 439 -363 434 -426 c 0,22,23
 428 -488 428 -488 409 -512 c 0,24,25
 368 -562 368 -562 248 -562 c 0,26,27
 240 -562 240 -562 229 -563 c 2,28,-1
 -59 -563 l 1,29,-1
 -112 -335 l 1,30,31
 -83 -335 -83 -335 -26 -334 c 0,32,33
 32 -333 32 -333 60 -333 c 0,34,35
 136 -332 136 -332 158 -308 c 0,36,37
 183 -278 183 -278 189 -253 c 0,38,39
 194 -222 194 -222 177 -148 c 2,40,-1
 145 -10 l 1,41,-1
 -29 745 l 1,16,-1
EndSplineSet
AlternateSubs2: "gsub_alternate_dfl_aalt_arab_FAR_Lookup_01_Subtable_01" uniFEB0 afii57426
Substitution2: "gsub_single_rtl_fina_arab_FAR_Lookup_01_Subtable_01" uniFEB0
EndChar

StartChar: uniFEB0
Encoding: 65200 65200 384
Width: 547
VWidth: 1639
GlyphClass: 2
Flags: HW
AnchorPoint: "GposMark2BaseAnchorClassErabAbove_01_02" 254 1279 basechar 0
AnchorPoint: "GposMark2BaseAnchorClassErabBelow_01_02" 254 -713 basechar 0
LayerCount: 2
Fore
SplineSet
5 1120 m 1,0,1
 69 1129 69 1129 111 1092 c 1,2,3
 156 1050 156 1050 159 981 c 0,4,5
 159 948 159 948 147 928 c 1,6,7
 132 908 132 908 100 902 c 1,8,9
 35 893 35 893 -7 930 c 1,10,11
 -54 975 -54 975 -56 1044 c 0,12,13
 -56 1076 -56 1076 -44 1094 c 0,14,15
 -29 1113 -29 1113 5 1120 c 1,0,1
19 745 m 1,16,-1
 226 745 l 1,17,-1
 343 239 l 1,18,-1
 367 239 l 1,19,-1
 373 213 l 1,20,-1
 527 213 l 1,21,-1
 564 54 l 1,22,-1
 573 15 l 1,23,-1
 573 0 l 1,24,-1
 534 -2 l 1,25,-1
 423 -2 l 1,26,-1
 429 -28 l 1,27,-1
 404 -28 l 1,28,29
 411 -59 411 -59 427 -121 c 0,30,31
 463 -267 463 -267 474 -338 c 0,32,33
 494 -456 494 -456 459 -508 c 1,34,35
 420 -562 420 -562 293 -563 c 2,36,-1
 -12 -563 l 1,37,-1
 -65 -335 l 1,38,39
 -36 -335 -36 -335 21 -334 c 0,40,41
 79 -333 79 -333 107 -333 c 0,42,43
 183 -332 183 -332 205 -308 c 0,44,45
 230 -278 230 -278 237 -253 c 0,46,47
 242 -222 242 -222 225 -148 c 2,48,-1
 193 -10 l 1,49,-1
 19 745 l 1,16,-1
EndSplineSet
EndChar

StartChar: afii57427
Encoding: 1587 1587 385
AltUni2: 00feb1.ffffffff.0
Width: 2073
VWidth: 1639
GlyphClass: 2
Flags: HW
AnchorPoint: "GposMark2BaseAnchorClassErabAbove_01_02" 861.5 893 basechar 0
AnchorPoint: "GposMark2BaseAnchorClassErabBelow_01_02" 861.5 -713 basechar 0
LayerCount: 2
Fore
SplineSet
-171 743 m 1,0,-1
 33 743 l 1,1,-1
 171 148 l 1,2,-1
 203 10 l 2,3,4
 230 -104 230 -104 264 -156 c 0,5,6
 293 -198 293 -198 345 -243 c 0,7,8
 414 -302 414 -302 467 -323 c 1,9,10
 578 -365 578 -365 662 -315 c 0,11,12
 665 -313 665 -313 667 -312 c 0,13,14
 697 -291 697 -291 730 -244 c 0,15,16
 764 -194 764 -194 772 -157 c 0,17,18
 783 -104 783 -104 759 0 c 2,19,-1
 726 139 l 1,20,-1
 587 743 l 1,21,-1
 791 743 l 1,22,-1
 908 239 l 1,23,-1
 932 239 l 1,24,-1
 938 213 l 1,25,-1
 1167 213 l 1,26,-1
 1161 239 l 1,27,-1
 1185 239 l 1,28,-1
 1069 743 l 1,29,-1
 1273 743 l 1,30,-1
 1390 239 l 1,31,-1
 1414 239 l 1,32,-1
 1420 213 l 1,33,34
 1533 213 1533 213 1554 215 c 0,35,36
 1598 220 1598 220 1607 225 c 0,37,38
 1617 233 1617 233 1626 251 c 1,39,40
 1645 279 1645 279 1646 279 c 1,41,42
 1654 312 1654 312 1634 395 c 2,43,-1
 1554 743 l 1,44,-1
 1760 743 l 1,45,-1
 1863 295 l 2,46,47
 1894 160 1894 160 1886 106 c 0,48,49
 1881 79 1881 79 1871 59 c 0,50,51
 1856 34 1856 34 1812 16 c 1,52,53
 1759 -2 1759 -2 1631 -2 c 2,54,-1
 988 -2 l 1,55,-1
 994 -28 l 1,56,-1
 969 -28 l 1,57,58
 1015 -229 1015 -229 943 -375 c 0,59,60
 927 -406 927 -406 908 -431 c 0,61,62
 803 -563 803 -563 606 -563 c 0,63,64
 405 -562 405 -562 240 -423 c 0,65,66
 220 -406 220 -406 204 -390 c 0,67,68
 86 -271 86 -271 35 -131 c 0,69,70
 17 -80 17 -80 -23 100 c 0,71,72
 -26 112 -26 112 -27 121 c 2,73,-1
 -171 743 l 1,0,-1
EndSplineSet
AlternateSubs2: "gsub_alternate_dfl_aalt_arab_FAR_Lookup_01_Subtable_01" uniFEB2 uniFEB3 afii57427 uniFEB4
Substitution2: "gsub_single_rtl_fina_arab_FAR_Lookup_01_Subtable_01" uniFEB2
Substitution2: "gsub_single_rtl_init_arab_FAR_Lookup_01_Subtable_01" uniFEB3
Substitution2: "gsub_single_rtl_medi_arab_FAR_Lookup_01_Subtable_01" uniFEB4
EndChar

StartChar: uniFEB2
Encoding: 65202 65202 386
Width: 2080
VWidth: 1639
GlyphClass: 2
Flags: HW
AnchorPoint: "GposMark2BaseAnchorClassErabAbove_01_02" 969 893 basechar 0
AnchorPoint: "GposMark2BaseAnchorClassErabBelow_01_02" 969 -713 basechar 0
LayerCount: 2
Fore
SplineSet
-171 743 m 1,0,-1
 33 743 l 1,1,-1
 171 148 l 1,2,-1
 203 10 l 2,3,4
 230 -104 230 -104 264 -156 c 0,5,6
 293 -198 293 -198 345 -243 c 0,7,8
 414 -302 414 -302 467 -323 c 1,9,10
 578 -365 578 -365 662 -315 c 0,11,12
 665 -313 665 -313 667 -312 c 0,13,14
 697 -291 697 -291 730 -244 c 0,15,16
 764 -194 764 -194 772 -157 c 0,17,18
 783 -104 783 -104 759 0 c 2,19,-1
 726 139 l 1,20,-1
 587 743 l 1,21,-1
 791 743 l 1,22,-1
 908 239 l 1,23,-1
 932 239 l 1,24,-1
 938 213 l 1,25,-1
 1167 213 l 1,26,-1
 1161 239 l 1,27,-1
 1185 239 l 1,28,-1
 1069 743 l 1,29,-1
 1273 743 l 1,30,-1
 1390 239 l 1,31,-1
 1414 239 l 1,32,-1
 1420 213 l 1,33,34
 1533 213 1533 213 1554 215 c 0,35,36
 1598 220 1598 220 1607 225 c 0,37,38
 1617 233 1617 233 1626 251 c 1,39,40
 1645 279 1645 279 1646 279 c 1,41,42
 1654 312 1654 312 1634 395 c 2,43,-1
 1554 743 l 1,44,-1
 1760 743 l 1,45,-1
 1876 239 l 1,46,-1
 1901 239 l 1,47,-1
 1907 213 l 1,48,-1
 2059 213 l 1,49,-1
 2109 -2 l 1,50,-1
 988 -2 l 1,51,-1
 994 -28 l 1,52,-1
 969 -28 l 1,53,54
 1015 -229 1015 -229 943 -375 c 0,55,56
 927 -406 927 -406 908 -431 c 0,57,58
 803 -563 803 -563 606 -563 c 0,59,60
 405 -562 405 -562 240 -423 c 0,61,62
 220 -406 220 -406 204 -390 c 0,63,64
 86 -271 86 -271 35 -131 c 0,65,66
 17 -80 17 -80 -23 100 c 0,67,68
 -26 112 -26 112 -27 121 c 2,69,-1
 -171 743 l 1,0,-1
EndSplineSet
EndChar

StartChar: uniFEB3
Encoding: 65203 65203 387
Width: 1593
VWidth: 1639
GlyphClass: 2
Flags: HW
AnchorPoint: "GposMark2BaseAnchorClassErabAbove_01_02" 669 893 basechar 0
AnchorPoint: "GposMark2BaseAnchorClassErabBelow_01_02" 669 -152 basechar 0
LayerCount: 2
Fore
SplineSet
107 743 m 1,0,-1
 313 743 l 1,1,-1
 430 239 l 1,2,-1
 454 239 l 1,3,-1
 460 213 l 1,4,-1
 687 213 l 1,5,-1
 681 239 l 1,6,-1
 706 239 l 1,7,-1
 589 743 l 1,8,-1
 794 743 l 1,9,-1
 910 239 l 1,10,-1
 934 239 l 1,11,-1
 940 213 l 1,12,-1
 1041 213 l 2,13,14
 1099 214 1099 214 1123 228 c 1,15,16
 1133 236 1133 236 1145 256 c 2,17,-1
 1145 257 l 2,18,19
 1147 260 1147 260 1153 267 c 0,20,21
 1163 280 1163 280 1166 287 c 1,22,23
 1173 331 1173 331 1152 415 c 1,24,-1
 1076 743 l 1,25,-1
 1280 743 l 1,26,-1
 1385 290 l 2,27,28
 1416 156 1416 156 1407 104 c 0,29,30
 1402 78 1402 78 1391 59 c 0,31,32
 1369 21 1369 21 1298 7 c 0,33,34
 1264 -1 1264 -1 1175 -2 c 2,35,-1
 1022 -2 l 1,36,-1
 -29 -2 l 1,37,-1
 -78 213 l 1,38,-1
 205 213 l 1,39,-1
 199 239 l 1,40,-1
 224 239 l 1,41,-1
 107 743 l 1,0,-1
EndSplineSet
EndChar

StartChar: uniFEB4
Encoding: 65204 65204 388
Width: 1623
VWidth: 1639
GlyphClass: 2
Flags: HW
AnchorPoint: "GposMark2BaseAnchorClassErabAbove_01_02" 785.5 895 basechar 0
AnchorPoint: "GposMark2BaseAnchorClassErabBelow_01_02" 785.5 -152 basechar 0
LayerCount: 2
Fore
SplineSet
118 745 m 1,0,-1
 324 745 l 1,1,-1
 440 239 l 1,2,-1
 465 239 l 1,3,-1
 471 213 l 1,4,-1
 698 213 l 1,5,-1
 692 239 l 1,6,-1
 716 239 l 1,7,-1
 600 745 l 1,8,-1
 804 745 l 1,9,-1
 921 239 l 1,10,-1
 945 239 l 1,11,-1
 951 213 l 1,12,-1
 1185 213 l 1,13,-1
 1178 239 l 1,14,-1
 1203 239 l 1,15,-1
 1086 745 l 1,16,-1
 1292 745 l 1,17,-1
 1409 239 l 1,18,-1
 1433 239 l 1,19,-1
 1439 213 l 1,20,-1
 1602 213 l 1,21,-1
 1640 52 l 1,22,-1
 1648 15 l 1,23,-1
 1649 0 l 1,24,-1
 1622 -2 l 1,25,-1
 1548 -2 l 1,26,-1
 1262 -2 l 1,27,-1
 336 -2 l 1,28,-1
 76 -2 l 1,29,-1
 5 -2 l 1,30,-1
 -26 0 l 1,31,-1
 -32 13 l 1,32,-1
 -41 51 l 1,33,-1
 -78 213 l 1,34,-1
 216 213 l 1,35,-1
 210 239 l 1,36,-1
 234 239 l 1,37,-1
 118 745 l 1,0,-1
EndSplineSet
EndChar

StartChar: afii57428
Encoding: 1588 1588 389
AltUni2: 00feb5.ffffffff.0
Width: 2073
VWidth: 1639
GlyphClass: 2
Flags: HW
AnchorPoint: "GposMark2BaseAnchorClassErabAbove_01_02" 861.5 1525 basechar 0
AnchorPoint: "GposMark2BaseAnchorClassErabBelow_01_02" 861.5 -713 basechar 0
LayerCount: 2
Fore
SplineSet
1037 1369 m 1,0,1
 1090 1375 1090 1375 1130 1343 c 0,2,3
 1133 1340 1133 1340 1134 1340 c 0,4,5
 1179 1298 1179 1298 1182 1228 c 0,6,7
 1182 1195 1182 1195 1170 1176 c 1,8,9
 1155 1157 1155 1157 1118 1150 c 1,10,11
 1054 1144 1054 1144 1016 1178 c 1,12,13
 971 1219 971 1219 967 1288 c 0,14,15
 966 1322 966 1322 980 1342 c 0,16,17
 995 1362 995 1362 1037 1369 c 1,0,1
946 1123 m 1,18,19
 1005 1127 1005 1127 1046 1094 c 1,20,21
 1092 1052 1092 1052 1094 982 c 0,22,23
 1094 950 1094 950 1082 932 c 1,24,25
 1066 911 1066 911 1027 904 c 1,26,27
 967 899 967 899 928 932 c 1,28,29
 882 973 882 973 878 1043 c 0,30,31
 877 1076 877 1076 890 1096 c 1,32,33
 906 1116 906 1116 946 1123 c 1,18,19
1234 1123 m 1,34,35
 1294 1128 1294 1128 1334 1094 c 1,36,37
 1380 1052 1380 1052 1382 982 c 0,38,39
 1382 950 1382 950 1370 932 c 1,40,41
 1354 911 1354 911 1316 904 c 1,42,43
 1256 899 1256 899 1216 932 c 1,44,45
 1170 974 1170 974 1168 1045 c 0,46,47
 1168 1077 1168 1077 1178 1096 c 1,48,49
 1194 1116 1194 1116 1234 1123 c 1,34,35
-171 743 m 1,50,-1
 33 743 l 1,51,-1
 171 148 l 1,52,-1
 203 10 l 2,53,54
 230 -104 230 -104 264 -156 c 0,55,56
 293 -198 293 -198 345 -243 c 0,57,58
 414 -302 414 -302 467 -323 c 1,59,60
 578 -365 578 -365 662 -315 c 0,61,62
 665 -313 665 -313 667 -312 c 0,63,64
 697 -291 697 -291 730 -244 c 0,65,66
 764 -194 764 -194 772 -157 c 0,67,68
 783 -104 783 -104 759 0 c 2,69,-1
 726 139 l 1,70,-1
 587 743 l 1,71,-1
 791 743 l 1,72,-1
 908 239 l 1,73,-1
 932 239 l 1,74,-1
 938 213 l 1,75,-1
 1167 213 l 1,76,-1
 1161 239 l 1,77,-1
 1185 239 l 1,78,-1
 1069 743 l 1,79,-1
 1273 743 l 1,80,-1
 1390 239 l 1,81,-1
 1414 239 l 1,82,-1
 1420 213 l 1,83,84
 1533 213 1533 213 1554 215 c 0,85,86
 1598 220 1598 220 1607 225 c 0,87,88
 1617 233 1617 233 1626 251 c 1,89,90
 1645 279 1645 279 1646 279 c 1,91,92
 1654 312 1654 312 1634 395 c 2,93,-1
 1554 743 l 1,94,-1
 1760 743 l 1,95,-1
 1863 295 l 2,96,97
 1894 160 1894 160 1886 106 c 0,98,99
 1881 79 1881 79 1871 59 c 0,100,101
 1856 34 1856 34 1812 16 c 1,102,103
 1759 -2 1759 -2 1631 -2 c 2,104,-1
 988 -2 l 1,105,-1
 994 -28 l 1,106,-1
 969 -28 l 1,107,108
 1015 -229 1015 -229 943 -375 c 0,109,110
 927 -406 927 -406 908 -431 c 0,111,112
 803 -563 803 -563 606 -563 c 0,113,114
 405 -562 405 -562 240 -423 c 0,115,116
 220 -406 220 -406 204 -390 c 0,117,118
 86 -271 86 -271 35 -131 c 0,119,120
 17 -80 17 -80 -23 100 c 0,121,122
 -26 112 -26 112 -27 121 c 2,123,-1
 -171 743 l 1,50,-1
EndSplineSet
AlternateSubs2: "gsub_alternate_dfl_aalt_arab_FAR_Lookup_01_Subtable_01" uniFEB6 uniFEB7 afii57428 uniFEB8
Substitution2: "gsub_single_rtl_fina_arab_FAR_Lookup_01_Subtable_01" uniFEB6
Substitution2: "gsub_single_rtl_init_arab_FAR_Lookup_01_Subtable_01" uniFEB7
Substitution2: "gsub_single_rtl_medi_arab_FAR_Lookup_01_Subtable_01" uniFEB8
EndChar

StartChar: uniFEB6
Encoding: 65206 65206 390
Width: 2078
VWidth: 1639
GlyphClass: 2
Flags: HW
AnchorPoint: "GposMark2BaseAnchorClassErabAbove_01_02" 968 1525 basechar 0
AnchorPoint: "GposMark2BaseAnchorClassErabBelow_01_02" 968 -713 basechar 0
LayerCount: 2
Fore
SplineSet
1037 1369 m 1,0,1
 1090 1375 1090 1375 1130 1343 c 0,2,3
 1133 1340 1133 1340 1134 1340 c 0,4,5
 1179 1298 1179 1298 1182 1228 c 0,6,7
 1182 1195 1182 1195 1170 1176 c 1,8,9
 1155 1157 1155 1157 1118 1150 c 1,10,11
 1054 1144 1054 1144 1016 1178 c 1,12,13
 971 1219 971 1219 967 1288 c 0,14,15
 966 1322 966 1322 980 1342 c 0,16,17
 995 1362 995 1362 1037 1369 c 1,0,1
946 1123 m 1,18,19
 1005 1127 1005 1127 1046 1094 c 1,20,21
 1092 1052 1092 1052 1094 982 c 0,22,23
 1094 950 1094 950 1082 932 c 1,24,25
 1066 911 1066 911 1027 904 c 1,26,27
 967 899 967 899 928 932 c 1,28,29
 882 973 882 973 878 1043 c 0,30,31
 877 1076 877 1076 890 1096 c 1,32,33
 906 1116 906 1116 946 1123 c 1,18,19
1234 1123 m 1,34,35
 1294 1128 1294 1128 1334 1094 c 1,36,37
 1380 1052 1380 1052 1382 982 c 0,38,39
 1382 950 1382 950 1370 932 c 1,40,41
 1354 911 1354 911 1316 904 c 1,42,43
 1256 899 1256 899 1216 932 c 1,44,45
 1170 974 1170 974 1168 1045 c 0,46,47
 1168 1077 1168 1077 1178 1096 c 1,48,49
 1194 1116 1194 1116 1234 1123 c 1,34,35
-171 743 m 1,50,-1
 33 743 l 1,51,-1
 171 148 l 1,52,-1
 203 10 l 2,53,54
 230 -104 230 -104 264 -156 c 0,55,56
 293 -198 293 -198 345 -243 c 0,57,58
 414 -302 414 -302 467 -323 c 1,59,60
 578 -365 578 -365 662 -315 c 0,61,62
 665 -313 665 -313 667 -312 c 0,63,64
 697 -291 697 -291 730 -244 c 0,65,66
 764 -194 764 -194 772 -157 c 0,67,68
 783 -104 783 -104 759 0 c 2,69,-1
 726 139 l 1,70,-1
 587 743 l 1,71,-1
 791 743 l 1,72,-1
 908 239 l 1,73,-1
 932 239 l 1,74,-1
 938 213 l 1,75,-1
 1167 213 l 1,76,-1
 1161 239 l 1,77,-1
 1185 239 l 1,78,-1
 1069 743 l 1,79,-1
 1273 743 l 1,80,-1
 1390 239 l 1,81,-1
 1414 239 l 1,82,-1
 1420 213 l 1,83,84
 1533 213 1533 213 1554 215 c 0,85,86
 1598 220 1598 220 1607 225 c 0,87,88
 1617 233 1617 233 1626 251 c 1,89,90
 1645 279 1645 279 1646 279 c 1,91,92
 1654 312 1654 312 1634 395 c 2,93,-1
 1554 743 l 1,94,-1
 1760 743 l 1,95,-1
 1876 239 l 1,96,-1
 1901 239 l 1,97,-1
 1907 213 l 1,98,-1
 2058 213 l 1,99,-1
 2107 -2 l 1,100,-1
 988 -2 l 1,101,-1
 994 -28 l 1,102,-1
 969 -28 l 1,103,104
 1015 -229 1015 -229 943 -375 c 0,105,106
 927 -406 927 -406 908 -431 c 0,107,108
 803 -563 803 -563 606 -563 c 0,109,110
 405 -562 405 -562 240 -423 c 0,111,112
 220 -406 220 -406 204 -390 c 0,113,114
 86 -271 86 -271 35 -131 c 0,115,116
 17 -80 17 -80 -23 100 c 0,117,118
 -26 112 -26 112 -27 121 c 2,119,-1
 -171 743 l 1,50,-1
EndSplineSet
EndChar

StartChar: uniFEB7
Encoding: 65207 65207 391
Width: 1593
VWidth: 1639
GlyphClass: 2
Flags: HW
AnchorPoint: "GposMark2BaseAnchorClassErabAbove_01_02" 669 1527 basechar 0
AnchorPoint: "GposMark2BaseAnchorClassErabBelow_01_02" 669 -152 basechar 0
LayerCount: 2
Fore
SplineSet
536 1371 m 1,0,1
 580 1377 580 1377 620 1347 c 0,2,3
 624 1343 624 1343 627 1342 c 0,4,5
 672 1300 672 1300 676 1230 c 0,6,7
 677 1197 677 1197 664 1178 c 1,8,9
 649 1159 649 1159 614 1151 c 1,10,11
 557 1143 557 1143 512 1178 c 1,12,13
 467 1214 467 1214 461 1285 c 0,14,15
 459 1322 459 1322 472 1343 c 1,16,17
 486 1361 486 1361 536 1371 c 1,0,1
443 1125 m 1,18,19
 496 1129 496 1129 537 1097 c 1,20,21
 586 1054 586 1054 587 983 c 0,22,23
 587 950 587 950 575 932 c 1,24,25
 558 912 558 912 523 905 c 1,26,27
 462 900 462 900 422 932 c 1,28,29
 376 973 376 973 373 1043 c 0,30,31
 372 1077 372 1077 384 1097 c 1,32,33
 400 1118 400 1118 443 1125 c 1,18,19
732 1125 m 0,34,35
 782 1131 782 1131 820 1101 c 0,36,37
 824 1097 824 1097 827 1096 c 0,38,39
 873 1054 873 1054 876 984 c 0,40,41
 876 952 876 952 864 933 c 0,42,43
 850 912 850 912 813 905 c 1,44,45
 751 899 751 899 711 932 c 1,46,47
 665 973 665 973 661 1043 c 0,48,49
 660 1077 660 1077 672 1097 c 1,50,51
 689 1118 689 1118 732 1125 c 0,34,35
107 743 m 1,52,-1
 313 743 l 1,53,-1
 430 239 l 1,54,-1
 454 239 l 1,55,-1
 460 213 l 1,56,-1
 687 213 l 1,57,-1
 681 239 l 1,58,-1
 706 239 l 1,59,-1
 589 743 l 1,60,-1
 794 743 l 1,61,-1
 910 239 l 1,62,-1
 934 239 l 1,63,-1
 940 213 l 1,64,-1
 1041 213 l 2,65,66
 1099 214 1099 214 1123 228 c 1,67,68
 1133 236 1133 236 1145 256 c 2,69,-1
 1145 257 l 2,70,71
 1147 260 1147 260 1153 267 c 0,72,73
 1163 280 1163 280 1166 287 c 1,74,75
 1173 331 1173 331 1152 415 c 1,76,-1
 1076 743 l 1,77,-1
 1280 743 l 1,78,-1
 1385 290 l 2,79,80
 1416 156 1416 156 1407 104 c 0,81,82
 1402 78 1402 78 1391 59 c 0,83,84
 1369 21 1369 21 1298 7 c 0,85,86
 1264 -1 1264 -1 1175 -2 c 2,87,-1
 1022 -2 l 1,88,-1
 -29 -2 l 1,89,-1
 -78 213 l 1,90,-1
 205 213 l 1,91,-1
 199 239 l 1,92,-1
 224 239 l 1,93,-1
 107 743 l 1,52,-1
EndSplineSet
EndChar

StartChar: uniFEB8
Encoding: 65208 65208 392
Width: 1622
VWidth: 1639
GlyphClass: 2
Flags: HW
AnchorPoint: "GposMark2BaseAnchorClassErabAbove_01_02" 786.5 1527 basechar 0
AnchorPoint: "GposMark2BaseAnchorClassErabBelow_01_02" 786.5 -152 basechar 0
LayerCount: 2
Fore
SplineSet
536 1371 m 1,0,1
 580 1377 580 1377 620 1347 c 0,2,3
 624 1343 624 1343 627 1342 c 0,4,5
 672 1300 672 1300 676 1230 c 0,6,7
 677 1197 677 1197 664 1178 c 1,8,9
 649 1159 649 1159 614 1151 c 1,10,11
 557 1143 557 1143 512 1178 c 1,12,13
 467 1214 467 1214 461 1285 c 0,14,15
 459 1322 459 1322 472 1343 c 1,16,17
 486 1361 486 1361 536 1371 c 1,0,1
443 1125 m 1,18,19
 496 1129 496 1129 537 1097 c 1,20,21
 586 1054 586 1054 587 983 c 0,22,23
 587 950 587 950 575 932 c 1,24,25
 558 912 558 912 523 905 c 1,26,27
 462 900 462 900 422 932 c 1,28,29
 376 973 376 973 373 1043 c 0,30,31
 372 1077 372 1077 384 1097 c 1,32,33
 400 1118 400 1118 443 1125 c 1,18,19
732 1125 m 0,34,35
 782 1131 782 1131 820 1101 c 0,36,37
 824 1097 824 1097 827 1096 c 0,38,39
 873 1054 873 1054 876 984 c 0,40,41
 876 952 876 952 864 933 c 0,42,43
 850 912 850 912 813 905 c 1,44,45
 751 899 751 899 711 932 c 1,46,47
 665 973 665 973 661 1043 c 0,48,49
 660 1077 660 1077 672 1097 c 1,50,51
 689 1118 689 1118 732 1125 c 0,34,35
118 745 m 1,52,-1
 324 745 l 1,53,-1
 440 239 l 1,54,-1
 465 239 l 1,55,-1
 471 213 l 1,56,-1
 698 213 l 1,57,-1
 692 239 l 1,58,-1
 716 239 l 1,59,-1
 600 745 l 1,60,-1
 804 745 l 1,61,-1
 921 239 l 1,62,-1
 945 239 l 1,63,-1
 951 213 l 1,64,-1
 1185 213 l 1,65,-1
 1178 239 l 1,66,-1
 1203 239 l 1,67,-1
 1086 745 l 1,68,-1
 1292 745 l 1,69,-1
 1409 239 l 1,70,-1
 1433 239 l 1,71,-1
 1439 213 l 1,72,-1
 1601 213 l 1,73,-1
 1651 -2 l 1,74,-1
 407 -2 l 1,75,-1
 87 -2 l 1,76,-1
 5 -2 l 1,77,-1
 -26 0 l 1,78,-1
 -33 15 l 1,79,-1
 -41 52 l 1,80,-1
 -78 213 l 1,81,-1
 216 213 l 1,82,-1
 210 239 l 1,83,-1
 234 239 l 1,84,-1
 118 745 l 1,52,-1
EndSplineSet
EndChar

StartChar: sadarabic
Encoding: 1589 1589 393
AltUni2: 00feb9.ffffffff.0
Width: 2164
VWidth: 1639
GlyphClass: 2
Flags: HW
AnchorPoint: "GposMark2BaseAnchorClassErabAbove_01_02" 925.5 895 basechar 0
AnchorPoint: "GposMark2BaseAnchorClassErabBelow_01_02" 925.5 -717 basechar 0
LayerCount: 2
Fore
SplineSet
-172 745 m 1,0,-1
 33 745 l 1,1,-1
 173 138 l 1,2,-1
 206 -8 l 2,3,4
 231 -112 231 -112 262 -157 c 0,5,6
 341 -277 341 -277 463 -325 c 0,7,8
 577 -370 577 -370 663 -321 c 0,9,10
 695 -302 695 -302 728 -254 c 0,11,12
 761 -205 761 -205 770 -175 c 0,13,14
 788 -103 788 -103 746 54 c 0,15,16
 731 113 731 113 726 131 c 2,17,-1
 585 745 l 1,18,-1
 795 745 l 1,19,-1
 809 684 l 1,20,-1
 834 684 l 1,21,-1
 840 658 l 1,22,-1
 1573 658 l 2,23,24
 1589 658 1589 658 1623 659 c 0,25,26
 1726 662 1726 662 1777 648 c 0,27,28
 1828 633 1828 633 1847 613 c 0,29,30
 1893 567 1893 567 1920 446 c 0,31,32
 1925 424 1925 424 1926 418 c 2,33,-1
 2023 -2 l 1,34,-1
 992 -2 l 1,35,-1
 998 -28 l 1,36,-1
 974 -28 l 1,37,38
 1023 -242 1023 -242 944 -388 c 0,39,40
 932 -410 932 -410 918 -428 c 0,41,42
 816 -561 816 -561 617 -564 c 0,43,44
 417 -567 417 -567 252 -435 c 0,45,46
 226 -414 226 -414 203 -392 c 0,47,48
 86 -276 86 -276 31 -120 c 1,49,50
 17 -74 17 -74 -27 116 c 2,51,-1
 -172 745 l 1,0,-1
1757 239 m 1,52,53
 1737 324 1737 324 1728 343 c 0,54,55
 1720 359 1720 359 1711 371 c 0,56,57
 1701 382 1701 382 1678 402 c 0,58,59
 1650 426 1650 426 1646 428 c 0,60,61
 1613 444 1613 444 1546 444 c 2,62,-1
 1417 444 l 1,63,-1
 889 444 l 1,64,-1
 895 418 l 1,65,-1
 871 418 l 1,66,-1
 912 239 l 1,67,-1
 936 239 l 1,68,-1
 942 213 l 1,69,-1
 1738 213 l 1,70,-1
 1732 239 l 1,71,-1
 1757 239 l 1,52,53
EndSplineSet
AlternateSubs2: "gsub_alternate_dfl_aalt_arab_FAR_Lookup_01_Subtable_01" uniFEBA uniFEBB sadarabic uniFEBC
Substitution2: "gsub_single_rtl_fina_arab_FAR_Lookup_01_Subtable_01" uniFEBA
Substitution2: "gsub_single_rtl_init_arab_FAR_Lookup_01_Subtable_01" uniFEBB
Substitution2: "gsub_single_rtl_medi_arab_FAR_Lookup_01_Subtable_01" uniFEBC
EndChar

StartChar: uniFEBA
Encoding: 65210 65210 394
Width: 2168
VWidth: 1639
GlyphClass: 2
Flags: HW
AnchorPoint: "GposMark2BaseAnchorClassErabAbove_01_02" 1012.5 895 basechar 0
AnchorPoint: "GposMark2BaseAnchorClassErabBelow_01_02" 1012.5 -717 basechar 0
LayerCount: 2
Fore
SplineSet
-172 745 m 1,0,-1
 33 745 l 1,1,-1
 173 138 l 2,2,3
 178 117 178 117 186 73 c 0,4,5
 218 -89 218 -89 262 -160 c 0,6,7
 265 -165 265 -165 268 -169 c 0,8,9
 297 -209 297 -209 349 -254 c 0,10,11
 414 -309 414 -309 459 -328 c 0,12,13
 572 -374 572 -374 658 -325 c 0,14,15
 662 -323 662 -323 665 -321 c 0,16,17
 695 -302 695 -302 727 -256 c 0,18,19
 759 -209 759 -209 769 -171 c 0,20,21
 781 -112 781 -112 756 -3 c 2,22,-1
 724 133 l 1,23,-1
 583 745 l 1,24,-1
 795 745 l 1,25,-1
 809 684 l 1,26,-1
 834 684 l 1,27,-1
 840 658 l 1,28,-1
 1569 658 l 2,29,30
 1585 658 1585 658 1617 658 c 0,31,32
 1715 660 1715 660 1764 651 c 0,33,34
 1817 640 1817 640 1845 615 c 1,35,36
 1880 580 1880 580 1904 505 c 0,37,38
 1918 463 1918 463 1962 262 c 0,39,40
 1965 249 1965 249 1967 239 c 1,41,-1
 1992 239 l 1,42,-1
 1998 213 l 1,43,-1
 2147 213 l 1,44,-1
 2197 -2 l 1,45,-1
 992 -2 l 1,46,-1
 998 -28 l 1,47,-1
 974 -28 l 1,48,49
 1023 -242 1023 -242 944 -388 c 0,50,51
 932 -410 932 -410 918 -428 c 0,52,53
 816 -561 816 -561 617 -564 c 0,54,55
 417 -567 417 -567 252 -435 c 0,56,57
 226 -414 226 -414 203 -392 c 0,58,59
 86 -276 86 -276 31 -120 c 1,60,61
 17 -74 17 -74 -27 116 c 2,62,-1
 -172 745 l 1,0,-1
1757 239 m 1,63,64
 1737 324 1737 324 1728 343 c 0,65,66
 1720 359 1720 359 1711 371 c 0,67,68
 1701 382 1701 382 1678 402 c 0,69,70
 1650 426 1650 426 1646 428 c 0,71,72
 1613 444 1613 444 1546 444 c 2,73,-1
 1417 444 l 1,74,-1
 889 444 l 1,75,-1
 895 418 l 1,76,-1
 871 418 l 1,77,-1
 912 239 l 1,78,-1
 936 239 l 1,79,-1
 942 213 l 1,80,-1
 1738 213 l 1,81,-1
 1732 239 l 1,82,-1
 1757 239 l 1,63,64
EndSplineSet
EndChar

StartChar: uniFEBB
Encoding: 65211 65211 395
Width: 1687
VWidth: 1639
GlyphClass: 2
Flags: HW
AnchorPoint: "GposMark2BaseAnchorClassErabAbove_01_02" 733.5 895 basechar 0
AnchorPoint: "GposMark2BaseAnchorClassErabBelow_01_02" 733.5 -152 basechar 0
LayerCount: 2
Fore
SplineSet
107 745 m 1,0,-1
 313 745 l 1,1,-1
 327 684 l 1,2,-1
 351 684 l 1,3,-1
 357 658 l 1,4,-1
 1096 658 l 2,5,6
 1112 658 1112 658 1144 659 c 0,7,8
 1245 662 1245 662 1294 649 c 1,9,10
 1350 633 1350 633 1372 612 c 0,11,12
 1417 567 1417 567 1441 452 c 0,13,14
 1447 426 1447 426 1448 418 c 2,15,-1
 1545 -2 l 1,16,-1
 -29 -2 l 1,17,-1
 -78 213 l 1,18,-1
 205 213 l 1,19,-1
 199 239 l 1,20,-1
 224 239 l 1,21,-1
 107 745 l 1,0,-1
1275 239 m 1,22,23
 1255 324 1255 324 1247 341 c 0,24,25
 1239 356 1239 356 1231 367 c 0,26,27
 1223 377 1223 377 1194 402 c 0,28,29
 1163 428 1163 428 1160 430 c 0,30,31
 1129 445 1129 445 1066 444 c 2,32,-1
 933 444 l 1,33,-1
 407 444 l 1,34,-1
 413 418 l 1,35,-1
 388 418 l 1,36,-1
 430 239 l 1,37,-1
 454 239 l 1,38,-1
 460 213 l 1,39,-1
 1256 213 l 1,40,-1
 1250 239 l 1,41,-1
 1275 239 l 1,22,23
EndSplineSet
EndChar

StartChar: uniFEBC
Encoding: 65212 65212 396
Width: 1689
VWidth: 1639
GlyphClass: 2
Flags: HW
AnchorPoint: "GposMark2BaseAnchorClassErabAbove_01_02" 818 895 basechar 0
AnchorPoint: "GposMark2BaseAnchorClassErabBelow_01_02" 818 -152 basechar 0
LayerCount: 2
Fore
SplineSet
107 745 m 1,0,-1
 313 745 l 1,1,-1
 327 684 l 1,2,-1
 351 684 l 1,3,-1
 357 658 l 1,4,-1
 1090 658 l 2,5,6
 1107 658 1107 658 1140 659 c 0,7,8
 1238 662 1238 662 1286 651 c 1,9,10
 1342 636 1342 636 1366 615 c 1,11,12
 1411 570 1411 570 1434 472 c 2,13,-1
 1488 239 l 1,14,-1
 1512 239 l 1,15,-1
 1519 213 l 1,16,-1
 1668 213 l 1,17,-1
 1705 52 l 1,18,-1
 1714 15 l 1,19,-1
 1714 0 l 1,20,-1
 1684 -2 l 1,21,-1
 1597 -2 l 1,22,-1
 1265 -2 l 1,23,-1
 -29 -2 l 1,24,-1
 -78 213 l 1,25,-1
 205 213 l 1,26,-1
 199 239 l 1,27,-1
 224 239 l 1,28,-1
 107 745 l 1,0,-1
1275 239 m 1,29,30
 1255 324 1255 324 1247 341 c 0,31,32
 1239 356 1239 356 1231 367 c 0,33,34
 1223 377 1223 377 1194 402 c 0,35,36
 1163 428 1163 428 1160 430 c 0,37,38
 1129 445 1129 445 1066 444 c 2,39,-1
 933 444 l 1,40,-1
 407 444 l 1,41,-1
 413 418 l 1,42,-1
 388 418 l 1,43,-1
 430 239 l 1,44,-1
 454 239 l 1,45,-1
 460 213 l 1,46,-1
 1256 213 l 1,47,-1
 1250 239 l 1,48,-1
 1275 239 l 1,29,30
EndSplineSet
EndChar

StartChar: afii57430
Encoding: 1590 1590 397
AltUni2: 00febd.ffffffff.0
Width: 2164
VWidth: 1639
GlyphClass: 2
Flags: HW
AnchorPoint: "GposMark2BaseAnchorClassErabAbove_01_02" 925.5 1278 basechar 0
AnchorPoint: "GposMark2BaseAnchorClassErabBelow_01_02" 925.5 -717 basechar 0
LayerCount: 2
Fore
SplineSet
1118 1123 m 1,0,1
 1176 1128 1176 1128 1216 1096 c 1,2,3
 1262 1054 1262 1054 1264 982 c 0,4,5
 1264 950 1264 950 1254 932 c 1,6,7
 1238 911 1238 911 1199 904 c 1,8,9
 1139 899 1139 899 1101 932 c 0,10,11
 1055 971 1055 971 1051 1041 c 0,12,13
 1049 1075 1049 1075 1062 1096 c 0,14,15
 1076 1116 1076 1116 1118 1123 c 1,0,1
-172 745 m 1,16,-1
 33 745 l 1,17,-1
 173 138 l 1,18,-1
 206 -8 l 2,19,20
 231 -112 231 -112 262 -157 c 0,21,22
 341 -277 341 -277 463 -325 c 0,23,24
 577 -370 577 -370 663 -321 c 0,25,26
 695 -302 695 -302 728 -254 c 0,27,28
 761 -205 761 -205 770 -175 c 0,29,30
 788 -103 788 -103 746 54 c 0,31,32
 731 113 731 113 726 131 c 2,33,-1
 585 745 l 1,34,-1
 795 745 l 1,35,-1
 809 684 l 1,36,-1
 834 684 l 1,37,-1
 840 658 l 1,38,-1
 1573 658 l 2,39,40
 1589 658 1589 658 1623 659 c 0,41,42
 1726 662 1726 662 1777 648 c 0,43,44
 1828 633 1828 633 1847 613 c 0,45,46
 1893 567 1893 567 1920 446 c 0,47,48
 1925 424 1925 424 1926 418 c 2,49,-1
 2023 -2 l 1,50,-1
 992 -2 l 1,51,-1
 998 -28 l 1,52,-1
 974 -28 l 1,53,54
 1023 -242 1023 -242 944 -388 c 0,55,56
 932 -410 932 -410 918 -428 c 0,57,58
 816 -561 816 -561 617 -564 c 0,59,60
 417 -567 417 -567 252 -435 c 0,61,62
 226 -414 226 -414 203 -392 c 0,63,64
 86 -276 86 -276 31 -120 c 1,65,66
 17 -74 17 -74 -27 116 c 2,67,-1
 -172 745 l 1,16,-1
1757 239 m 1,68,69
 1737 324 1737 324 1728 343 c 0,70,71
 1720 359 1720 359 1711 371 c 0,72,73
 1701 382 1701 382 1678 402 c 0,74,75
 1650 426 1650 426 1646 428 c 0,76,77
 1613 444 1613 444 1546 444 c 2,78,-1
 1417 444 l 1,79,-1
 889 444 l 1,80,-1
 895 418 l 1,81,-1
 871 418 l 1,82,-1
 912 239 l 1,83,-1
 936 239 l 1,84,-1
 942 213 l 1,85,-1
 1738 213 l 1,86,-1
 1732 239 l 1,87,-1
 1757 239 l 1,68,69
EndSplineSet
AlternateSubs2: "gsub_alternate_dfl_aalt_arab_FAR_Lookup_01_Subtable_01" uniFEBE uniFEBF afii57430 uniFEC0
Substitution2: "gsub_single_rtl_fina_arab_FAR_Lookup_01_Subtable_01" uniFEBE
Substitution2: "gsub_single_rtl_init_arab_FAR_Lookup_01_Subtable_01" uniFEBF
Substitution2: "gsub_single_rtl_medi_arab_FAR_Lookup_01_Subtable_01" uniFEC0
EndChar

StartChar: uniFEBE
Encoding: 65214 65214 398
Width: 2173
VWidth: 1639
GlyphClass: 2
Flags: HW
AnchorPoint: "GposMark2BaseAnchorClassErabAbove_01_02" 1014.5 1273 basechar 0
AnchorPoint: "GposMark2BaseAnchorClassErabBelow_01_02" 1014.5 -717 basechar 0
LayerCount: 2
Fore
SplineSet
1116 1117 m 1,0,1
 1179 1123 1179 1123 1219 1087 c 1,2,3
 1264 1044 1264 1044 1267 976 c 0,4,5
 1267 944 1267 944 1255 925 c 1,6,7
 1240 906 1240 906 1206 899 c 1,8,9
 1143 890 1143 890 1101 925 c 1,10,11
 1054 967 1054 967 1052 1038 c 0,12,13
 1052 1070 1052 1070 1063 1089 c 0,14,15
 1077 1110 1077 1110 1116 1117 c 1,0,1
-172 745 m 1,16,-1
 33 745 l 1,17,-1
 173 138 l 2,18,19
 178 117 178 117 186 73 c 0,20,21
 218 -89 218 -89 262 -160 c 0,22,23
 265 -165 265 -165 268 -169 c 0,24,25
 297 -209 297 -209 349 -254 c 0,26,27
 414 -309 414 -309 459 -328 c 0,28,29
 572 -374 572 -374 658 -325 c 0,30,31
 662 -323 662 -323 665 -321 c 0,32,33
 695 -302 695 -302 727 -256 c 0,34,35
 759 -209 759 -209 769 -171 c 0,36,37
 781 -112 781 -112 756 -3 c 2,38,-1
 724 133 l 1,39,-1
 583 745 l 1,40,-1
 795 745 l 1,41,-1
 809 684 l 1,42,-1
 834 684 l 1,43,-1
 840 658 l 1,44,-1
 1569 658 l 2,45,46
 1585 658 1585 658 1617 658 c 0,47,48
 1715 660 1715 660 1764 651 c 0,49,50
 1817 640 1817 640 1845 615 c 1,51,52
 1880 580 1880 580 1904 505 c 0,53,54
 1918 463 1918 463 1962 262 c 0,55,56
 1965 249 1965 249 1967 239 c 1,57,-1
 1992 239 l 1,58,-1
 1998 213 l 1,59,-1
 2152 213 l 1,60,-1
 2201 0 l 1,61,62
 2169 -4 2169 -4 2069 -2 c 1,63,-1
 1808 -2 l 1,64,-1
 992 -2 l 1,65,-1
 998 -28 l 1,66,-1
 974 -28 l 1,67,68
 1023 -242 1023 -242 944 -388 c 0,69,70
 932 -410 932 -410 918 -428 c 0,71,72
 816 -561 816 -561 617 -564 c 0,73,74
 417 -567 417 -567 252 -435 c 0,75,76
 226 -414 226 -414 203 -392 c 0,77,78
 86 -276 86 -276 31 -120 c 1,79,80
 17 -74 17 -74 -27 116 c 2,81,-1
 -172 745 l 1,16,-1
1757 239 m 1,82,83
 1737 324 1737 324 1728 343 c 0,84,85
 1720 359 1720 359 1711 371 c 0,86,87
 1701 382 1701 382 1678 402 c 0,88,89
 1650 426 1650 426 1646 428 c 0,90,91
 1613 444 1613 444 1546 444 c 2,92,-1
 1417 444 l 1,93,-1
 889 444 l 1,94,-1
 895 418 l 1,95,-1
 871 418 l 1,96,-1
 912 239 l 1,97,-1
 936 239 l 1,98,-1
 942 213 l 1,99,-1
 1738 213 l 1,100,-1
 1732 239 l 1,101,-1
 1757 239 l 1,82,83
EndSplineSet
EndChar

StartChar: uniFEBF
Encoding: 65215 65215 399
Width: 1687
VWidth: 1639
GlyphClass: 2
Flags: HW
AnchorPoint: "GposMark2BaseAnchorClassErabAbove_01_02" 733.5 1281 basechar 0
AnchorPoint: "GposMark2BaseAnchorClassErabBelow_01_02" 733.5 -152 basechar 0
LayerCount: 2
Fore
SplineSet
674 1125 m 0,0,1
 723 1131 723 1131 763 1100 c 0,2,3
 767 1097 767 1097 769 1096 c 0,4,5
 814 1054 814 1054 817 984 c 0,6,7
 817 951 817 951 805 932 c 1,8,9
 788 912 788 912 753 905 c 1,10,11
 691 899 691 899 653 932 c 1,12,13
 607 973 607 973 602 1042 c 0,14,15
 601 1078 601 1078 614 1097 c 1,16,17
 633 1119 633 1119 674 1125 c 0,0,1
107 745 m 1,18,-1
 313 745 l 1,19,-1
 327 684 l 1,20,-1
 351 684 l 1,21,-1
 357 658 l 1,22,-1
 1096 658 l 2,23,24
 1112 658 1112 658 1144 659 c 0,25,26
 1245 662 1245 662 1294 649 c 1,27,28
 1350 633 1350 633 1372 612 c 0,29,30
 1417 567 1417 567 1441 452 c 0,31,32
 1447 426 1447 426 1448 418 c 2,33,-1
 1545 -2 l 1,34,-1
 -29 -2 l 1,35,-1
 -78 213 l 1,36,-1
 205 213 l 1,37,-1
 199 239 l 1,38,-1
 224 239 l 1,39,-1
 107 745 l 1,18,-1
1275 239 m 1,40,41
 1255 324 1255 324 1247 341 c 0,42,43
 1239 356 1239 356 1231 367 c 0,44,45
 1223 377 1223 377 1194 402 c 0,46,47
 1163 428 1163 428 1160 430 c 0,48,49
 1129 445 1129 445 1066 444 c 2,50,-1
 933 444 l 1,51,-1
 407 444 l 1,52,-1
 413 418 l 1,53,-1
 388 418 l 1,54,-1
 430 239 l 1,55,-1
 454 239 l 1,56,-1
 460 213 l 1,57,-1
 1256 213 l 1,58,-1
 1250 239 l 1,59,-1
 1275 239 l 1,40,41
EndSplineSet
EndChar

StartChar: uniFEC0
Encoding: 65216 65216 400
Width: 1687
VWidth: 1639
GlyphClass: 2
Flags: HW
AnchorPoint: "GposMark2BaseAnchorClassErabAbove_01_02" 819 1281 basechar 0
AnchorPoint: "GposMark2BaseAnchorClassErabBelow_01_02" 819 -152 basechar 0
LayerCount: 2
Fore
SplineSet
674 1125 m 0,0,1
 723 1131 723 1131 763 1100 c 0,2,3
 767 1097 767 1097 769 1096 c 0,4,5
 814 1054 814 1054 817 984 c 0,6,7
 817 951 817 951 805 932 c 1,8,9
 788 912 788 912 753 905 c 1,10,11
 691 899 691 899 653 932 c 1,12,13
 607 973 607 973 602 1042 c 0,14,15
 601 1078 601 1078 614 1097 c 1,16,17
 633 1119 633 1119 674 1125 c 0,0,1
107 745 m 1,18,-1
 313 745 l 1,19,-1
 327 684 l 1,20,-1
 351 684 l 1,21,-1
 357 658 l 1,22,-1
 1090 658 l 2,23,24
 1107 658 1107 658 1140 659 c 0,25,26
 1238 662 1238 662 1286 651 c 1,27,28
 1342 636 1342 636 1366 615 c 1,29,30
 1411 570 1411 570 1434 472 c 2,31,-1
 1488 239 l 1,32,-1
 1512 239 l 1,33,-1
 1519 213 l 1,34,-1
 1666 213 l 1,35,-1
 1716 -2 l 1,36,-1
 -29 -2 l 1,37,-1
 -78 213 l 1,38,-1
 205 213 l 1,39,-1
 199 239 l 1,40,-1
 224 239 l 1,41,-1
 107 745 l 1,18,-1
1275 239 m 1,42,43
 1255 324 1255 324 1247 341 c 0,44,45
 1239 356 1239 356 1231 367 c 0,46,47
 1223 377 1223 377 1194 402 c 0,48,49
 1163 428 1163 428 1160 430 c 0,50,51
 1129 445 1129 445 1066 444 c 2,52,-1
 933 444 l 1,53,-1
 407 444 l 1,54,-1
 413 418 l 1,55,-1
 388 418 l 1,56,-1
 430 239 l 1,57,-1
 454 239 l 1,58,-1
 460 213 l 1,59,-1
 1256 213 l 1,60,-1
 1250 239 l 1,61,-1
 1275 239 l 1,42,43
EndSplineSet
EndChar

StartChar: afii57431
Encoding: 1591 1591 401
AltUni2: 00fec1.ffffffff.0
Width: 1612
VWidth: 1639
GlyphClass: 2
Flags: HW
AnchorPoint: "GposMark2BaseAnchorClassErabAbove_01_02" 680.5 1506 basechar 0
AnchorPoint: "GposMark2BaseAnchorClassErabBelow_01_02" 680.5 -154 basechar 0
LayerCount: 2
Fore
SplineSet
-110 1356 m 1,0,-1
 96 1356 l 1,1,-1
 251 684 l 1,2,-1
 275 684 l 1,3,-1
 281 658 l 1,4,-1
 1020 658 l 2,5,6
 1036 658 1036 658 1069 659 c 0,7,8
 1173 662 1173 662 1223 648 c 0,9,10
 1277 631 1277 631 1295 613 c 0,11,12
 1341 567 1341 567 1367 446 c 0,13,14
 1372 424 1372 424 1374 418 c 2,15,-1
 1471 -2 l 1,16,-1
 348 -2 l 2,17,18
 331 -2 331 -2 297 -2 c 0,19,20
 179 -4 179 -4 120 10 c 1,21,22
 55 30 55 30 31 49 c 1,23,24
 -23 100 -23 100 -49 213 c 1,25,-1
 129 213 l 1,26,-1
 123 239 l 1,27,-1
 148 239 l 1,28,-1
 -110 1356 l 1,0,-1
1198 239 m 1,29,30
 1178 325 1178 325 1172 341 c 0,31,32
 1165 356 1165 356 1157 367 c 0,33,34
 1149 377 1149 377 1118 403 c 0,35,36
 1092 425 1092 425 1082 431 c 0,37,38
 1053 444 1053 444 989 444 c 2,39,-1
 855 444 l 1,40,-1
 331 444 l 1,41,-1
 337 418 l 1,42,-1
 312 418 l 1,43,-1
 353 239 l 1,44,-1
 378 239 l 1,45,-1
 384 213 l 1,46,-1
 1180 213 l 1,47,-1
 1174 239 l 1,48,-1
 1198 239 l 1,29,30
EndSplineSet
AlternateSubs2: "gsub_alternate_dfl_aalt_arab_FAR_Lookup_01_Subtable_01" uniFEC2 uniFEC3 afii57431 uniFEC4
Substitution2: "gsub_single_rtl_fina_arab_FAR_Lookup_01_Subtable_01" uniFEC2
Substitution2: "gsub_single_rtl_init_arab_FAR_Lookup_01_Subtable_01" uniFEC3
Substitution2: "gsub_single_rtl_medi_arab_FAR_Lookup_01_Subtable_01" uniFEC4
EndChar

StartChar: uniFEC2
Encoding: 65218 65218 402
Width: 1615
VWidth: 1639
GlyphClass: 2
Flags: HW
AnchorPoint: "GposMark2BaseAnchorClassErabAbove_01_02" 767.5 1506 basechar 0
AnchorPoint: "GposMark2BaseAnchorClassErabBelow_01_02" 767.5 -152 basechar 0
LayerCount: 2
Fore
SplineSet
-110 1356 m 1,0,-1
 96 1356 l 1,1,-1
 251 684 l 1,2,-1
 275 684 l 1,3,-1
 281 658 l 1,4,-1
 1015 658 l 2,5,6
 1162 658 l 0,7,8
 1189 656 1189 656 1212 651 c 0,9,10
 1265 640 1265 640 1293 615 c 0,11,12
 1328 583 1328 583 1353 503 c 0,13,14
 1367 461 1367 461 1410 262 c 0,15,16
 1413 249 1413 249 1415 239 c 1,17,-1
 1439 239 l 1,18,-1
 1445 213 l 1,19,-1
 1595 213 l 1,20,-1
 1645 -2 l 1,21,-1
 386 -2 l 2,22,23
 211 -2 211 -2 198 -1 c 0,24,25
 167 2 167 2 140 7 c 0,26,27
 66 19 66 19 31 49 c 1,28,29
 -23 100 -23 100 -49 213 c 1,30,-1
 129 213 l 1,31,-1
 123 239 l 1,32,-1
 148 239 l 1,33,-1
 -110 1356 l 1,0,-1
1198 239 m 1,34,35
 1178 325 1178 325 1172 341 c 0,36,37
 1165 356 1165 356 1157 367 c 0,38,39
 1149 377 1149 377 1118 403 c 0,40,41
 1092 425 1092 425 1082 431 c 0,42,43
 1053 444 1053 444 989 444 c 2,44,-1
 855 444 l 1,45,-1
 331 444 l 1,46,-1
 337 418 l 1,47,-1
 312 418 l 1,48,-1
 353 239 l 1,49,-1
 378 239 l 1,50,-1
 384 213 l 1,51,-1
 1180 213 l 1,52,-1
 1174 239 l 1,53,-1
 1198 239 l 1,34,35
EndSplineSet
EndChar

StartChar: uniFEC3
Encoding: 65219 65219 403
Width: 1690
VWidth: 1639
GlyphClass: 2
Flags: HW
AnchorPoint: "GposMark2BaseAnchorClassErabAbove_01_02" 735 1506 basechar 0
AnchorPoint: "GposMark2BaseAnchorClassErabBelow_01_02" 735 -152 basechar 0
LayerCount: 2
Fore
SplineSet
-33 1356 m 1,0,-1
 173 1356 l 1,1,-1
 329 684 l 1,2,-1
 353 684 l 1,3,-1
 359 658 l 1,4,-1
 1097 658 l 2,5,6
 1113 658 1113 658 1147 659 c 0,7,8
 1251 662 1251 662 1301 648 c 0,9,10
 1355 631 1355 631 1373 613 c 0,11,12
 1419 568 1419 568 1444 452 c 0,13,14
 1450 426 1450 426 1451 418 c 2,15,-1
 1548 -2 l 1,16,-1
 -29 -2 l 1,17,-1
 -78 213 l 1,18,-1
 207 213 l 1,19,-1
 201 239 l 1,20,-1
 225 239 l 1,21,-1
 -33 1356 l 1,0,-1
1276 239 m 1,22,23
 1256 325 1256 325 1249 341 c 0,24,25
 1242 356 1242 356 1234 367 c 0,26,27
 1226 377 1226 377 1196 403 c 0,28,29
 1166 428 1166 428 1160 431 c 0,30,31
 1131 444 1131 444 1069 444 c 2,32,-1
 933 444 l 1,33,-1
 408 444 l 1,34,-1
 414 418 l 1,35,-1
 390 418 l 1,36,-1
 431 239 l 1,37,-1
 456 239 l 1,38,-1
 462 213 l 1,39,-1
 1258 213 l 1,40,-1
 1252 239 l 1,41,-1
 1276 239 l 1,22,23
EndSplineSet
EndChar

StartChar: uniFEC4
Encoding: 65220 65220 404
Width: 1656
VWidth: 1639
GlyphClass: 2
Flags: HW
AnchorPoint: "GposMark2BaseAnchorClassErabAbove_01_02" 804 1506 basechar 0
AnchorPoint: "GposMark2BaseAnchorClassErabBelow_01_02" 804 -152 basechar 0
LayerCount: 2
Fore
SplineSet
-33 1356 m 1,0,-1
 173 1356 l 1,1,-1
 329 684 l 1,2,-1
 353 684 l 1,3,-1
 359 658 l 1,4,-1
 1093 658 l 2,5,6
 1110 658 1110 658 1143 659 c 0,7,8
 1241 662 1241 662 1289 651 c 0,9,10
 1342 640 1342 640 1371 615 c 1,11,12
 1416 572 1416 572 1439 474 c 2,13,-1
 1493 239 l 1,14,-1
 1517 239 l 1,15,-1
 1523 213 l 1,16,-1
 1636 213 l 1,17,-1
 1686 -2 l 1,18,-1
 -29 -2 l 1,19,-1
 -78 213 l 1,20,-1
 207 213 l 1,21,-1
 201 239 l 1,22,-1
 225 239 l 1,23,-1
 -33 1356 l 1,0,-1
1276 239 m 1,24,25
 1256 325 1256 325 1249 341 c 0,26,27
 1242 356 1242 356 1234 367 c 0,28,29
 1226 377 1226 377 1196 403 c 0,30,31
 1166 428 1166 428 1160 431 c 0,32,33
 1131 444 1131 444 1069 444 c 2,34,-1
 933 444 l 1,35,-1
 408 444 l 1,36,-1
 414 418 l 1,37,-1
 390 418 l 1,38,-1
 431 239 l 1,39,-1
 456 239 l 1,40,-1
 462 213 l 1,41,-1
 1258 213 l 1,42,-1
 1252 239 l 1,43,-1
 1276 239 l 1,24,25
EndSplineSet
EndChar

StartChar: afii57432
Encoding: 1592 1592 405
AltUni2: 00fec5.ffffffff.0
Width: 1612
VWidth: 1639
GlyphClass: 2
Flags: HW
AnchorPoint: "GposMark2BaseAnchorClassErabAbove_01_02" 680.5 1506 basechar 0
AnchorPoint: "GposMark2BaseAnchorClassErabBelow_01_02" 680.5 -154 basechar 0
LayerCount: 2
Fore
SplineSet
-110 1356 m 1,0,-1
 96 1356 l 1,1,-1
 251 684 l 1,2,-1
 275 684 l 1,3,-1
 281 658 l 1,4,-1
 1020 658 l 2,5,6
 1036 658 1036 658 1069 659 c 0,7,8
 1173 662 1173 662 1223 648 c 0,9,10
 1277 631 1277 631 1295 613 c 0,11,12
 1341 567 1341 567 1367 446 c 0,13,14
 1372 424 1372 424 1374 418 c 2,15,-1
 1471 -2 l 1,16,-1
 348 -2 l 2,17,18
 331 -2 331 -2 297 -2 c 0,19,20
 179 -4 179 -4 120 10 c 1,21,22
 55 30 55 30 31 49 c 1,23,24
 -23 100 -23 100 -49 213 c 1,25,-1
 129 213 l 1,26,-1
 123 239 l 1,27,-1
 148 239 l 1,28,-1
 -110 1356 l 1,0,-1
595 1128 m 1,29,30
 655 1133 655 1133 695 1099 c 1,31,32
 741 1057 741 1057 743 987 c 0,33,34
 743 956 743 956 732 938 c 0,35,36
 717 915 717 915 676 909 c 1,37,38
 616 904 616 904 577 936 c 1,39,40
 531 978 531 978 528 1050 c 0,41,42
 528 1082 528 1082 539 1100 c 1,43,44
 555 1121 555 1121 595 1128 c 1,29,30
1198 239 m 1,45,46
 1178 325 1178 325 1172 341 c 0,47,48
 1165 356 1165 356 1157 367 c 0,49,50
 1149 377 1149 377 1118 403 c 0,51,52
 1092 425 1092 425 1082 431 c 0,53,54
 1053 444 1053 444 989 444 c 2,55,-1
 855 444 l 1,56,-1
 331 444 l 1,57,-1
 337 418 l 1,58,-1
 312 418 l 1,59,-1
 353 239 l 1,60,-1
 378 239 l 1,61,-1
 384 213 l 1,62,-1
 1180 213 l 1,63,-1
 1174 239 l 1,64,-1
 1198 239 l 1,45,46
EndSplineSet
AlternateSubs2: "gsub_alternate_dfl_aalt_arab_FAR_Lookup_01_Subtable_01" uniFEC6 uniFEC7 afii57432 uniFEC8
Substitution2: "gsub_single_rtl_fina_arab_FAR_Lookup_01_Subtable_01" uniFEC6
Substitution2: "gsub_single_rtl_init_arab_FAR_Lookup_01_Subtable_01" uniFEC7
Substitution2: "gsub_single_rtl_medi_arab_FAR_Lookup_01_Subtable_01" uniFEC8
EndChar

StartChar: uniFEC6
Encoding: 65222 65222 406
Width: 1617
VWidth: 1639
GlyphClass: 2
Flags: HW
AnchorPoint: "GposMark2BaseAnchorClassErabAbove_01_02" 768 1508 basechar 0
AnchorPoint: "GposMark2BaseAnchorClassErabBelow_01_02" 768 -154 basechar 0
LayerCount: 2
Fore
SplineSet
-111 1358 m 1,0,-1
 95 1358 l 1,1,-1
 250 686 l 1,2,-1
 275 686 l 1,3,-1
 281 659 l 1,4,-1
 1013 659 l 2,5,6
 1029 659 1029 659 1062 660 c 0,7,8
 1163 663 1163 663 1213 651 c 0,9,10
 1266 640 1266 640 1293 617 c 1,11,12
 1328 583 1328 583 1352 505 c 0,13,14
 1366 463 1366 463 1410 262 c 0,15,16
 1413 249 1413 249 1415 239 c 1,17,-1
 1439 239 l 1,18,-1
 1445 213 l 1,19,-1
 1598 213 l 1,20,-1
 1647 0 l 1,21,-1
 386 0 l 2,22,23
 365 0 365 0 324 -1 c 0,24,25
 198 -4 198 -4 135 8 c 1,26,27
 63 24 63 24 33 49 c 0,28,29
 -22 98 -22 98 -49 213 c 1,30,-1
 129 213 l 1,31,-1
 123 239 l 1,32,-1
 148 239 l 1,33,-1
 -111 1358 l 1,0,-1
595 1128 m 1,34,35
 655 1133 655 1133 695 1099 c 1,36,37
 741 1057 741 1057 743 987 c 0,38,39
 743 956 743 956 732 938 c 0,40,41
 717 915 717 915 676 909 c 1,42,43
 616 904 616 904 577 936 c 1,44,45
 531 978 531 978 528 1050 c 0,46,47
 528 1082 528 1082 539 1100 c 1,48,49
 555 1121 555 1121 595 1128 c 1,34,35
1198 239 m 1,50,51
 1178 326 1178 326 1169 345 c 0,52,53
 1161 361 1161 361 1153 372 c 0,54,55
 1146 380 1146 380 1132 392 c 0,56,57
 1123 400 1123 400 1119 403 c 0,58,59
 1099 422 1099 422 1084 431 c 0,60,61
 1054 446 1054 446 989 446 c 2,62,-1
 855 446 l 1,63,-1
 330 446 l 1,64,-1
 336 420 l 1,65,-1
 312 420 l 1,66,-1
 353 239 l 1,67,-1
 378 239 l 1,68,-1
 384 213 l 1,69,-1
 1180 213 l 1,70,-1
 1174 239 l 1,71,-1
 1198 239 l 1,50,51
EndSplineSet
EndChar

StartChar: uniFEC7
Encoding: 65223 65223 407
Width: 1690
VWidth: 1639
GlyphClass: 2
Flags: HW
AnchorPoint: "GposMark2BaseAnchorClassErabAbove_01_02" 735 1506 basechar 0
AnchorPoint: "GposMark2BaseAnchorClassErabBelow_01_02" 735 -152 basechar 0
LayerCount: 2
Fore
SplineSet
-33 1356 m 1,0,-1
 173 1356 l 1,1,-1
 329 684 l 1,2,-1
 353 684 l 1,3,-1
 359 658 l 1,4,-1
 1097 658 l 2,5,6
 1113 658 1113 658 1147 659 c 0,7,8
 1251 662 1251 662 1301 648 c 0,9,10
 1355 631 1355 631 1373 613 c 0,11,12
 1419 568 1419 568 1444 452 c 0,13,14
 1450 426 1450 426 1451 418 c 2,15,-1
 1548 -2 l 1,16,-1
 -29 -2 l 1,17,-1
 -78 213 l 1,18,-1
 207 213 l 1,19,-1
 201 239 l 1,20,-1
 225 239 l 1,21,-1
 -33 1356 l 1,0,-1
656 1128 m 1,22,23
 718 1133 718 1133 756 1099 c 0,24,25
 802 1055 802 1055 804 985 c 0,26,27
 804 955 804 955 793 936 c 1,28,29
 777 915 777 915 740 909 c 1,30,31
 677 903 677 903 639 936 c 0,32,33
 593 977 593 977 590 1048 c 0,34,35
 589 1080 589 1080 600 1099 c 0,36,37
 616 1121 616 1121 656 1128 c 1,22,23
1276 239 m 1,38,39
 1256 325 1256 325 1249 341 c 0,40,41
 1242 356 1242 356 1234 367 c 0,42,43
 1226 377 1226 377 1196 403 c 0,44,45
 1166 428 1166 428 1160 431 c 0,46,47
 1131 444 1131 444 1069 444 c 2,48,-1
 933 444 l 1,49,-1
 408 444 l 1,50,-1
 414 418 l 1,51,-1
 390 418 l 1,52,-1
 431 239 l 1,53,-1
 456 239 l 1,54,-1
 462 213 l 1,55,-1
 1258 213 l 1,56,-1
 1252 239 l 1,57,-1
 1276 239 l 1,38,39
EndSplineSet
EndChar

StartChar: uniFEC8
Encoding: 65224 65224 408
Width: 1660
VWidth: 1639
GlyphClass: 2
Flags: HW
AnchorPoint: "GposMark2BaseAnchorClassErabAbove_01_02" 803.5 1506 basechar 0
AnchorPoint: "GposMark2BaseAnchorClassErabBelow_01_02" 803.5 -152 basechar 0
LayerCount: 2
Fore
SplineSet
-33 1356 m 1,0,-1
 173 1356 l 1,1,-1
 329 684 l 1,2,-1
 353 684 l 1,3,-1
 359 658 l 1,4,-1
 1093 658 l 2,5,6
 1110 658 1110 658 1143 659 c 0,7,8
 1241 662 1241 662 1289 651 c 0,9,10
 1342 640 1342 640 1371 615 c 1,11,12
 1416 572 1416 572 1439 474 c 2,13,-1
 1493 239 l 1,14,-1
 1517 239 l 1,15,-1
 1523 213 l 1,16,-1
 1639 213 l 1,17,-1
 1676 54 l 1,18,-1
 1685 15 l 1,19,-1
 1685 0 l 1,20,-1
 1655 -2 l 1,21,-1
 1571 -2 l 1,22,-1
 1243 -2 l 1,23,-1
 -29 -2 l 1,24,-1
 -78 213 l 1,25,-1
 207 213 l 1,26,-1
 201 239 l 1,27,-1
 225 239 l 1,28,-1
 -33 1356 l 1,0,-1
656 1128 m 1,29,30
 718 1133 718 1133 756 1099 c 0,31,32
 802 1055 802 1055 804 985 c 0,33,34
 804 955 804 955 793 936 c 1,35,36
 777 915 777 915 740 909 c 1,37,38
 677 903 677 903 639 936 c 0,39,40
 593 977 593 977 590 1048 c 0,41,42
 589 1080 589 1080 600 1099 c 0,43,44
 616 1121 616 1121 656 1128 c 1,29,30
1276 239 m 1,45,46
 1256 325 1256 325 1249 341 c 0,47,48
 1242 356 1242 356 1234 367 c 0,49,50
 1226 377 1226 377 1196 403 c 0,51,52
 1166 428 1166 428 1160 431 c 0,53,54
 1131 444 1131 444 1069 444 c 2,55,-1
 933 444 l 1,56,-1
 408 444 l 1,57,-1
 414 418 l 1,58,-1
 390 418 l 1,59,-1
 431 239 l 1,60,-1
 456 239 l 1,61,-1
 462 213 l 1,62,-1
 1258 213 l 1,63,-1
 1252 239 l 1,64,-1
 1276 239 l 1,45,46
EndSplineSet
EndChar

StartChar: afii57433
Encoding: 1593 1593 409
AltUni2: 00fec9.ffffffff.0
Width: 1012
VWidth: 1639
GlyphClass: 2
Flags: HW
AnchorPoint: "GposMark2BaseAnchorClassErabAbove_01_02" 608 899 basechar 0
AnchorPoint: "GposMark2BaseAnchorClassErabBelow_01_02" 608 -963 basechar 0
LayerCount: 2
Fore
SplineSet
1197 -813 m 1,0,-1
 796 -813 l 2,1,2
 633 -813 633 -813 622 -813 c 0,3,4
 609 -812 609 -812 599 -810 c 0,5,6
 457 -791 457 -791 329 -700 c 1,7,8
 152 -570 152 -570 83 -352 c 0,9,10
 19 -145 19 -145 87 18 c 0,11,12
 117 87 117 87 170 128 c 0,13,14
 173 131 173 131 183 136 c 0,15,16
 201 148 201 148 207 156 c 0,17,18
 208 157 208 157 207 162 c 0,19,20
 208 168 208 168 209 171 c 0,21,22
 211 173 211 173 216 175 c 0,23,24
 226 182 226 182 227 187 c 0,25,26
 227 191 227 191 218 225 c 2,27,-1
 200 303 l 1,28,-1
 142 556 l 2,29,30
 115 677 115 677 149 710 c 1,31,32
 194 749 194 749 317 746 c 0,33,34
 358 745 358 745 368 745 c 2,35,-1
 841 745 l 1,36,-1
 890 531 l 1,37,-1
 547 531 l 2,38,39
 467 531 467 531 453 528 c 0,40,41
 439 524 439 524 429 518 c 0,42,43
 424 513 424 513 405 487 c 0,44,45
 388 462 388 462 385 458 c 0,46,47
 377 427 377 427 393 361 c 2,48,-1
 421 239 l 1,49,-1
 445 239 l 1,50,-1
 451 213 l 1,51,-1
 962 213 l 1,52,-1
 1012 -2 l 1,53,-1
 614 -2 l 2,54,55
 598 -2 598 -2 566 -1 c 0,56,57
 446 2 446 2 398 -20 c 1,58,59
 352 -44 352 -44 320 -92 c 0,60,61
 279 -157 279 -157 272 -198 c 1,62,63
 258 -316 258 -316 334 -425 c 0,64,65
 358 -458 358 -458 412 -503 c 0,66,67
 462 -545 462 -545 495 -564 c 0,68,69
 565 -600 565 -600 692 -598 c 0,70,71
 728 -597 728 -597 739 -597 c 2,72,-1
 1148 -597 l 1,73,-1
 1197 -813 l 1,0,-1
EndSplineSet
AlternateSubs2: "gsub_alternate_dfl_aalt_arab_FAR_Lookup_01_Subtable_01" uniFECA uniFECB afii57433 uniFECC
Substitution2: "gsub_single_rtl_fina_arab_FAR_Lookup_01_Subtable_01" uniFECA
Substitution2: "gsub_single_rtl_init_arab_FAR_Lookup_01_Subtable_01" uniFECB
Substitution2: "gsub_single_rtl_medi_arab_FAR_Lookup_01_Subtable_01" uniFECC
EndChar

StartChar: uniFECA
Encoding: 65226 65226 410
Width: 911
VWidth: 1639
GlyphClass: 2
Flags: HW
AnchorPoint: "GposMark2BaseAnchorClassErabAbove_01_02" 610 892 basechar 0
AnchorPoint: "GposMark2BaseAnchorClassErabBelow_01_02" 610 -963 basechar 0
LayerCount: 2
Fore
SplineSet
447 239 m 1,0,1
 436 248 436 248 321 359 c 0,2,3
 318 362 318 362 316 364 c 0,4,5
 228 447 228 447 210 467 c 0,6,7
 141 549 141 549 151 632 c 0,8,9
 155 658 155 658 167 677 c 0,10,11
 184 703 184 703 223 722 c 0,12,13
 265 742 265 742 366 741 c 2,14,-1
 548 741 l 2,15,16
 660 741 660 741 674 739 c 0,17,18
 695 736 695 736 711 731 c 0,19,20
 817 693 817 693 859 615 c 1,21,22
 902 527 902 527 844 423 c 0,23,24
 842 419 842 419 812 369 c 0,25,26
 803 353 803 353 784 320 c 0,27,28
 753 264 753 264 737 239 c 1,29,-1
 781 239 l 1,30,-1
 767 213 l 1,31,-1
 1068 213 l 1,32,-1
 1117 -2 l 1,33,-1
 637 -2 l 2,34,35
 621 -2 621 -2 586 -1 c 0,36,37
 448 3 448 3 395 -26 c 1,38,39
 357 -52 357 -52 329 -95 c 1,40,41
 300 -133 300 -133 289 -167 c 1,42,43
 260 -276 260 -276 326 -395 c 1,44,45
 357 -447 357 -447 423 -503 c 0,46,47
 477 -549 477 -549 513 -567 c 0,48,49
 580 -600 580 -600 706 -598 c 0,50,51
 737 -597 737 -597 750 -597 c 2,52,-1
 1155 -597 l 1,53,-1
 1205 -813 l 1,54,-1
 804 -813 l 2,55,56
 635 -813 635 -813 611 -811 c 0,57,58
 599 -810 599 -810 590 -809 c 0,59,60
 428 -784 428 -784 295 -671 c 0,61,62
 134 -535 134 -535 75 -323 c 0,63,64
 15 -108 15 -108 99 42 c 0,65,66
 105 53 105 53 111 62 c 0,67,68
 199 196 199 196 389 212 c 0,69,70
 409 214 409 214 428 213 c 1,71,-1
 403 238 l 1,72,-1
 447 239 l 1,0,1
611 551 m 1,73,-1
 419 551 l 1,74,-1
 440 525 l 1,75,-1
 401 525 l 1,76,-1
 527 376 l 1,77,-1
 530 376 l 1,78,-1
 530 380 l 1,79,-1
 557 349 l 1,80,-1
 560 349 l 1,81,-1
 572 379 l 1,82,-1
 579 376 l 1,83,-1
 642 525 l 1,84,-1
 601 525 l 1,85,-1
 611 551 l 1,73,-1
EndSplineSet
EndChar

StartChar: uniFECB
Encoding: 65227 65227 411
Width: 1162
VWidth: 1639
GlyphClass: 2
Flags: HW
AnchorPoint: "GposMark2BaseAnchorClassErabAbove_01_02" 471.5 895 basechar 0
AnchorPoint: "GposMark2BaseAnchorClassErabBelow_01_02" 471.5 -152 basechar 0
LayerCount: 2
Fore
SplineSet
224 239 m 1,0,-1
 155 536 l 2,1,2
 130 645 130 645 145 687 c 0,3,4
 148 694 148 694 151 700 c 0,5,6
 160 716 160 716 194 731 c 1,7,8
 230 744 230 744 334 745 c 2,9,-1
 848 745 l 1,10,-1
 898 531 l 1,11,-1
 557 531 l 2,12,13
 475 531 475 531 462 528 c 0,14,15
 449 525 449 525 440 518 c 0,16,17
 430 510 430 510 414 487 c 0,18,19
 398 467 398 467 395 456 c 0,20,21
 389 433 389 433 396 390 c 0,22,23
 399 370 399 370 430 239 c 1,24,-1
 454 239 l 1,25,-1
 460 213 l 1,26,-1
 971 213 l 1,27,-1
 1021 -2 l 1,28,-1
 -29 -2 l 1,29,-1
 -78 213 l 1,30,-1
 205 213 l 1,31,-1
 199 239 l 1,32,-1
 224 239 l 1,0,-1
EndSplineSet
EndChar

StartChar: uniFECC
Encoding: 65228 65228 412
Width: 996
VWidth: 1639
GlyphClass: 2
Flags: HW
AnchorPoint: "GposMark2BaseAnchorClassErabAbove_01_02" 473.5 891 basechar 0
AnchorPoint: "GposMark2BaseAnchorClassErabBelow_01_02" 473.5 -152 basechar 0
LayerCount: 2
Fore
SplineSet
338 239 m 1,0,1
 309 268 309 268 168 403 c 0,2,3
 72 494 72 494 51 559 c 0,4,5
 45 579 45 579 44 597 c 0,6,7
 37 684 37 684 116 723 c 0,8,9
 127 728 127 728 138 731 c 0,10,11
 171 741 171 741 268 741 c 2,12,-1
 463 741 l 2,13,14
 567 741 567 741 602 731 c 0,15,16
 617 727 617 727 629 722 c 0,17,18
 680 698 680 698 707 676 c 1,19,20
 789 600 789 600 766 491 c 0,21,22
 760 464 760 464 748 441 c 0,23,24
 673 303 673 303 629 239 c 1,25,-1
 674 239 l 1,26,-1
 660 213 l 1,27,-1
 976 213 l 1,28,-1
 1025 -2 l 1,29,-1
 -29 -2 l 1,30,-1
 -78 213 l 1,31,-1
 320 213 l 1,32,-1
 294 239 l 1,33,-1
 338 239 l 1,0,1
513 551 m 1,34,-1
 323 551 l 1,35,-1
 344 525 l 1,36,-1
 304 525 l 1,37,-1
 349 471 l 1,38,-1
 431 374 l 1,39,-1
 432 379 l 1,40,-1
 436 379 l 1,41,-1
 461 348 l 1,42,-1
 474 379 l 1,43,-1
 477 379 l 1,44,-1
 479 374 l 1,45,-1
 511 448 l 1,46,-1
 544 525 l 1,47,-1
 504 525 l 1,48,-1
 513 551 l 1,34,-1
EndSplineSet
EndChar

StartChar: afii57434
Encoding: 1594 1594 413
AltUni2: 00fecd.ffffffff.0
Width: 1012
VWidth: 1639
GlyphClass: 2
Flags: HW
AnchorPoint: "GposMark2BaseAnchorClassErabAbove_01_02" 608 1278 basechar 0
AnchorPoint: "GposMark2BaseAnchorClassErabBelow_01_02" 608 -963 basechar 0
LayerCount: 2
Fore
SplineSet
419 1123 m 1,0,1
 477 1128 477 1128 517 1096 c 1,2,3
 563 1055 563 1055 567 984 c 0,4,5
 568 951 568 951 555 932 c 1,6,7
 539 911 539 911 501 904 c 1,8,9
 441 899 441 899 401 932 c 1,10,11
 355 973 355 973 352 1043 c 0,12,13
 351 1076 351 1076 363 1096 c 1,14,15
 381 1117 381 1117 419 1123 c 1,0,1
1197 -813 m 1,16,-1
 796 -813 l 2,17,18
 633 -813 633 -813 622 -813 c 0,19,20
 609 -812 609 -812 599 -810 c 0,21,22
 457 -791 457 -791 329 -700 c 1,23,24
 152 -570 152 -570 83 -352 c 0,25,26
 19 -145 19 -145 87 18 c 0,27,28
 117 87 117 87 170 128 c 0,29,30
 173 131 173 131 183 136 c 0,31,32
 201 148 201 148 207 156 c 0,33,34
 208 157 208 157 207 162 c 0,35,36
 208 168 208 168 209 171 c 0,37,38
 211 173 211 173 216 175 c 0,39,40
 226 182 226 182 227 187 c 0,41,42
 227 191 227 191 218 225 c 2,43,-1
 200 303 l 1,44,-1
 142 556 l 2,45,46
 115 677 115 677 149 710 c 1,47,48
 194 749 194 749 317 746 c 0,49,50
 358 745 358 745 368 745 c 2,51,-1
 841 745 l 1,52,-1
 890 531 l 1,53,-1
 547 531 l 2,54,55
 467 531 467 531 453 528 c 0,56,57
 439 524 439 524 429 518 c 0,58,59
 424 513 424 513 405 487 c 0,60,61
 388 462 388 462 385 458 c 0,62,63
 377 427 377 427 393 361 c 2,64,-1
 421 239 l 1,65,-1
 445 239 l 1,66,-1
 451 213 l 1,67,-1
 962 213 l 1,68,-1
 1012 -2 l 1,69,-1
 614 -2 l 2,70,71
 598 -2 598 -2 566 -1 c 0,72,73
 446 2 446 2 398 -20 c 1,74,75
 352 -44 352 -44 320 -92 c 0,76,77
 279 -157 279 -157 272 -198 c 1,78,79
 258 -316 258 -316 334 -425 c 0,80,81
 358 -458 358 -458 412 -503 c 0,82,83
 462 -545 462 -545 495 -564 c 0,84,85
 565 -600 565 -600 692 -598 c 0,86,87
 728 -597 728 -597 739 -597 c 2,88,-1
 1148 -597 l 1,89,-1
 1197 -813 l 1,16,-1
EndSplineSet
AlternateSubs2: "gsub_alternate_dfl_aalt_arab_FAR_Lookup_01_Subtable_01" uniFECE uniFECF afii57434 uniFED0
Substitution2: "gsub_single_rtl_fina_arab_FAR_Lookup_01_Subtable_01" uniFECE
Substitution2: "gsub_single_rtl_init_arab_FAR_Lookup_01_Subtable_01" uniFECF
Substitution2: "gsub_single_rtl_medi_arab_FAR_Lookup_01_Subtable_01" uniFED0
EndChar

StartChar: uniFECE
Encoding: 65230 65230 414
Width: 914
VWidth: 1639
GlyphClass: 2
Flags: HW
AnchorPoint: "GposMark2BaseAnchorClassErabAbove_01_02" 610 1280 basechar 0
AnchorPoint: "GposMark2BaseAnchorClassErabBelow_01_02" 610 -963 basechar 0
LayerCount: 2
Fore
SplineSet
380 1125 m 0,0,1
 426 1130 426 1130 465 1099 c 1,2,3
 511 1058 511 1058 515 987 c 0,4,5
 516 953 516 953 503 933 c 1,6,7
 482 909 482 909 438 905 c 1,8,9
 385 903 385 903 351 933 c 0,10,11
 303 978 303 978 300 1048 c 0,12,13
 300 1080 300 1080 312 1099 c 1,14,15
 330 1121 330 1121 380 1125 c 0,0,1
447 239 m 1,16,17
 436 248 436 248 321 359 c 0,18,19
 318 362 318 362 316 364 c 0,20,21
 228 447 228 447 210 467 c 0,22,23
 141 549 141 549 151 632 c 0,24,25
 155 658 155 658 167 677 c 0,26,27
 184 703 184 703 223 722 c 0,28,29
 265 742 265 742 366 741 c 2,30,-1
 548 741 l 2,31,32
 660 741 660 741 674 739 c 0,33,34
 695 736 695 736 711 731 c 0,35,36
 817 693 817 693 859 615 c 1,37,38
 902 527 902 527 844 423 c 0,39,40
 842 419 842 419 812 369 c 0,41,42
 803 353 803 353 784 320 c 0,43,44
 753 264 753 264 737 239 c 1,45,-1
 781 239 l 1,46,-1
 767 213 l 1,47,-1
 1071 213 l 1,48,-1
 1120 -2 l 1,49,-1
 638 -2 l 2,50,51
 621 -2 621 -2 585 -0 c 0,52,53
 446 4 446 4 395 -26 c 1,54,55
 357 -52 357 -52 329 -95 c 1,56,57
 300 -133 300 -133 289 -167 c 1,58,59
 260 -276 260 -276 326 -395 c 1,60,61
 357 -447 357 -447 423 -503 c 0,62,63
 477 -549 477 -549 513 -567 c 0,64,65
 580 -600 580 -600 706 -598 c 0,66,67
 737 -597 737 -597 750 -597 c 2,68,-1
 1155 -597 l 1,69,-1
 1205 -813 l 1,70,-1
 804 -813 l 2,71,72
 635 -813 635 -813 611 -811 c 0,73,74
 599 -810 599 -810 590 -809 c 0,75,76
 428 -784 428 -784 295 -671 c 0,77,78
 134 -535 134 -535 75 -323 c 0,79,80
 15 -108 15 -108 99 42 c 0,81,82
 105 53 105 53 111 62 c 0,83,84
 199 196 199 196 389 212 c 0,85,86
 409 214 409 214 428 213 c 1,87,-1
 403 238 l 1,88,-1
 447 239 l 1,16,17
611 551 m 1,89,-1
 419 551 l 1,90,-1
 440 525 l 1,91,-1
 401 525 l 1,92,-1
 527 376 l 1,93,-1
 530 376 l 1,94,-1
 530 380 l 1,95,-1
 557 349 l 1,96,-1
 560 349 l 1,97,-1
 572 379 l 1,98,-1
 579 376 l 1,99,-1
 642 525 l 1,100,-1
 601 525 l 1,101,-1
 611 551 l 1,89,-1
EndSplineSet
EndChar

StartChar: uniFECF
Encoding: 65231 65231 415
Width: 1162
VWidth: 1639
GlyphClass: 2
Flags: HW
AnchorPoint: "GposMark2BaseAnchorClassErabAbove_01_02" 471.5 1278 basechar 0
AnchorPoint: "GposMark2BaseAnchorClassErabBelow_01_02" 471.5 -152 basechar 0
LayerCount: 2
Fore
SplineSet
470 1123 m 1,0,1
 530 1128 530 1128 569 1094 c 1,2,3
 614 1052 614 1052 617 982 c 0,4,5
 617 949 617 949 606 930 c 1,6,7
 589 910 589 910 551 904 c 1,8,9
 491 899 491 899 451 932 c 1,10,11
 406 974 406 974 402 1043 c 0,12,13
 401 1076 401 1076 413 1096 c 1,14,15
 432 1117 432 1117 470 1123 c 1,0,1
224 239 m 1,16,-1
 155 536 l 2,17,18
 130 645 130 645 145 687 c 0,19,20
 148 694 148 694 151 700 c 0,21,22
 160 716 160 716 194 731 c 1,23,24
 230 744 230 744 334 745 c 2,25,-1
 848 745 l 1,26,-1
 898 531 l 1,27,-1
 557 531 l 2,28,29
 475 531 475 531 462 528 c 0,30,31
 449 525 449 525 440 518 c 0,32,33
 430 510 430 510 414 487 c 0,34,35
 398 467 398 467 395 456 c 0,36,37
 389 433 389 433 396 390 c 0,38,39
 399 370 399 370 430 239 c 1,40,-1
 454 239 l 1,41,-1
 460 213 l 1,42,-1
 971 213 l 1,43,-1
 1021 -2 l 1,44,-1
 -29 -2 l 1,45,-1
 -78 213 l 1,46,-1
 205 213 l 1,47,-1
 199 239 l 1,48,-1
 224 239 l 1,16,-1
EndSplineSet
EndChar

StartChar: uniFED0
Encoding: 65232 65232 416
Width: 995
VWidth: 1639
GlyphClass: 2
Flags: HW
AnchorPoint: "GposMark2BaseAnchorClassErabAbove_01_02" 473 1277 basechar 0
AnchorPoint: "GposMark2BaseAnchorClassErabBelow_01_02" 473 -152 basechar 0
LayerCount: 2
Fore
SplineSet
258 1123 m 1,0,1
 317 1127 317 1127 357 1094 c 1,2,3
 403 1052 403 1052 405 982 c 0,4,5
 405 950 405 950 393 932 c 1,6,7
 377 911 377 911 339 904 c 1,8,9
 282 899 282 899 241 930 c 1,10,11
 194 970 194 970 190 1041 c 0,12,13
 188 1075 188 1075 201 1096 c 0,14,15
 218 1116 218 1116 258 1123 c 1,0,1
338 239 m 1,16,17
 309 268 309 268 168 403 c 0,18,19
 72 494 72 494 51 559 c 0,20,21
 45 579 45 579 44 597 c 0,22,23
 37 684 37 684 116 723 c 0,24,25
 127 728 127 728 138 731 c 0,26,27
 171 741 171 741 268 741 c 2,28,-1
 463 741 l 2,29,30
 567 741 567 741 602 731 c 0,31,32
 617 727 617 727 629 722 c 0,33,34
 680 698 680 698 707 676 c 1,35,36
 789 600 789 600 766 491 c 0,37,38
 760 464 760 464 748 441 c 0,39,40
 673 303 673 303 629 239 c 1,41,-1
 674 239 l 1,42,-1
 660 213 l 1,43,-1
 974 213 l 1,44,-1
 1024 -2 l 1,45,-1
 -29 -2 l 1,46,-1
 -78 213 l 1,47,-1
 320 213 l 1,48,-1
 294 239 l 1,49,-1
 338 239 l 1,16,17
513 551 m 1,50,-1
 323 551 l 1,51,-1
 344 525 l 1,52,-1
 304 525 l 1,53,-1
 349 471 l 1,54,-1
 431 374 l 1,55,-1
 432 379 l 1,56,-1
 436 379 l 1,57,-1
 461 348 l 1,58,-1
 474 379 l 1,59,-1
 477 379 l 1,60,-1
 479 374 l 1,61,-1
 511 448 l 1,62,-1
 544 525 l 1,63,-1
 504 525 l 1,64,-1
 513 551 l 1,50,-1
EndSplineSet
EndChar

StartChar: afii57440
Encoding: 1600 1600 417
Width: 475
VWidth: 1639
GlyphClass: 2
Flags: W
LayerCount: 2
Fore
SplineSet
-81 213 m 1,0,-1
 -23 213 l 1,1,-1
 -17 187 l 1,2,-1
 7 187 l 1,3,-1
 13 161 l 1,4,-1
 393 161 l 1,5,-1
 387 187 l 1,6,-1
 412 187 l 1,7,-1
 405 213 l 1,8,-1
 465 213 l 1,9,-1
 514 0 l 1,10,-1
 -32 0 l 1,11,-1
 -81 213 l 1,0,-1
EndSplineSet
EndChar

StartChar: kashidaautoarabic
Encoding: 59425 59425 418
Width: 93
VWidth: 1639
GlyphClass: 2
Flags: W
LayerCount: 2
Fore
SplineSet
-49 213 m 1,0,-1
 83 213 l 1,1,-1
 133 0 l 1,2,-1
 0 0 l 1,3,-1
 -49 213 l 1,0,-1
EndSplineSet
EndChar

StartChar: feharabic
Encoding: 1601 1601 420
AltUni2: 00fed1.ffffffff.0
Width: 1674
VWidth: 1639
GlyphClass: 2
Flags: HW
AnchorPoint: "GposMark2BaseAnchorClassErabAbove_01_02" 665.5 1283 basechar 0
AnchorPoint: "GposMark2BaseAnchorClassErabBelow_01_02" 665.5 -156 basechar 0
LayerCount: 2
Fore
SplineSet
882 1127 m 1,0,1
 944 1133 944 1133 985 1099 c 1,2,3
 1030 1057 1030 1057 1033 987 c 0,4,5
 1033 955 1033 955 1022 936 c 1,6,7
 1006 915 1006 915 974 909 c 1,8,9
 909 900 909 900 869 935 c 0,10,11
 822 977 822 977 818 1046 c 0,12,13
 817 1079 817 1079 829 1099 c 1,14,15
 845 1120 845 1120 882 1127 c 1,0,1
-172 745 m 1,16,-1
 32 745 l 1,17,-1
 108 418 l 2,18,19
 129 327 129 327 142 302 c 0,20,21
 153 283 153 283 165 269 c 0,22,23
 200 233 200 233 221 225 c 1,24,25
 262 212 262 212 352 213 c 1,26,-1
 730 213 l 1,27,-1
 724 239 l 1,28,-1
 749 239 l 1,29,-1
 678 546 l 2,30,31
 653 659 653 659 677 702 c 1,32,33
 705 745 705 745 819 745 c 2,34,-1
 1179 745 l 2,35,36
 1290 744 1290 744 1337 702 c 1,37,38
 1382 655 1382 655 1408 540 c 2,39,-1
 1476 248 l 2,40,41
 1501 138 1501 138 1502 113 c 0,42,43
 1503 92 1503 92 1500 75 c 0,44,45
 1488 19 1488 19 1419 5 c 0,46,47
 1371 -6 1371 -6 1220 -2 c 0,48,49
 1200 -1 1200 -1 1185 -2 c 2,50,-1
 385 -2 l 2,51,52
 366 -2 366 -2 327 -3 c 0,53,54
 221 -5 221 -5 169 3 c 0,55,56
 90 17 90 17 41 52 c 1,57,58
 -24 104 -24 104 -60 261 c 2,59,-1
 -172 745 l 1,16,-1
965 531 m 1,60,61
 942 526 942 526 926 500 c 0,62,63
 924 497 924 497 919 492 c 0,64,65
 911 483 911 483 910 477 c 0,66,67
 904 452 904 452 928 366 c 0,68,69
 931 356 931 356 932 349 c 0,70,71
 947 286 947 286 956 271 c 0,72,73
 960 266 960 266 963 262 c 0,74,75
 965 259 965 259 968.5 256.5 c 128,-1,76
 972 254 972 254 979 250 c 2,77,-1
 985 246 l 2,78,79
 989 243 989 243 995 236 c 0,80,81
 1006 225 1006 225 1012 221 c 1,82,83
 1047 210 1047 210 1119 213 c 1,84,-1
 1200 213 l 1,85,86
 1221 216 1221 216 1236 243 c 2,87,-1
 1237 244 l 1,88,89
 1253 262 1253 262 1254 269 c 0,90,91
 1260 294 1260 294 1237 380 c 0,92,93
 1234 391 1234 391 1232 397 c 0,94,95
 1218 459 1218 459 1208 474 c 0,96,97
 1204 479 1204 479 1202 482 c 0,98,99
 1199 484 1199 484 1179 500 c 0,100,101
 1176 503 1176 503 1171 509 c 0,102,103
 1160 520 1160 520 1153 523 c 1,104,105
 1118 534 1118 534 1046 531 c 1,106,-1
 965 531 l 1,60,61
EndSplineSet
AlternateSubs2: "gsub_alternate_dfl_aalt_arab_FAR_Lookup_01_Subtable_01" uniFED2 uniFED3 feharabic uniFED4
Substitution2: "gsub_single_rtl_fina_arab_FAR_Lookup_01_Subtable_01" uniFED2
Substitution2: "gsub_single_rtl_init_arab_FAR_Lookup_01_Subtable_01" uniFED3
Substitution2: "gsub_single_rtl_medi_arab_FAR_Lookup_01_Subtable_01" uniFED4
EndChar

StartChar: uniFED2
Encoding: 65234 65234 421
Width: 1682
VWidth: 1639
GlyphClass: 2
Flags: HW
AnchorPoint: "GposMark2BaseAnchorClassErabAbove_01_02" 768.5 1285 basechar 0
AnchorPoint: "GposMark2BaseAnchorClassErabBelow_01_02" 768.5 -152 basechar 0
LayerCount: 2
Fore
SplineSet
894 1127 m 0,0,1
 955 1135 955 1135 999 1097 c 1,2,3
 1044 1054 1044 1054 1046 984 c 0,4,5
 1046 953 1046 953 1035 935 c 1,6,7
 1017 914 1017 914 979 907 c 1,8,9
 919 902 919 902 879 936 c 1,10,11
 833 980 833 980 831 1050 c 0,12,13
 831 1081 831 1081 843 1100 c 1,14,15
 859 1121 859 1121 894 1127 c 0,0,1
-172 745 m 1,16,-1
 32 745 l 1,17,-1
 108 418 l 2,18,19
 129 327 129 327 142 302 c 0,20,21
 153 283 153 283 165 269 c 0,22,23
 200 233 200 233 221 225 c 1,24,25
 262 212 262 212 352 213 c 1,26,-1
 730 213 l 1,27,-1
 724 239 l 1,28,-1
 749 239 l 1,29,-1
 681 533 l 2,30,31
 654 653 654 653 675 699 c 1,32,33
 700 745 700 745 809 745 c 2,34,-1
 1178 745 l 2,35,36
 1294 744 1294 744 1338 700 c 1,37,38
 1382 654 1382 654 1409 538 c 2,39,-1
 1478 239 l 1,40,-1
 1502 239 l 1,41,-1
 1508 213 l 1,42,-1
 1662 213 l 1,43,-1
 1700 51 l 1,44,-1
 1708 13 l 2,45,46
 1709 1 1709 1 1708 0 c 0,47,48
 1703 -2 1703 -2 1677 -2 c 2,49,-1
 1600 -2 l 1,50,-1
 1326 -2 l 1,51,-1
 438 -2 l 1,52,-1
 263 -2 l 2,53,54
 131 -2 131 -2 63 38 c 0,55,56
 56 42 56 42 50 46 c 0,57,58
 -22 96 -22 96 -57 248 c 2,59,-1
 -172 745 l 1,16,-1
965 531 m 1,60,61
 942 526 942 526 926 500 c 0,62,63
 924 497 924 497 919 492 c 0,64,65
 911 483 911 483 910 477 c 0,66,67
 904 452 904 452 928 366 c 0,68,69
 931 356 931 356 932 349 c 0,70,71
 947 286 947 286 956 271 c 0,72,73
 960 266 960 266 963 262 c 0,74,75
 965 259 965 259 968.5 256.5 c 128,-1,76
 972 254 972 254 979 250 c 2,77,-1
 985 246 l 2,78,79
 989 243 989 243 995 236 c 0,80,81
 1006 225 1006 225 1012 221 c 1,82,83
 1047 210 1047 210 1119 213 c 1,84,-1
 1200 213 l 1,85,86
 1221 216 1221 216 1236 243 c 2,87,-1
 1237 244 l 1,88,89
 1253 262 1253 262 1254 269 c 0,90,91
 1260 294 1260 294 1237 380 c 0,92,93
 1234 391 1234 391 1232 397 c 0,94,95
 1218 459 1218 459 1208 474 c 0,96,97
 1204 479 1204 479 1202 482 c 0,98,99
 1199 484 1199 484 1179 500 c 0,100,101
 1176 503 1176 503 1171 509 c 0,102,103
 1160 520 1160 520 1153 523 c 1,104,105
 1118 534 1118 534 1046 531 c 1,106,-1
 965 531 l 1,60,61
EndSplineSet
EndChar

StartChar: uniFED3
Encoding: 65235 65235 422
Width: 1149
VWidth: 1639
GlyphClass: 2
Flags: HW
AnchorPoint: "GposMark2BaseAnchorClassErabAbove_01_02" 456.5 1286 basechar 0
AnchorPoint: "GposMark2BaseAnchorClassErabBelow_01_02" 456.5 -152 basechar 0
LayerCount: 2
Fore
SplineSet
357 1127 m 0,0,1
 413 1136 413 1136 458 1101 c 0,2,3
 461 1098 461 1098 462 1097 c 0,4,5
 508 1052 508 1052 509 984 c 0,6,7
 509 954 509 954 498 935 c 1,8,9
 483 915 483 915 451 909 c 1,10,11
 387 900 387 900 344 935 c 1,12,13
 298 976 298 976 294 1046 c 0,14,15
 293 1079 293 1079 306 1099 c 1,16,17
 322 1120 322 1120 357 1127 c 0,0,1
224 239 m 1,18,-1
 156 533 l 2,19,20
 130 644 130 644 144 686 c 0,21,22
 147 693 147 693 150 699 c 0,23,24
 158 713 158 713 180 725 c 0,25,26
 219 745 219 745 287 745 c 2,27,-1
 647 745 l 2,28,29
 766 744 766 744 812 702 c 1,30,31
 857 655 857 655 884 538 c 2,32,-1
 964 189 l 2,33,34
 991 68 991 68 959 34 c 1,35,36
 919 -2 919 -2 815 -2 c 2,37,-1
 673 -2 l 1,38,-1
 -29 -2 l 1,39,-1
 -78 213 l 1,40,-1
 205 213 l 1,41,-1
 199 239 l 1,42,-1
 224 239 l 1,18,-1
438 533 m 1,43,44
 415 528 415 528 400 502 c 1,45,46
 384 483 384 483 381 476 c 0,47,48
 376 452 376 452 399 368 c 0,49,50
 402 357 402 357 404 351 c 0,51,52
 419 287 419 287 428 272 c 0,53,54
 432 267 432 267 435 264 c 0,55,56
 437 261 437 261 440.5 258.5 c 128,-1,57
 444 256 444 256 450 252 c 2,58,-1
 457 248 l 2,59,60
 461 245 461 245 467 238 c 0,61,62
 478 227 478 227 484 223 c 1,63,64
 517 211 517 211 590 213 c 1,65,66
 662 213 662 213 675 215 c 0,67,68
 694 218 694 218 709 245 c 2,69,-1
 710 246 l 1,70,-1
 727 271 l 1,71,72
 730 286 730 286 721 323 c 2,73,-1
 704 400 l 2,74,75
 690 461 690 461 680 475 c 0,76,77
 676 480 676 480 674 484 c 0,78,79
 670 488 670 488 662 493 c 0,80,81
 655 498 655 498 653 500 c 2,82,-1
 625 525 l 1,83,84
 590 536 590 536 517 533 c 1,85,-1
 438 533 l 1,43,44
EndSplineSet
EndChar

StartChar: uniFED4
Encoding: 65236 65236 423
Width: 1167
VWidth: 1639
GlyphClass: 2
Flags: HW
AnchorPoint: "GposMark2BaseAnchorClassErabAbove_01_02" 557.5 1284 basechar 0
AnchorPoint: "GposMark2BaseAnchorClassErabBelow_01_02" 557.5 -152 basechar 0
LayerCount: 2
Fore
SplineSet
375 1128 m 1,0,1
 436 1134 436 1134 475 1100 c 1,2,3
 521 1058 521 1058 523 987 c 0,4,5
 523 955 523 955 513 936 c 1,6,7
 497 915 497 915 460 909 c 1,8,9
 399 904 399 904 359 936 c 1,10,11
 313 977 313 977 309 1048 c 0,12,13
 308 1081 308 1081 321 1100 c 1,14,15
 337 1121 337 1121 375 1128 c 1,0,1
234 239 m 1,16,-1
 167 533 l 2,17,18
 142 641 142 641 155 684 c 0,19,20
 158 692 158 692 160 699 c 0,21,22
 184 745 184 745 296 745 c 2,23,-1
 664 745 l 2,24,25
 779 744 779 744 824 699 c 1,26,27
 868 648 868 648 893 540 c 2,28,-1
 962 239 l 1,29,-1
 986 239 l 1,30,-1
 992 213 l 1,31,-1
 1146 213 l 1,32,-1
 1183 52 l 1,33,-1
 1192 15 l 1,34,-1
 1193 0 l 1,35,-1
 1172 -2 l 1,36,-1
 1111 -2 l 1,37,-1
 877 -2 l 1,38,-1
 -29 -2 l 1,39,-1
 -78 213 l 1,40,-1
 216 213 l 1,41,-1
 210 239 l 1,42,-1
 234 239 l 1,16,-1
448 531 m 1,43,44
 427 528 427 528 411 501 c 2,45,-1
 411 500 l 1,46,-1
 393 476 l 1,47,48
 388 452 388 452 412 366 c 0,49,50
 415 355 415 355 416 349 c 0,51,52
 430 286 430 286 439 273 c 0,53,54
 442 268 442 268 445 264 c 0,55,56
 451 258 451 258 469 246 c 0,57,58
 472 243 472 243 479 237 c 0,59,60
 490 226 490 226 496 221 c 1,61,62
 532 210 532 210 608 213 c 1,63,-1
 686 213 l 1,64,65
 707 220 707 220 721 244 c 1,66,67
 737 263 737 263 740 271 c 0,68,69
 745 295 745 295 721 380 c 0,70,71
 718 391 718 391 717 397 c 0,72,73
 703 458 703 458 692 474 c 0,74,75
 688 480 688 480 684 484 c 0,76,77
 678 489 678 489 664 499 c 0,78,79
 661 502 661 502 655 508 c 0,80,81
 644 519 644 519 637 523 c 1,82,83
 602 534 602 534 528 531 c 1,84,-1
 448 531 l 1,43,44
EndSplineSet
EndChar

StartChar: qafarabic
Encoding: 1602 1602 424
AltUni2: 00fed5.ffffffff.0
Width: 1294
VWidth: 1639
GlyphClass: 2
Flags: HW
AnchorPoint: "GposMark2BaseAnchorClassErabAbove_01_02" 502.5 1278 basechar 0
AnchorPoint: "GposMark2BaseAnchorClassErabBelow_01_02" 502.5 -792 basechar 0
LayerCount: 2
Fore
SplineSet
372 1122 m 1,0,1
 436 1128 436 1128 475 1092 c 1,2,3
 522 1046 522 1046 523 978 c 0,4,5
 523 950 523 950 512 932 c 1,6,7
 496 911 496 911 462 904 c 1,8,9
 399 895 399 895 357 930 c 1,10,11
 312 972 312 972 308 1041 c 0,12,13
 307 1074 307 1074 319 1094 c 1,14,15
 335 1115 335 1115 372 1122 c 1,0,1
661 1122 m 1,16,17
 724 1128 724 1128 762 1094 c 0,18,19
 809 1051 809 1051 812 982 c 0,20,21
 812 949 812 949 800 930 c 0,22,23
 784 909 784 909 745 902 c 1,24,25
 687 897 687 897 647 930 c 1,26,27
 600 972 600 972 597 1041 c 0,28,29
 596 1074 596 1074 608 1094 c 1,30,31
 624 1115 624 1115 661 1122 c 1,16,17
-172 745 m 1,32,-1
 32 745 l 1,33,-1
 173 134 l 2,34,35
 212 -34 212 -34 227 -75 c 0,36,37
 258 -156 258 -156 306 -215 c 0,38,39
 427 -363 427 -363 579 -409 c 0,40,41
 699 -446 699 -446 794 -399 c 0,42,43
 838 -376 838 -376 875 -330 c 1,44,45
 917 -283 917 -283 941 -223 c 1,46,47
 965 -154 965 -154 949 -30 c 1,48,-1
 923 -30 l 1,49,-1
 919 -3 l 1,50,-1
 638 -3 l 2,51,52
 527 -3 527 -3 476 22 c 0,53,54
 464 28 464 28 454 34 c 0,55,56
 407 66 407 66 380 182 c 2,57,-1
 294 556 l 2,58,59
 268 672 268 672 299 705 c 1,60,61
 331 736 331 736 410 743 c 0,62,63
 432 745 432 745 579 745 c 0,64,65
 603 745 603 745 651 745 c 0,66,67
 764 747 764 747 821 743 c 0,68,69
 912 735 912 735 952 704 c 0,70,71
 974 686 974 686 999 636 c 1,72,73
 1018 595 1018 595 1044 469 c 0,74,75
 1047 456 1047 456 1049 446 c 2,76,-1
 1129 98 l 2,77,78
 1177 -112 1177 -112 1173 -212 c 0,79,80
 1171 -252 1171 -252 1164 -287 c 0,81,82
 1141 -391 1141 -391 1094 -458 c 0,83,84
 975 -622 975 -622 747 -632 c 0,85,86
 520 -642 520 -642 315 -494 c 0,87,88
 290 -476 290 -476 269 -458 c 0,89,90
 112 -327 112 -327 35 -121 c 0,91,92
 31 -111 31 -111 28 -103 c 0,93,94
 13 -60 13 -60 -14 59 c 2,95,-1
 -172 745 l 1,32,-1
582 531 m 1,96,97
 560 526 560 526 545 502 c 0,98,99
 543 498 543 498 538 493 c 0,100,101
 530 482 530 482 528 474 c 0,102,103
 525 460 525 460 533 425 c 2,104,-1
 551 348 l 2,105,106
 565 286 565 286 574 273 c 0,107,108
 578 268 578 268 580 264 c 0,109,110
 587 257 587 257 604 244 c 0,111,112
 607 241 607 241 613 236 c 0,113,114
 624 225 624 225 631 221 c 1,115,116
 667 210 667 210 741 213 c 1,117,-1
 819 213 l 1,118,119
 841 220 841 220 856 244 c 2,120,-1
 873 269 l 1,121,122
 876 284 876 284 867 320 c 2,123,-1
 850 395 l 2,124,125
 836 456 836 456 833 463 c 0,126,127
 827 474 827 474 821 481 c 0,128,129
 792 514 792 514 767 525 c 1,130,131
 733 535 733 535 663 531 c 1,132,-1
 582 531 l 1,96,97
EndSplineSet
AlternateSubs2: "gsub_alternate_dfl_aalt_arab_FAR_Lookup_01_Subtable_01" uniFED6 uniFED7 qafarabic uniFED8
Substitution2: "gsub_single_rtl_fina_arab_FAR_Lookup_01_Subtable_01" uniFED6
Substitution2: "gsub_single_rtl_init_arab_FAR_Lookup_01_Subtable_01" uniFED7
Substitution2: "gsub_single_rtl_medi_arab_FAR_Lookup_01_Subtable_01" uniFED8
EndChar

StartChar: uniFED6
Encoding: 65238 65238 425
Width: 1300
VWidth: 1639
GlyphClass: 2
Flags: HW
AnchorPoint: "GposMark2BaseAnchorClassErabAbove_01_02" 579 1278 basechar 0
AnchorPoint: "GposMark2BaseAnchorClassErabBelow_01_02" 579 -800 basechar 0
LayerCount: 2
Fore
SplineSet
373 1122 m 1,0,1
 437 1128 437 1128 476 1092 c 1,2,3
 523 1046 523 1046 523 978 c 0,4,5
 523 950 523 950 513 932 c 1,6,7
 497 911 497 911 463 904 c 1,8,9
 400 895 400 895 358 930 c 1,10,11
 313 972 313 972 309 1041 c 0,12,13
 308 1074 308 1074 320 1094 c 1,14,15
 336 1115 336 1115 373 1122 c 1,0,1
661 1122 m 1,16,17
 724 1128 724 1128 762 1094 c 0,18,19
 809 1051 809 1051 812 982 c 0,20,21
 812 949 812 949 800 930 c 0,22,23
 784 909 784 909 746 902 c 1,24,25
 688 897 688 897 648 930 c 1,26,27
 601 972 601 972 597 1041 c 0,28,29
 596 1074 596 1074 608 1094 c 1,30,31
 624 1115 624 1115 661 1122 c 1,16,17
-171 745 m 1,32,-1
 33 745 l 1,33,-1
 174 134 l 2,34,35
 213 -34 213 -34 228 -75 c 0,36,37
 259 -156 259 -156 306 -215 c 0,38,39
 427 -363 427 -363 580 -409 c 0,40,41
 700 -446 700 -446 794 -399 c 0,42,43
 838 -376 838 -376 876 -330 c 1,44,45
 918 -283 918 -283 941 -223 c 1,46,47
 965 -154 965 -154 950 -30 c 1,48,-1
 924 -30 l 1,49,-1
 919 -3 l 1,50,-1
 645 -3 l 2,51,52
 531 -3 531 -3 478 22 c 0,53,54
 467 28 467 28 458 33 c 0,55,56
 408 65 408 65 381 184 c 2,57,-1
 298 541 l 2,58,59
 272 654 272 654 291 693 c 0,60,61
 293 698 293 698 296 702 c 0,62,63
 329 745 329 745 448 745 c 2,64,-1
 802 745 l 2,65,66
 918 744 918 744 963 694 c 1,67,68
 1006 635 1006 635 1030 526 c 2,69,-1
 1097 239 l 1,70,-1
 1121 239 l 1,71,-1
 1127 213 l 1,72,-1
 1280 213 l 1,73,-1
 1329 -2 l 1,74,-1
 1177 -2 l 1,75,-1
 1183 -28 l 1,76,-1
 1158 -28 l 1,77,78
 1216 -291 1216 -291 1107 -458 c 1,79,80
 1000 -615 1000 -615 776 -632 c 0,81,82
 554 -650 554 -650 354 -521 c 0,83,84
 307 -491 307 -491 267 -456 c 0,85,86
 100 -306 100 -306 29 -103 c 0,87,88
 9 -46 9 -46 -36 156 c 0,89,90
 -39 169 -39 169 -41 179 c 2,91,-1
 -171 745 l 1,32,-1
582 531 m 1,92,93
 560 526 560 526 545 502 c 0,94,95
 543 498 543 498 538 493 c 0,96,97
 530 482 530 482 529 474 c 0,98,99
 526 460 526 460 534 425 c 2,100,-1
 552 348 l 2,101,102
 566 286 566 286 574 273 c 0,103,104
 578 268 578 268 580 264 c 0,105,106
 587 257 587 257 605 244 c 0,107,108
 608 241 608 241 613 236 c 0,109,110
 624 225 624 225 631 221 c 1,111,112
 667 210 667 210 741 213 c 1,113,-1
 819 213 l 1,114,115
 841 220 841 220 856 244 c 2,116,-1
 873 269 l 1,117,118
 876 284 876 284 868 320 c 2,119,-1
 850 395 l 2,120,121
 836 456 836 456 833 463 c 0,122,123
 827 474 827 474 821 481 c 0,124,125
 792 514 792 514 767 525 c 1,126,127
 733 535 733 535 663 531 c 1,128,-1
 582 531 l 1,92,93
EndSplineSet
EndChar

StartChar: uniFED7
Encoding: 65239 65239 426
Width: 1149
VWidth: 1639
GlyphClass: 2
Flags: HW
AnchorPoint: "GposMark2BaseAnchorClassErabAbove_01_02" 456.5 1274 basechar 0
AnchorPoint: "GposMark2BaseAnchorClassErabBelow_01_02" 456.5 -152 basechar 0
LayerCount: 2
Fore
SplineSet
244 1115 m 1,0,1
 308 1124 308 1124 348 1087 c 0,2,3
 393 1045 393 1045 397 976 c 0,4,5
 398 943 398 943 386 923 c 1,6,7
 371 904 371 904 337 897 c 1,8,9
 274 888 274 888 232 923 c 1,10,11
 187 964 187 964 183 1035 c 0,12,13
 182 1069 182 1069 194 1089 c 1,14,15
 208 1108 208 1108 244 1115 c 1,0,1
532 1115 m 1,16,17
 596 1124 596 1124 638 1087 c 1,18,19
 684 1045 684 1045 686 975 c 0,20,21
 686 944 686 944 676 925 c 1,22,23
 660 904 660 904 627 897 c 1,24,25
 562 888 562 888 520 925 c 1,26,27
 474 967 474 967 471 1036 c 0,28,29
 471 1068 471 1068 482 1087 c 1,30,31
 498 1109 498 1109 532 1115 c 1,16,17
224 239 m 1,32,-1
 156 533 l 2,33,34
 130 644 130 644 144 686 c 0,35,36
 147 693 147 693 150 699 c 0,37,38
 158 713 158 713 180 725 c 0,39,40
 219 745 219 745 287 745 c 2,41,-1
 647 745 l 2,42,43
 766 744 766 744 812 702 c 1,44,45
 857 655 857 655 884 538 c 2,46,-1
 964 189 l 2,47,48
 991 68 991 68 959 34 c 1,49,50
 919 -2 919 -2 815 -2 c 2,51,-1
 673 -2 l 1,52,-1
 -29 -2 l 1,53,-1
 -78 213 l 1,54,-1
 205 213 l 1,55,-1
 199 239 l 1,56,-1
 224 239 l 1,32,-1
438 533 m 1,57,58
 415 528 415 528 400 502 c 1,59,60
 384 483 384 483 381 476 c 0,61,62
 376 452 376 452 399 368 c 0,63,64
 402 357 402 357 404 351 c 0,65,66
 419 287 419 287 428 272 c 0,67,68
 432 267 432 267 435 264 c 0,69,70
 437 261 437 261 440.5 258.5 c 128,-1,71
 444 256 444 256 450 252 c 2,72,-1
 457 248 l 2,73,74
 461 245 461 245 467 238 c 0,75,76
 478 227 478 227 484 223 c 1,77,78
 517 211 517 211 590 213 c 1,79,80
 662 213 662 213 675 215 c 0,81,82
 694 218 694 218 709 245 c 2,83,-1
 710 246 l 1,84,-1
 727 271 l 1,85,86
 730 286 730 286 721 323 c 2,87,-1
 704 400 l 2,88,89
 690 461 690 461 680 475 c 0,90,91
 676 480 676 480 674 484 c 0,92,93
 670 488 670 488 662 493 c 0,94,95
 655 498 655 498 653 500 c 2,96,-1
 625 525 l 1,97,98
 590 536 590 536 517 533 c 1,99,-1
 438 533 l 1,57,58
EndSplineSet
EndChar

StartChar: uniFED8
Encoding: 65240 65240 427
Width: 1167
VWidth: 1639
GlyphClass: 2
Flags: HW
AnchorPoint: "GposMark2BaseAnchorClassErabAbove_01_02" 557.5 1274 basechar 0
AnchorPoint: "GposMark2BaseAnchorClassErabBelow_01_02" 557.5 -152 basechar 0
LayerCount: 2
Fore
SplineSet
244 1115 m 1,0,1
 308 1124 308 1124 348 1087 c 0,2,3
 393 1045 393 1045 397 976 c 0,4,5
 398 943 398 943 386 923 c 1,6,7
 371 904 371 904 337 897 c 1,8,9
 274 888 274 888 232 923 c 1,10,11
 187 964 187 964 183 1035 c 0,12,13
 182 1069 182 1069 194 1089 c 1,14,15
 208 1108 208 1108 244 1115 c 1,0,1
532 1115 m 1,16,17
 596 1124 596 1124 638 1087 c 1,18,19
 684 1045 684 1045 686 975 c 0,20,21
 686 944 686 944 676 925 c 1,22,23
 660 904 660 904 627 897 c 1,24,25
 562 888 562 888 520 925 c 1,26,27
 474 967 474 967 471 1036 c 0,28,29
 471 1068 471 1068 482 1087 c 1,30,31
 498 1109 498 1109 532 1115 c 1,16,17
234 239 m 1,32,-1
 167 533 l 2,33,34
 142 641 142 641 155 684 c 0,35,36
 158 692 158 692 160 699 c 0,37,38
 184 745 184 745 296 745 c 2,39,-1
 664 745 l 2,40,41
 779 744 779 744 824 699 c 1,42,43
 868 648 868 648 893 540 c 2,44,-1
 962 239 l 1,45,-1
 986 239 l 1,46,-1
 992 213 l 1,47,-1
 1146 213 l 1,48,-1
 1183 52 l 1,49,-1
 1192 15 l 1,50,-1
 1193 0 l 1,51,-1
 1172 -2 l 1,52,-1
 1111 -2 l 1,53,-1
 877 -2 l 1,54,-1
 -29 -2 l 1,55,-1
 -78 213 l 1,56,-1
 216 213 l 1,57,-1
 210 239 l 1,58,-1
 234 239 l 1,32,-1
448 531 m 1,59,60
 427 528 427 528 411 501 c 2,61,-1
 411 500 l 1,62,-1
 393 476 l 1,63,64
 388 452 388 452 412 366 c 0,65,66
 415 355 415 355 416 349 c 0,67,68
 430 286 430 286 439 273 c 0,69,70
 442 268 442 268 445 264 c 0,71,72
 451 258 451 258 469 246 c 0,73,74
 472 243 472 243 479 237 c 0,75,76
 490 226 490 226 496 221 c 1,77,78
 532 210 532 210 608 213 c 1,79,-1
 686 213 l 1,80,81
 707 220 707 220 721 244 c 1,82,83
 737 263 737 263 740 271 c 0,84,85
 745 295 745 295 721 380 c 0,86,87
 718 391 718 391 717 397 c 0,88,89
 703 458 703 458 692 474 c 0,90,91
 688 480 688 480 684 484 c 0,92,93
 678 489 678 489 664 499 c 0,94,95
 661 502 661 502 655 508 c 0,96,97
 644 519 644 519 637 523 c 1,98,99
 602 534 602 534 528 531 c 1,100,-1
 448 531 l 1,59,60
EndSplineSet
EndChar

StartChar: uniFEDB
Encoding: 65243 65243 430
Width: 682
GlyphClass: 2
Flags: HW
AnchorPoint: "GposMark2BaseAnchorClassErabAbove_01_02" 112.5 1721 basechar 0
AnchorPoint: "GposMark2BaseAnchorClassErabBelow_01_02" 112.5 -50 basechar 0
LayerCount: 2
Fore
SplineSet
467 1561 m 1,0,1
 463 1507 463 1507 459 1476.5 c 128,-1,2
 455 1446 455 1446 453 1432 c 0,3,4
 447 1368 447 1368 433 1363 c 1,5,6
 372 1332 372 1332 287.5 1279.5 c 128,-1,7
 203 1227 203 1227 97 1161 c 0,8,9
 52 1133 52 1133 14 1107.5 c 128,-1,10
 -24 1082 -24 1082 -54.5 1060 c 128,-1,11
 -85 1038 -85 1038 -105.5 1021 c 128,-1,12
 -126 1004 -126 1004 -137 993 c 1,13,14
 -60 954 -60 954 8 912.5 c 128,-1,15
 76 871 76 871 142 824 c 1,16,17
 328 689 328 689 395 585 c 1,18,19
 414 546 414 546 426 494 c 0,20,21
 461 342 461 342 427 256 c 128,-1,22
 393 170 393 170 307 139 c 0,23,24
 281 130 281 130 255.5 122.5 c 128,-1,25
 230 115 230 115 197 110 c 128,-1,26
 164 105 164 105 121 102.5 c 128,-1,27
 78 100 78 100 18 100 c 2,28,-1
 -52 100 l 1,29,-1
 -93 277 l 1,30,-1
 -62 277 l 2,31,32
 45 277 45 277 121 282 c 128,-1,33
 197 287 197 287 247.5 296.5 c 128,-1,34
 298 306 298 306 327.5 319 c 128,-1,35
 357 332 357 332 371 348 c 128,-1,36
 385 364 385 364 386.5 382.5 c 128,-1,37
 388 401 388 401 384 420 c 0,38,39
 372 470 372 470 252 567 c 128,-1,40
 132 664 132 664 -107 808 c 1,41,42
 -157 837 -157 837 -183 859.5 c 128,-1,43
 -209 882 -209 882 -212 893 c 2,44,-1
 -218 921 l 2,45,46
 -242 1026 -242 1026 -231 1055 c 1,47,48
 -215 1089 -215 1089 -160 1141 c 128,-1,49
 -105 1193 -105 1193 -13 1266 c 0,50,51
 85 1343 85 1343 200.5 1417 c 128,-1,52
 316 1491 316 1491 454 1571 c 1,53,54
 464 1569 464 1569 467 1561 c 1,0,1
EndSplineSet
EndChar

StartChar: uniFEDC
Encoding: 65244 65244 431
Width: 964
GlyphClass: 2
Flags: HW
AnchorPoint: "GposMark2BaseAnchorClassErabAbove_01_02" 366 1721 basechar 0
AnchorPoint: "GposMark2BaseAnchorClassErabBelow_01_02" 366 -50 basechar 0
LayerCount: 2
Fore
SplineSet
971 100 m 1,0,-1
 901 100 l 2,1,2
 788 100 788 100 649.5 192.5 c 128,-1,3
 511 285 511 285 343 474 c 1,4,5
 346 466 346 466 347.5 458.5 c 128,-1,6
 349 451 349 451 351 443 c 0,7,8
 366 380 366 380 372.5 330 c 128,-1,9
 379 280 379 280 372.5 242 c 128,-1,10
 366 204 366 204 344 177 c 128,-1,11
 322 150 322 150 280.5 133 c 128,-1,12
 239 116 239 116 174.5 108 c 128,-1,13
 110 100 110 100 18 100 c 2,14,-1
 -52 100 l 1,15,-1
 -93 277 l 1,16,-1
 -62 277 l 2,17,18
 4 277 4 277 48 278.5 c 128,-1,19
 92 280 92 280 123 283.5 c 128,-1,20
 154 287 154 287 174 292 c 128,-1,21
 194 297 194 297 212 304 c 0,22,23
 313 340 313 340 288 450 c 0,24,25
 269 532 269 532 88 669 c 0,26,27
 86 671 86 671 63.5 686 c 128,-1,28
 41 701 41 701 8 723 c 128,-1,29
 -25 745 -25 745 -63.5 771.5 c 128,-1,30
 -102 798 -102 798 -134.5 822 c 128,-1,31
 -167 846 -167 846 -189.5 865.5 c 128,-1,32
 -212 885 -212 885 -214 893 c 2,33,-1
 -221 924 l 2,34,35
 -233 975 -233 975 -236 1009 c 128,-1,36
 -239 1043 -239 1043 -234 1055 c 1,37,38
 -215 1088 -215 1088 -159 1141 c 0,39,40
 -102 1194 -102 1194 -14 1266 c 1,41,42
 85 1341 85 1341 200 1416.5 c 128,-1,43
 315 1492 315 1492 453 1571 c 1,44,45
 461 1570 461 1570 465 1561 c 1,46,-1
 463 1536 l 2,47,48
 458 1484 458 1484 454.5 1451.5 c 128,-1,49
 451 1419 451 1419 448 1400 c 128,-1,50
 445 1381 445 1381 441.5 1373 c 128,-1,51
 438 1365 438 1365 432 1363 c 0,52,53
 362 1331 362 1331 275.5 1277.5 c 128,-1,54
 189 1224 189 1224 83 1158 c 0,55,56
 35 1128 35 1128 -4 1100.5 c 128,-1,57
 -43 1073 -43 1073 -72 1050.5 c 128,-1,58
 -101 1028 -101 1028 -117.5 1011.5 c 128,-1,59
 -134 995 -134 995 -137 987 c 1,60,61
 -11 906 -11 906 100.5 825 c 128,-1,62
 212 744 212 744 300 671 c 1,63,64
 375 602 375 602 447 536 c 128,-1,65
 519 470 519 470 592 404 c 1,66,67
 744 277 744 277 899 277 c 2,68,-1
 930 277 l 1,69,-1
 971 100 l 1,0,-1
EndSplineSet
EndChar

StartChar: lamarabic
Encoding: 1604 1604 432
AltUni2: 00fedd.ffffffff.0
Width: 1104
VWidth: 1639
GlyphClass: 2
Flags: HW
AnchorPoint: "GposMark2BaseAnchorClassErabAbove_01_02" 414.5 1508 basechar 0
AnchorPoint: "GposMark2BaseAnchorClassErabBelow_01_02" 414.5 -750 basechar 0
LayerCount: 2
Fore
SplineSet
445 1358 m 1,0,-1
 649 1358 l 1,1,-1
 902 266 l 1,2,-1
 952 48 l 2,3,4
 1000 -158 1000 -158 978 -267 c 0,5,6
 976 -279 976 -279 973 -289 c 0,7,8
 929 -445 929 -445 816 -513 c 1,9,10
 668 -600 668 -600 464 -540 c 0,11,12
 266 -482 266 -482 139 -318 c 0,13,14
 131 -308 131 -308 124 -298 c 0,15,16
 43 -184 43 -184 -5 20 c 0,17,18
 -9 38 -9 38 -17 74 c 0,19,20
 -24 106 -24 106 -28 123 c 2,21,-1
 -171 743 l 1,22,-1
 33 743 l 1,23,-1
 171 148 l 1,24,-1
 203 10 l 2,25,26
 230 -104 230 -104 264 -156 c 0,27,28
 293 -198 293 -198 345 -243 c 0,29,30
 414 -302 414 -302 467 -323 c 1,31,32
 578 -365 578 -365 662 -315 c 0,33,34
 665 -313 665 -313 667 -312 c 0,35,36
 697 -291 697 -291 729 -244 c 0,37,38
 763 -194 763 -194 772 -157 c 0,39,40
 784 -105 784 -105 757 8 c 0,41,42
 753 24 753 24 751 33 c 2,43,-1
 687 308 l 1,44,-1
 445 1358 l 1,0,-1
EndSplineSet
AlternateSubs2: "gsub_alternate_dfl_aalt_arab_FAR_Lookup_01_Subtable_01" uniFEDE uniFEDF lamarabic uniFEE0
Substitution2: "gsub_single_rtl_fina_arab_FAR_Lookup_01_Subtable_01" uniFEDE
Substitution2: "gsub_single_rtl_init_arab_FAR_Lookup_01_Subtable_01" uniFEDF
Substitution2: "gsub_single_rtl_medi_arab_FAR_Lookup_01_Subtable_01" uniFEE0
EndChar

StartChar: uniFEDE
Encoding: 65246 65246 433
Width: 1111
VWidth: 1639
GlyphClass: 2
Flags: HW
AnchorPoint: "GposMark2BaseAnchorClassErabAbove_01_02" 484.5 1508 basechar 0
AnchorPoint: "GposMark2BaseAnchorClassErabBelow_01_02" 484.5 -713 basechar 0
LayerCount: 2
Fore
SplineSet
445 1358 m 1,0,-1
 649 1358 l 1,1,-1
 908 239 l 1,2,-1
 932 239 l 1,3,-1
 938 213 l 1,4,-1
 1091 213 l 1,5,-1
 1140 -2 l 1,6,-1
 988 -2 l 1,7,-1
 994 -28 l 1,8,-1
 969 -28 l 1,9,10
 1015 -229 1015 -229 943 -375 c 0,11,12
 927 -406 927 -406 908 -431 c 0,13,14
 803 -563 803 -563 606 -563 c 0,15,16
 405 -562 405 -562 240 -423 c 0,17,18
 220 -406 220 -406 204 -390 c 0,19,20
 86 -271 86 -271 35 -131 c 0,21,22
 17 -80 17 -80 -23 100 c 0,23,24
 -26 112 -26 112 -27 121 c 2,25,-1
 -171 743 l 1,26,-1
 33 743 l 1,27,-1
 171 148 l 1,28,-1
 203 10 l 2,29,30
 230 -104 230 -104 264 -156 c 0,31,32
 293 -198 293 -198 345 -243 c 0,33,34
 414 -302 414 -302 467 -323 c 1,35,36
 578 -365 578 -365 662 -315 c 0,37,38
 665 -313 665 -313 667 -312 c 0,39,40
 697 -291 697 -291 730 -244 c 0,41,42
 764 -194 764 -194 772 -157 c 0,43,44
 784 -105 784 -105 757 8 c 0,45,46
 753 24 753 24 751 33 c 2,47,-1
 687 308 l 1,48,-1
 445 1358 l 1,0,-1
EndSplineSet
EndChar

StartChar: uniFEDF
Encoding: 65247 65247 434
Width: 630
VWidth: 1639
GlyphClass: 2
Flags: HW
AnchorPoint: "GposMark2BaseAnchorClassErabAbove_01_02" 185 1506 basechar 0
AnchorPoint: "GposMark2BaseAnchorClassErabBelow_01_02" 185 -152 basechar 0
LayerCount: 2
Fore
SplineSet
-34 1356 m 1,0,-1
 175 1356 l 1,1,-1
 394 407 l 2,2,3
 399 387 399 387 409 345 c 0,4,5
 441 216 441 216 445 154 c 0,6,7
 448 85 448 85 424 52 c 1,8,9
 380 -2 380 -2 249 -2 c 2,10,-1
 -29 -2 l 1,11,-1
 -78 213 l 1,12,-1
 62 213 l 2,13,14
 128 214 128 214 145 221 c 1,15,16
 170 237 170 237 194 277 c 0,17,18
 209 306 209 306 191 382 c 2,19,-1
 147 571 l 1,20,-1
 -34 1356 l 1,0,-1
EndSplineSet
EndChar

StartChar: uniFEE0
Encoding: 65248 65248 435
Width: 647
VWidth: 1639
GlyphClass: 2
Flags: HW
AnchorPoint: "GposMark2BaseAnchorClassErabAbove_01_02" 299 1506 basechar 0
AnchorPoint: "GposMark2BaseAnchorClassErabBelow_01_02" 299 -152 basechar 0
LayerCount: 2
Fore
SplineSet
-20 1356 m 1,0,-1
 185 1356 l 1,1,-1
 443 239 l 1,2,-1
 468 239 l 1,3,-1
 474 213 l 1,4,-1
 626 213 l 1,5,-1
 676 -2 l 1,6,-1
 -29 -2 l 1,7,-1
 -78 213 l 1,8,-1
 219 213 l 1,9,-1
 213 239 l 1,10,-1
 237 239 l 1,11,-1
 -20 1356 l 1,0,-1
EndSplineSet
EndChar

StartChar: meemarabic
Encoding: 1605 1605 436
AltUni2: 00fee1.ffffffff.0
Width: 1180
VWidth: 1639
GlyphClass: 2
Flags: HW
AnchorPoint: "GposMark2BaseAnchorClassErabAbove_01_02" 503.5 895 basechar 0
AnchorPoint: "GposMark2BaseAnchorClassErabBelow_01_02" 503.5 -959 basechar 0
LayerCount: 2
Fore
SplineSet
139 745 m 1,0,-1
 595 745 l 2,1,2
 718 745 718 745 730 743 c 0,3,4
 785 736 785 736 827 713 c 1,5,6
 882 680 882 680 908 567 c 2,7,-1
 997 180 l 2,8,9
 1023 62 1023 62 984 31 c 0,10,11
 943 -3 943 -3 830 -2 c 0,12,13
 809 -2 809 -2 803 -2 c 2,14,-1
 458 -2 l 2,15,16
 446 -2 446 -2 419 -0 c 0,17,18
 329 4 329 4 297 -13 c 0,19,20
 269 -28 269 -28 245 -71 c 1,21,22
 234 -96 234 -96 241 -151 c 0,23,24
 243 -169 243 -169 270 -284 c 2,25,-1
 391 -809 l 1,26,-1
 187 -809 l 1,27,-1
 29 -126 l 2,28,29
 -3 13 -3 13 -5 27 c 0,30,31
 -16 113 -16 113 12 157 c 1,32,33
 26 176 26 176 64 194 c 1,34,35
 115 214 115 214 238 213 c 1,36,-1
 231 239 l 1,37,-1
 256 239 l 1,38,-1
 139 745 l 1,0,-1
498 213 m 1,39,-1
 655 213 l 2,40,41
 711 213 711 213 722 219 c 0,42,43
 727 222 727 222 729 223 c 0,44,45
 734 228 734 228 742 246 c 1,46,47
 759 266 759 266 761 272 c 0,48,49
 762 290 762 290 747 353 c 0,50,51
 745 362 745 362 741 383 c 0,52,53
 729 449 729 449 713 474 c 0,54,55
 708 479 708 479 684 499 c 0,56,57
 681 502 681 502 675 507 c 0,58,59
 663 518 663 518 657 522 c 0,60,61
 637 531 637 531 581 530 c 2,62,-1
 425 530 l 1,63,-1
 431 503 l 1,64,-1
 407 503 l 1,65,-1
 468 239 l 1,66,-1
 492 239 l 1,67,-1
 498 213 l 1,39,-1
EndSplineSet
AlternateSubs2: "gsub_alternate_dfl_aalt_arab_FAR_Lookup_01_Subtable_01" uniFEE2 uniFEE3 meemarabic uniFEE4
Substitution2: "gsub_single_rtl_fina_arab_FAR_Lookup_01_Subtable_01" uniFEE2
Substitution2: "gsub_single_rtl_init_arab_FAR_Lookup_01_Subtable_01" uniFEE3
Substitution2: "gsub_single_rtl_medi_arab_FAR_Lookup_01_Subtable_01" uniFEE4
EndChar

StartChar: uniFEE2
Encoding: 65250 65250 437
Width: 1187
VWidth: 1639
GlyphClass: 2
Flags: HW
AnchorPoint: "GposMark2BaseAnchorClassErabAbove_01_02" 600 895 basechar 0
AnchorPoint: "GposMark2BaseAnchorClassErabBelow_01_02" 600 -959 basechar 0
LayerCount: 2
Fore
SplineSet
139 745 m 1,0,-1
 641 745 l 2,1,2
 743 745 743 745 783 731 c 0,3,4
 786 730 786 730 788 730 c 0,5,6
 825 719 825 719 843 700 c 1,7,8
 888 649 888 649 914 540 c 2,9,-1
 983 239 l 1,10,-1
 1008 239 l 1,11,-1
 1014 213 l 1,12,-1
 1166 213 l 1,13,-1
 1216 -2 l 1,14,-1
 504 -2 l 1,15,-1
 383 -2 l 2,16,17
 319 -3 319 -3 299 -11 c 0,18,19
 265 -29 265 -29 244 -74 c 0,20,21
 232 -101 232 -101 241 -151 c 0,22,23
 244 -170 244 -170 271 -290 c 2,24,-1
 391 -809 l 1,25,-1
 187 -809 l 1,26,-1
 29 -126 l 2,27,28
 -3 13 -3 13 -5 27 c 0,29,30
 -16 113 -16 113 12 157 c 1,31,32
 26 176 26 176 64 194 c 1,33,34
 115 214 115 214 238 213 c 1,35,-1
 231 239 l 1,36,-1
 256 239 l 1,37,-1
 139 745 l 1,0,-1
498 213 m 1,38,-1
 655 213 l 2,39,40
 711 213 711 213 722 219 c 0,41,42
 727 222 727 222 729 223 c 0,43,44
 734 228 734 228 742 246 c 1,45,46
 759 266 759 266 761 272 c 0,47,48
 762 290 762 290 747 353 c 0,49,50
 745 362 745 362 741 383 c 0,51,52
 729 449 729 449 713 474 c 0,53,54
 708 479 708 479 684 499 c 0,55,56
 681 502 681 502 675 507 c 0,57,58
 663 518 663 518 657 522 c 0,59,60
 637 531 637 531 581 530 c 2,61,-1
 425 530 l 1,62,-1
 431 503 l 1,63,-1
 407 503 l 1,64,-1
 468 239 l 1,65,-1
 492 239 l 1,66,-1
 498 213 l 1,38,-1
EndSplineSet
EndChar

StartChar: uniFEE3
Encoding: 65251 65251 438
Width: 1160
VWidth: 1639
GlyphClass: 2
Flags: HW
AnchorPoint: "GposMark2BaseAnchorClassErabAbove_01_02" 462 895 basechar 0
AnchorPoint: "GposMark2BaseAnchorClassErabBelow_01_02" 462 -152 basechar 0
LayerCount: 2
Fore
SplineSet
118 745 m 1,0,-1
 569 745 l 2,1,2
 694 745 694 745 706 743 c 0,3,4
 763 736 763 736 805 713 c 1,5,6
 861 680 861 680 888 566 c 2,7,-1
 977 180 l 2,8,9
 1002 65 1002 65 967 33 c 1,10,11
 925 -1 925 -1 818 -2 c 2,12,-1
 671 -2 l 1,13,-1
 -29 -2 l 1,14,-1
 -78 213 l 1,15,-1
 216 213 l 1,16,-1
 210 239 l 1,17,-1
 234 239 l 1,18,-1
 118 745 l 1,0,-1
477 213 m 1,19,-1
 632 213 l 2,20,21
 694 214 694 214 709 225 c 1,22,23
 713 230 713 230 721 246 c 0,24,25
 723 249 723 249 728 255 c 0,26,27
 737 266 737 266 739 272 c 0,28,29
 741 285 741 285 733 320 c 2,30,-1
 715 395 l 2,31,32
 701 457 701 457 697 465 c 0,33,34
 694 470 694 470 693 472 c 0,35,36
 674 499 674 499 637 522 c 1,37,38
 614 533 614 533 559 531 c 2,39,-1
 403 531 l 1,40,-1
 409 505 l 1,41,-1
 385 505 l 1,42,-1
 446 239 l 1,43,-1
 471 239 l 1,44,-1
 477 213 l 1,19,-1
EndSplineSet
EndChar

StartChar: uniFEE4
Encoding: 65252 65252 439
Width: 1167
VWidth: 1639
GlyphClass: 2
Flags: HW
AnchorPoint: "GposMark2BaseAnchorClassErabAbove_01_02" 559 895 basechar 0
AnchorPoint: "GposMark2BaseAnchorClassErabBelow_01_02" 559 -152 basechar 0
LayerCount: 2
Fore
SplineSet
118 745 m 1,0,-1
 623 745 l 2,1,2
 727 744 727 744 771 728 c 0,3,4
 810 713 810 713 825 699 c 1,5,6
 869 647 869 647 895 536 c 2,7,-1
 963 239 l 1,8,-1
 988 239 l 1,9,-1
 994 213 l 1,10,-1
 1146 213 l 1,11,-1
 1196 -2 l 1,12,-1
 -29 -2 l 1,13,-1
 -78 213 l 1,14,-1
 216 213 l 1,15,-1
 210 239 l 1,16,-1
 234 239 l 1,17,-1
 118 745 l 1,0,-1
477 213 m 1,18,-1
 632 213 l 2,19,20
 694 214 694 214 709 225 c 1,21,22
 713 230 713 230 721 246 c 0,23,24
 723 249 723 249 728 255 c 0,25,26
 737 266 737 266 739 272 c 0,27,28
 741 285 741 285 733 320 c 2,29,-1
 715 395 l 2,30,31
 701 457 701 457 697 465 c 0,32,33
 694 470 694 470 693 472 c 0,34,35
 674 499 674 499 637 522 c 1,36,37
 614 533 614 533 559 531 c 2,38,-1
 403 531 l 1,39,-1
 409 505 l 1,40,-1
 385 505 l 1,41,-1
 446 239 l 1,42,-1
 471 239 l 1,43,-1
 477 213 l 1,18,-1
EndSplineSet
EndChar

StartChar: noonarabic
Encoding: 1606 1606 440
AltUni2: 00fee5.ffffffff.0
Width: 1105
VWidth: 1639
GlyphClass: 2
Flags: HW
AnchorPoint: "GposMark2BaseAnchorClassErabAbove_01_02" 408 1283 basechar 0
AnchorPoint: "GposMark2BaseAnchorClassErabBelow_01_02" 408 -753 basechar 0
LayerCount: 2
Fore
SplineSet
207 1127 m 1,0,1
 269 1133 269 1133 310 1099 c 1,2,3
 356 1058 356 1058 358 987 c 0,4,5
 358 954 358 954 346 935 c 1,6,7
 330 914 330 914 292 907 c 1,8,9
 234 902 234 902 194 935 c 1,10,11
 147 977 147 977 145 1047 c 0,12,13
 145 1079 145 1079 156 1099 c 0,14,15
 170 1120 170 1120 207 1127 c 1,0,1
587 745 m 1,16,-1
 791 745 l 1,17,-1
 932 136 l 2,18,19
 981 -75 981 -75 984 -155 c 0,20,21
 987 -241 987 -241 968 -310 c 1,22,23
 923 -448 923 -448 816 -513 c 0,24,25
 663 -603 663 -603 456 -538 c 0,26,27
 260 -476 260 -476 132 -308 c 0,28,29
 116 -287 116 -287 104 -267 c 0,30,31
 36 -162 36 -162 -8 35 c 0,32,33
 -10 46 -10 46 -15 66 c 0,34,35
 -24 105 -24 105 -28 125 c 2,36,-1
 -171 743 l 1,37,-1
 34 743 l 1,38,-1
 171 148 l 1,39,-1
 203 10 l 2,40,41
 230 -104 230 -104 264 -156 c 0,42,43
 293 -198 293 -198 345 -243 c 0,44,45
 414 -302 414 -302 467 -323 c 1,46,47
 578 -365 578 -365 663 -315 c 0,48,49
 666 -313 666 -313 668 -312 c 0,50,51
 698 -291 698 -291 730 -244 c 0,52,53
 764 -194 764 -194 772 -157 c 0,54,55
 783 -104 783 -104 758 2 c 2,56,-1
 726 141 l 1,57,-1
 587 745 l 1,16,-1
EndSplineSet
AlternateSubs2: "gsub_alternate_dfl_aalt_arab_FAR_Lookup_01_Subtable_01" uniFEE6 uniFEE7 noonarabic uniFEE8
Substitution2: "gsub_single_rtl_fina_arab_FAR_Lookup_01_Subtable_01" uniFEE6
Substitution2: "gsub_single_rtl_init_arab_FAR_Lookup_01_Subtable_01" uniFEE7
Substitution2: "gsub_single_rtl_medi_arab_FAR_Lookup_01_Subtable_01" uniFEE8
EndChar

StartChar: uniFEE6
Encoding: 65254 65254 441
Width: 1110
VWidth: 1639
GlyphClass: 2
Flags: HW
AnchorPoint: "GposMark2BaseAnchorClassErabAbove_01_02" 484 1283 basechar 0
AnchorPoint: "GposMark2BaseAnchorClassErabBelow_01_02" 484 -713 basechar 0
LayerCount: 2
Fore
SplineSet
207 1127 m 1,0,1
 269 1133 269 1133 310 1099 c 1,2,3
 356 1058 356 1058 358 987 c 0,4,5
 358 954 358 954 346 935 c 1,6,7
 330 914 330 914 291 907 c 1,8,9
 233 902 233 902 193 935 c 1,10,11
 146 977 146 977 144 1047 c 0,12,13
 144 1079 144 1079 156 1099 c 0,14,15
 170 1120 170 1120 207 1127 c 1,0,1
587 745 m 1,16,-1
 791 745 l 1,17,-1
 908 239 l 1,18,-1
 932 239 l 1,19,-1
 938 213 l 1,20,-1
 1089 213 l 1,21,-1
 1139 -2 l 1,22,-1
 988 -2 l 1,23,-1
 994 -28 l 1,24,-1
 969 -28 l 1,25,26
 1015 -229 1015 -229 943 -375 c 0,27,28
 927 -406 927 -406 908 -431 c 0,29,30
 803 -563 803 -563 606 -563 c 0,31,32
 405 -562 405 -562 240 -423 c 0,33,34
 220 -406 220 -406 204 -390 c 0,35,36
 86 -271 86 -271 35 -131 c 0,37,38
 17 -80 17 -80 -23 100 c 0,39,40
 -26 112 -26 112 -27 121 c 2,41,-1
 -171 743 l 1,42,-1
 33 743 l 1,43,-1
 171 148 l 1,44,-1
 203 10 l 2,45,46
 230 -104 230 -104 264 -156 c 0,47,48
 293 -198 293 -198 345 -243 c 0,49,50
 414 -302 414 -302 467 -323 c 1,51,52
 578 -365 578 -365 662 -315 c 0,53,54
 665 -313 665 -313 667 -312 c 0,55,56
 697 -291 697 -291 730 -244 c 0,57,58
 764 -194 764 -194 772 -157 c 0,59,60
 783 -104 783 -104 758 2 c 2,61,-1
 726 141 l 1,62,-1
 587 745 l 1,16,-1
EndSplineSet
EndChar

StartChar: uniFEE7
Encoding: 65255 65255 442
Width: 628
VWidth: 1639
GlyphClass: 2
Flags: HW
AnchorPoint: "GposMark2BaseAnchorClassErabAbove_01_02" 192 1283 basechar 0
AnchorPoint: "GposMark2BaseAnchorClassErabBelow_01_02" 192 -152 basechar 0
LayerCount: 2
Fore
SplineSet
94 1127 m 1,0,1
 156 1133 156 1133 196 1099 c 1,2,3
 242 1058 242 1058 244 987 c 0,4,5
 244 954 244 954 232 935 c 0,6,7
 218 914 218 914 178 907 c 1,8,9
 120 902 120 902 80 935 c 1,10,11
 33 977 33 977 31 1047 c 0,12,13
 31 1079 31 1079 42 1099 c 0,14,15
 57 1120 57 1120 94 1127 c 1,0,1
112 743 m 1,16,-1
 315 743 l 1,17,-1
 427 259 l 2,18,19
 462 102 462 102 421 52 c 1,20,21
 373 -2 373 -2 235 -2 c 2,22,-1
 -29 -2 l 1,23,-1
 -78 213 l 1,24,-1
 80 213 l 2,25,26
 146 214 146 214 163 225 c 0,27,28
 173 233 173 233 183 251 c 1,29,-1
 200 276 l 1,30,31
 212 308 212 308 193 392 c 2,32,-1
 112 743 l 1,16,-1
EndSplineSet
EndChar

StartChar: uniFEE8
Encoding: 65256 65256 443
Width: 641
VWidth: 1639
GlyphClass: 2
Flags: HW
AnchorPoint: "GposMark2BaseAnchorClassErabAbove_01_02" 295 1283 basechar 0
AnchorPoint: "GposMark2BaseAnchorClassErabBelow_01_02" 295 -152 basechar 0
LayerCount: 2
Fore
SplineSet
92 1127 m 1,0,1
 156 1133 156 1133 195 1097 c 1,2,3
 242 1051 242 1051 243 983 c 0,4,5
 243 955 243 955 232 936 c 1,6,7
 216 915 216 915 182 909 c 1,8,9
 119 900 119 900 77 935 c 1,10,11
 32 977 32 977 28 1046 c 0,12,13
 27 1079 27 1079 39 1099 c 1,14,15
 55 1120 55 1120 92 1127 c 1,0,1
112 743 m 1,16,-1
 315 743 l 1,17,-1
 431 239 l 1,18,-1
 456 239 l 1,19,-1
 462 213 l 1,20,-1
 620 213 l 1,21,-1
 656 57 l 1,22,-1
 666 16 l 2,23,24
 668 2 l 0,25,26
 665 -2 665 -2 626 -2 c 2,27,-1
 496 -2 l 1,28,-1
 -29 -2 l 1,29,-1
 -78 213 l 1,30,-1
 210 213 l 1,31,-1
 204 239 l 1,32,-1
 228 239 l 1,33,-1
 112 743 l 1,16,-1
EndSplineSet
EndChar

StartChar: afii57470
Encoding: 1607 1607 444
AltUni2: 00fee9.ffffffff.0
Width: 845
VWidth: 1639
GlyphClass: 4
Flags: HW
AnchorPoint: "GposMark2BaseAnchorClassErabAbove_01_02" 274 898 basechar 0
AnchorPoint: "GposMark2BaseAnchorClassErabBelow_01_02" 274 -152 basechar 0
LayerCount: 2
Fore
SplineSet
703 -2 m 1,0,-1
 272 -2 l 2,1,2
 149 -2 149 -2 137 -0 c 0,3,4
 82 7 82 7 40 30 c 1,5,6
 -15 63 -15 63 -40 174 c 2,7,-1
 -129 559 l 2,8,9
 -155 677 -155 677 -122 708 c 0,10,11
 -80 748 -80 748 39 745 c 0,12,13
 76 744 76 744 84 745 c 2,14,-1
 531 745 l 1,15,-1
 703 -2 l 1,0,-1
365 535 m 1,16,-1
 206 535 l 2,17,18
 150 535 150 535 139 529 c 0,19,20
 135 526 135 526 132 525 c 0,21,22
 126 520 126 520 119 503 c 1,23,24
 103 483 103 483 101 479 c 0,25,26
 95 454 95 454 118 371 c 0,27,28
 121 361 121 361 123 354 c 0,29,30
 139 288 139 288 148 272 c 0,31,32
 152 265 152 265 174 248 c 0,33,34
 177 246 177 246 178 244 c 0,35,36
 198 225 198 225 204 221 c 0,37,38
 224 212 224 212 280 213 c 2,39,-1
 439 213 l 1,40,-1
 433 239 l 1,41,-1
 457 239 l 1,42,-1
 395 508 l 1,43,-1
 371 508 l 1,44,-1
 365 535 l 1,16,-1
EndSplineSet
AlternateSubs2: "gsub_alternate_dfl_aalt_arab_FAR_Lookup_01_Subtable_01" uniFEEA uniFEEB afii57470 uniFEEC
Substitution2: "gsub_single_rtl_fina_arab_FAR_Lookup_01_Subtable_01" uniFEEA
Substitution2: "gsub_single_rtl_init_arab_FAR_Lookup_01_Subtable_01" uniFEEB
Substitution2: "gsub_single_rtl_medi_arab_FAR_Lookup_01_Subtable_01" uniFEEC
EndChar

StartChar: uniFEEA
Encoding: 65258 65258 445
Width: 872
VWidth: 1639
GlyphClass: 2
Flags: HW
AnchorPoint: "GposMark2BaseAnchorClassErabAbove_01_02" 372.5 981 basechar 0
AnchorPoint: "GposMark2BaseAnchorClassErabBelow_01_02" 372.5 -152 basechar 0
LayerCount: 2
Fore
SplineSet
321 831 m 1,0,-1
 536 831 l 1,1,-1
 672 239 l 1,2,-1
 697 239 l 1,3,-1
 703 213 l 1,4,-1
 852 213 l 1,5,-1
 889 52 l 1,6,-1
 898 15 l 2,7,8
 900 2 900 2 898 0 c 0,9,10
 897 -2 897 -2 889 -2 c 0,11,12
 888 -2 888 -2 887 -2 c 2,13,-1
 885 -2 l 1,14,-1
 847 -2 l 1,15,-1
 699 -2 l 1,16,-1
 249 -2 l 2,17,18
 137 -2 137 -2 108 4 c 0,19,20
 63 14 63 14 29 38 c 0,21,22
 -17 72 -17 72 -43 187 c 2,23,-1
 -130 563 l 2,24,25
 -155 676 -155 676 -122 708 c 1,26,27
 -73 744 -73 744 37 745 c 2,28,-1
 316 745 l 1,29,-1
 310 771 l 1,30,-1
 335 771 l 1,31,-1
 321 831 l 1,0,-1
365 535 m 1,32,-1
 206 535 l 2,33,34
 150 535 150 535 139 529 c 0,35,36
 135 526 135 526 132 525 c 0,37,38
 126 520 126 520 119 503 c 1,39,40
 103 483 103 483 101 479 c 0,41,42
 95 454 95 454 118 371 c 0,43,44
 121 361 121 361 123 354 c 0,45,46
 139 288 139 288 148 272 c 0,47,48
 152 265 152 265 174 248 c 0,49,50
 177 246 177 246 178 244 c 0,51,52
 198 225 198 225 204 221 c 0,53,54
 224 212 224 212 280 213 c 2,55,-1
 439 213 l 1,56,-1
 433 239 l 1,57,-1
 457 239 l 1,58,-1
 395 508 l 1,59,-1
 371 508 l 1,60,-1
 365 535 l 1,32,-1
EndSplineSet
EndChar

StartChar: uniFEEB
Encoding: 65259 65259 446
Width: 1516
VWidth: 1639
GlyphClass: 2
Flags: HW
AnchorPoint: "GposMark2BaseAnchorClassErabAbove_01_02" 641 975 basechar 0
AnchorPoint: "GposMark2BaseAnchorClassErabBelow_01_02" 641 -152 basechar 0
LayerCount: 2
Fore
SplineSet
531 825 m 1,0,-1
 746 825 l 1,1,-1
 758 771 l 1,2,-1
 783 771 l 1,3,-1
 789 745 l 1,4,5
 815 745 815 745 866 745 c 0,6,7
 986 747 986 747 1045 743 c 0,8,9
 1136 735 1136 735 1177 704 c 1,10,11
 1222 663 1222 663 1248 544 c 2,12,-1
 1335 171 l 2,13,14
 1360 58 1360 58 1316 28 c 0,15,16
 1273 -2 1273 -2 1161 -2 c 0,17,18
 1150 -2 1150 -2 1146 -2 c 2,19,-1
 911 -2 l 1,20,-1
 -29 -2 l 1,21,-1
 -78 213 l 1,22,-1
 210 213 l 1,23,-1
 204 239 l 1,24,-1
 228 239 l 1,25,-1
 154 559 l 2,26,27
 130 667 130 667 156 704 c 1,28,29
 183 736 183 736 271 743 c 0,30,31
 311 745 311 745 525 745 c 1,32,-1
 519 771 l 1,33,-1
 543 771 l 1,34,-1
 531 825 l 1,0,-1
573 535 m 1,35,-1
 473 535 l 2,36,37
 429 534 429 534 416 523 c 0,38,39
 411 518 411 518 404 503 c 0,40,41
 402 500 402 500 396 495 c 0,42,43
 387 484 387 484 385 477 c 0,44,45
 383 464 383 464 392 430 c 2,46,-1
 410 353 l 2,47,48
 425 290 425 290 428 281 c 0,49,50
 430 276 430 276 432 274 c 0,51,52
 437 265 437 265 457 251 c 0,53,54
 461 248 461 248 463 246 c 0,55,56
 480 228 480 228 483 226 c 0,57,58
 504 213 504 213 547 213 c 2,59,-1
 648 213 l 1,60,-1
 642 239 l 1,61,-1
 666 239 l 1,62,-1
 604 508 l 1,63,-1
 580 508 l 1,64,-1
 573 535 l 1,35,-1
912 213 m 1,65,-1
 1012 213 l 2,66,67
 1056 214 1056 214 1069 225 c 0,68,69
 1071 227 1071 227 1081 244 c 0,70,71
 1083 247 1083 247 1088 252 c 0,72,73
 1097 264 1097 264 1099 272 c 1,74,75
 1100 290 1100 290 1085 353 c 2,76,-1
 1067 430 l 2,77,78
 1058 468 1058 468 1050 479 c 0,79,80
 1043 488 1043 488 1021 503 c 0,81,82
 1018 505 1018 505 1014 511 c 0,83,84
 1005 520 1005 520 1000 523 c 0,85,86
 996 526 996 526 991 528 c 128,-1,87
 986 530 986 530 981 531.5 c 128,-1,88
 976 533 976 533 973 534 c 128,-1,89
 970 535 970 535 964 535 c 128,-1,90
 958 535 958 535 955.5 535 c 128,-1,91
 953 535 953 535 946 535 c 2,92,-1
 938 535 l 1,93,-1
 837 535 l 1,94,-1
 843 508 l 1,95,-1
 819 508 l 1,96,-1
 881 239 l 1,97,-1
 905 239 l 1,98,-1
 912 213 l 1,65,-1
EndSplineSet
EndChar

StartChar: uniFEEC
Encoding: 65260 65260 447
Width: 1523
VWidth: 1639
GlyphClass: 2
Flags: HW
AnchorPoint: "GposMark2BaseAnchorClassErabAbove_01_02" 736.5 977 basechar 0
AnchorPoint: "GposMark2BaseAnchorClassErabBelow_01_02" 736.5 -152 basechar 0
LayerCount: 2
Fore
SplineSet
538 827 m 1,0,-1
 752 827 l 1,1,-1
 764 771 l 1,2,-1
 789 771 l 1,3,-1
 795 745 l 1,4,-1
 970 745 l 2,5,6
 1054 745 1054 745 1070 743 c 0,7,8
 1147 735 1147 735 1184 704 c 1,9,10
 1228 665 1228 665 1254 554 c 2,11,-1
 1326 239 l 1,12,-1
 1351 239 l 1,13,-1
 1357 213 l 1,14,-1
 1502 213 l 1,15,-1
 1551 -2 l 1,16,-1
 -29 -2 l 1,17,-1
 -78 213 l 1,18,-1
 216 213 l 1,19,-1
 210 239 l 1,20,-1
 234 239 l 1,21,-1
 162 554 l 2,22,23
 138 664 138 664 162 704 c 1,24,25
 186 736 186 736 258 743 c 0,26,27
 276 745 276 745 357 745 c 2,28,-1
 533 745 l 1,29,-1
 527 771 l 1,30,-1
 551 771 l 1,31,-1
 538 827 l 1,0,-1
581 535 m 1,32,-1
 480 535 l 2,33,34
 436 534 436 534 423 525 c 1,35,36
 417 518 417 518 411 506 c 2,37,-1
 410 503 l 2,38,39
 408 499 408 499 403 494 c 0,40,41
 395 484 395 484 393 477 c 1,42,43
 392 439 392 439 415 354 c 1,44,45
 430 291 430 291 436 280 c 0,46,47
 439 275 439 275 440 272 c 0,48,49
 444 265 444 265 467 248 c 0,50,51
 470 246 470 246 471 244 c 0,52,53
 474 242 474 242 479 236 c 0,54,55
 488 227 488 227 492 225 c 0,56,57
 496 222 496 222 500.5 220 c 128,-1,58
 505 218 505 218 510 216.5 c 128,-1,59
 515 215 515 215 518 214 c 128,-1,60
 521 213 521 213 527 213 c 128,-1,61
 533 213 533 213 535.5 213 c 128,-1,62
 538 213 538 213 545 213 c 2,63,-1
 553 213 l 1,64,-1
 655 213 l 1,65,-1
 649 239 l 1,66,-1
 674 239 l 1,67,-1
 612 508 l 1,68,-1
 587 508 l 1,69,-1
 581 535 l 1,32,-1
918 213 m 1,70,-1
 1018 213 l 2,71,72
 1062 214 1062 214 1075 225 c 0,73,74
 1077 227 1077 227 1087 244 c 1,75,76
 1103 262 1103 262 1105 269 c 0,77,78
 1111 294 1111 294 1087 378 c 0,79,80
 1084 389 1084 389 1083 395 c 0,81,82
 1068 459 1068 459 1064 468 c 0,83,84
 1062 473 1062 473 1060 476 c 0,85,86
 1056 481 1056 481 1034 499 c 0,87,88
 1031 501 1031 501 1029 503 c 0,89,90
 1010 522 1010 522 1006 525 c 0,91,92
 988 535 988 535 946 535 c 2,93,-1
 843 535 l 1,94,-1
 849 508 l 1,95,-1
 825 508 l 1,96,-1
 887 239 l 1,97,-1
 912 239 l 1,98,-1
 918 213 l 1,70,-1
EndSplineSet
EndChar

